SplineFontDB: 3.0
FontName: CheyenneSans-Italic
FullName: Cheyenne Sans Italic
FamilyName: Cheyenne Sans
Weight: Book
Version: 1.000; ttfautohint (v1.8.2)
ItalicAngle: -8
UnderlinePosition: -200
UnderlineWidth: 50
Ascent: 800
Descent: 200
InvalidEm: 0
sfntRevision: 0x00010000
LayerCount: 2
Layer: 0 1 "Back" 1
Layer: 1 1 "Fore" 0
XUID: [1021 646 1163163066 6329546]
StyleMap: 0x0001
FSType: 0
OS2Version: 3
OS2_WeightWidthSlopeOnly: 0
OS2_UseTypoMetrics: 0
CreationTime: 1513572760
ModificationTime: 1544463715
PfmFamily: 81
TTFWeight: 400
TTFWidth: 5
LineGap: 0
VLineGap: 0
Panose: 0 0 5 0 0 0 0 0 0 0
OS2TypoAscent: 743
OS2TypoAOffset: 0
OS2TypoDescent: -161
OS2TypoDOffset: 0
OS2TypoLinegap: 0
OS2WinAscent: 822
OS2WinAOffset: 0
OS2WinDescent: 178
OS2WinDOffset: 0
HheadAscent: 822
HheadAOffset: 0
HheadDescent: -178
HheadDOffset: 0
OS2SubXSize: 650
OS2SubYSize: 600
OS2SubXOff: 0
OS2SubYOff: 75
OS2SupXSize: 650
OS2SupYSize: 600
OS2SupXOff: 0
OS2SupYOff: 350
OS2StrikeYSize: 50
OS2StrikeYPos: 310
OS2CapHeight: 723
OS2XHeight: 517
OS2Vendor: 'IMPA'
OS2CodePages: 20000193.00000000
OS2UnicodeRanges: 00000007.00000000.00000000.00000000
Lookup: 1 0 0 "'aalt' Access All Alternates in Latin lookup 0" { "'aalt' Access All Alternates in Latin lookup 0 subtable"  } ['aalt' ('DFLT' <'dflt' > 'latn' <'AZE ' 'CAT ' 'CRT ' 'KAZ ' 'MOL ' 'ROM ' 'TAT ' 'TRK ' 'dflt' > ) ]
Lookup: 3 0 0 "'aalt' Access All Alternates in Latin lookup 1" { "'aalt' Access All Alternates in Latin lookup 1 subtable"  } ['aalt' ('DFLT' <'dflt' > 'latn' <'AZE ' 'CAT ' 'CRT ' 'KAZ ' 'MOL ' 'ROM ' 'TAT ' 'TRK ' 'dflt' > ) ]
Lookup: 6 0 0 "'ccmp' Glyph Composition/Decomposition in Latin lookup 2" { "'ccmp' Glyph Composition/Decomposition in Latin lookup 2 contextual 0"  "'ccmp' Glyph Composition/Decomposition in Latin lookup 2 contextual 1"  } ['ccmp' ('DFLT' <'dflt' > 'latn' <'AZE ' 'CAT ' 'CRT ' 'KAZ ' 'MOL ' 'ROM ' 'TAT ' 'TRK ' 'dflt' > ) ]

StartChar: .notdef
Encoding: 65536 -1 0
Width: 679
Flags: W
LayerCount: 2
Fore
SplineSet
649 805 m 2,0,-1
 517 -133 l 2,1,2
 515 -148 515 -148 506.5 -154.5 c 128,-1,3
 498 -161 498 -161 481 -161 c 2,4,-1
 45 -161 l 2,5,6
 30 -161 30 -161 24.5 -155.5 c 128,-1,7
 19 -150 19 -150 21 -137 c 2,8,-1
 153 803 l 2,9,10
 155 814 155 814 161 820 c 128,-1,11
 167 826 167 826 176 826 c 2,12,-1
 635 826 l 2,13,14
 652 826 652 826 649 805 c 2,0,-1
590 772.5 m 128,-1,16
 587 777 587 777 580 777 c 2,17,-1
 236 777 l 1,18,-1
 477 -57 l 1,19,-1
 592 760 l 2,20,15
 593 768 593 768 590 772.5 c 128,-1,16
81.5 -107 m 128,-1,22
 86 -112 86 -112 98 -112 c 2,23,-1
 433 -112 l 1,24,-1
 192 716 l 1,25,-1
 79 -92 l 2,26,21
 77 -102 77 -102 81.5 -107 c 128,-1,22
EndSplineSet
EndChar

StartChar: exclam
Encoding: 33 33 4
Width: 243
GlyphClass: 2
Flags: W
LayerCount: 2
Fore
SplineSet
125 179 m 1,0,-1
 66 179 l 1,1,-1
 120 723 l 1,2,-1
 223 723 l 1,3,-1
 125 179 l 1,0,-1
122 0 m 1,4,-1
 18 0 l 1,5,-1
 33 112 l 1,6,-1
 137 112 l 1,7,-1
 122 0 l 1,4,-1
EndSplineSet
EndChar

StartChar: quotedbl
Encoding: 34 34 5
Width: 411
GlyphClass: 2
Flags: W
LayerCount: 2
Fore
SplineSet
342 496 m 1,0,-1
 292 496 l 1,1,-1
 296 723 l 1,2,-1
 403 723 l 1,3,-1
 342 496 l 1,0,-1
170 496 m 1,4,-1
 120 496 l 1,5,-1
 124 723 l 1,6,-1
 231 723 l 1,7,-1
 170 496 l 1,4,-1
EndSplineSet
EndChar

StartChar: numbersign
Encoding: 35 35 6
Width: 594
GlyphClass: 2
Flags: W
LayerCount: 2
Fore
SplineSet
456 441 m 1,0,-1
 412 290 l 1,1,-1
 519 290 l 1,2,-1
 511 236 l 1,3,-1
 396 236 l 1,4,-1
 327 -2 l 1,5,-1
 274 6 l 1,6,-1
 341 236 l 1,7,-1
 192 236 l 1,8,-1
 123 -2 l 1,9,-1
 70 6 l 1,10,-1
 137 236 l 1,11,-1
 19 236 l 1,12,-1
 27 290 l 1,13,-1
 153 290 l 1,14,-1
 197 441 l 1,15,-1
 80 441 l 1,16,-1
 87 495 l 1,17,-1
 212 495 l 1,18,-1
 280 724 l 1,19,-1
 333 718 l 1,20,-1
 267 495 l 1,21,-1
 416 495 l 1,22,-1
 484 724 l 1,23,-1
 537 718 l 1,24,-1
 471 495 l 1,25,-1
 579 495 l 1,26,-1
 572 441 l 1,27,-1
 456 441 l 1,0,-1
401 441 m 1,28,-1
 252 441 l 1,29,-1
 208 290 l 1,30,-1
 357 290 l 1,31,-1
 401 441 l 1,28,-1
EndSplineSet
EndChar

StartChar: dollar
Encoding: 36 36 7
Width: 598
GlyphClass: 2
Flags: W
LayerCount: 2
Fore
SplineSet
496.5 87 m 128,-1,1
 465 45 465 45 414.5 20 c 128,-1,2
 364 -5 364 -5 302 -7 c 0,3,4
 295 -8 295 -8 293 -10 c 128,-1,5
 291 -12 291 -12 290 -18 c 2,6,-1
 280 -85 l 1,7,-1
 217 -85 l 1,8,-1
 228 -8 l 1,9,10
 143 -6 143 -6 88.5 23.5 c 128,-1,11
 34 53 34 53 -4 113 c 1,12,-1
 59 163 l 1,13,14
 92 114 92 114 134 89.5 c 128,-1,15
 176 65 176 65 239 62 c 1,16,-1
 276 321 l 1,17,18
 198 349 198 349 154 378.5 c 128,-1,19
 110 408 110 408 94 445 c 128,-1,20
 78 482 78 482 85 532 c 0,21,22
 96 610 96 610 160 663 c 128,-1,23
 224 716 224 716 320 728 c 0,24,25
 332 730 332 730 333 739 c 2,26,-1
 341 795 l 1,27,-1
 403 795 l 1,28,-1
 394 730 l 1,29,30
 453 721 453 721 498 697 c 128,-1,31
 543 673 543 673 580 635 c 1,32,-1
 519 579 l 1,33,34
 502 607 502 607 468.5 628 c 128,-1,35
 435 649 435 649 394 656 c 1,36,-1
 391 656 l 2,37,38
 384 656 384 656 382 648 c 2,39,-1
 347 395 l 1,40,-1
 394 379 l 1,41,42
 472 346 472 346 508.5 298 c 128,-1,43
 545 250 545 250 535 181 c 0,44,0
 528 129 528 129 496.5 87 c 128,-1,1
325 659 m 1,45,46
 295 659 295 659 260 645 c 128,-1,47
 225 631 225 631 198.5 603 c 128,-1,48
 172 575 172 575 167 537 c 0,49,50
 162 501 162 501 180 476 c 128,-1,51
 198 451 198 451 224 437 c 128,-1,52
 250 423 250 423 287 409 c 1,53,-1
 325 659 l 1,45,46
404 95 m 128,-1,55
 446 127 446 127 453 174 c 0,56,57
 459 220 459 220 431.5 250.5 c 128,-1,58
 404 281 404 281 335 307 c 1,59,-1
 300 62 l 1,60,54
 362 63 362 63 404 95 c 128,-1,55
EndSplineSet
EndChar

StartChar: percent
Encoding: 37 37 8
Width: 897
GlyphClass: 2
Flags: W
LayerCount: 2
Fore
SplineSet
360 708.5 m 128,-1,1
 395 683 395 683 410 636 c 128,-1,2
 425 589 425 589 416 527 c 128,-1,3
 407 465 407 465 379 418 c 128,-1,4
 351 371 351 371 309.5 346 c 128,-1,5
 268 321 268 321 219 321 c 128,-1,6
 170 321 170 321 135 346 c 128,-1,7
 100 371 100 371 84.5 418 c 128,-1,8
 69 465 69 465 78 527 c 128,-1,9
 87 589 87 589 115.5 636 c 128,-1,10
 144 683 144 683 186.5 708.5 c 128,-1,11
 229 734 229 734 277 734 c 128,-1,0
 325 734 325 734 360 708.5 c 128,-1,1
200 -4 m 1,12,-1
 141 -3 l 1,13,-1
 732 731 l 1,14,-1
 790 731 l 1,15,-1
 200 -4 l 1,12,-1
307 412.5 m 128,-1,17
 340 455 340 455 350 527 c 128,-1,18
 360 599 360 599 338.5 642.5 c 128,-1,19
 317 686 317 686 269 686 c 128,-1,20
 221 686 221 686 187.5 642 c 128,-1,21
 154 598 154 598 144 527 c 128,-1,22
 134 456 134 456 155.5 413 c 128,-1,23
 177 370 177 370 225 370 c 0,24,16
 274 370 274 370 307 412.5 c 128,-1,17
765 378.5 m 128,-1,26
 800 353 800 353 814.5 306 c 128,-1,27
 829 259 829 259 821 197 c 0,28,29
 812 134 812 134 784 87 c 128,-1,30
 756 40 756 40 714 15 c 128,-1,31
 672 -10 672 -10 623 -10 c 128,-1,32
 574 -10 574 -10 539 15 c 128,-1,33
 504 40 504 40 488.5 87 c 128,-1,34
 473 134 473 134 482 197 c 0,35,36
 491 259 491 259 519.5 306 c 128,-1,37
 548 353 548 353 590.5 378.5 c 128,-1,38
 633 404 633 404 681 404 c 0,39,25
 730 404 730 404 765 378.5 c 128,-1,26
710 83.5 m 128,-1,41
 744 127 744 127 754 196 c 0,42,43
 764 266 764 266 742 310 c 128,-1,44
 720 354 720 354 673 354 c 128,-1,45
 626 354 626 354 591.5 309.5 c 128,-1,46
 557 265 557 265 548 196 c 0,47,48
 538 127 538 127 560 83.5 c 128,-1,49
 582 40 582 40 629 40 c 128,-1,40
 676 40 676 40 710 83.5 c 128,-1,41
EndSplineSet
EndChar

StartChar: ampersand
Encoding: 38 38 9
Width: 693
GlyphClass: 2
Flags: W
LayerCount: 2
Fore
SplineSet
451.5 715 m 128,-1,1
 494 696 494 696 515.5 661 c 128,-1,2
 537 626 537 626 531 580 c 0,3,4
 525 536 525 536 479.5 485.5 c 128,-1,5
 434 435 434 435 331 384 c 1,6,-1
 468 192 l 1,7,8
 494 223 494 223 521.5 273 c 128,-1,9
 549 323 549 323 561 387 c 1,10,-1
 645 387 l 1,11,12
 626 316 626 316 591.5 259 c 128,-1,13
 557 202 557 202 504 140 c 1,14,-1
 603 0 l 1,15,-1
 503 0 l 1,16,-1
 444 82 l 1,17,18
 328 -5 328 -5 207 -5 c 0,19,20
 105 -5 105 -5 55 46 c 128,-1,21
 5 97 5 97 17 182 c 0,22,23
 27 251 27 251 75 302.5 c 128,-1,24
 123 354 123 354 218 401 c 1,25,26
 179 450 179 450 162.5 490.5 c 128,-1,27
 146 531 146 531 152 576 c 0,28,29
 158 620 158 620 187 656 c 128,-1,30
 216 692 216 692 260 713 c 128,-1,31
 304 734 304 734 357 734 c 0,32,0
 409 734 409 734 451.5 715 c 128,-1,1
274.5 646.5 m 128,-1,34
 244 620 244 620 239 581 c 0,35,36
 234 547 234 547 249 512 c 128,-1,37
 264 477 264 477 284 452 c 2,38,-1
 299 433 l 1,39,40
 381 477 381 477 414 510 c 128,-1,41
 447 543 447 543 452 579 c 0,42,43
 459 628 459 628 429 651 c 128,-1,44
 399 674 399 674 352 674 c 0,45,33
 305 673 305 673 274.5 646.5 c 128,-1,34
157.5 277.5 m 128,-1,47
 120 238 120 238 113 191 c 0,48,49
 105 135 105 135 140.5 99.5 c 128,-1,50
 176 64 176 64 234 64 c 0,51,52
 277 64 277 64 324 83 c 128,-1,53
 371 102 371 102 408 135 c 1,54,-1
 254 348 l 1,55,46
 195 317 195 317 157.5 277.5 c 128,-1,47
EndSplineSet
EndChar

StartChar: quotesingle
Encoding: 39 39 10
Width: 242
GlyphClass: 2
Flags: W
LayerCount: 2
Fore
SplineSet
165 496 m 1,0,-1
 115 496 l 1,1,-1
 119 723 l 1,2,-1
 226 723 l 1,3,-1
 165 496 l 1,0,-1
EndSplineSet
EndChar

StartChar: parenleft
Encoding: 40 40 11
Width: 292
GlyphClass: 2
Flags: W
LayerCount: 2
Fore
SplineSet
205.5 504.5 m 128,-1,1
 157 390 157 390 142 277 c 0,2,3
 127 167 127 167 138.5 60.5 c 128,-1,4
 150 -46 150 -46 189 -161 c 1,5,-1
 131 -161 l 1,6,7
 80 -46 80 -46 60.5 56 c 128,-1,8
 41 158 41 158 58 278 c 0,9,10
 75 397 75 397 129 511 c 128,-1,11
 183 625 183 625 263 723 c 1,12,-1
 322 723 l 1,13,0
 254 619 254 619 205.5 504.5 c 128,-1,1
EndSplineSet
EndChar

StartChar: parenright
Encoding: 41 41 12
Width: 292
GlyphClass: 2
Flags: W
LayerCount: 2
Fore
SplineSet
112.5 57.5 m 128,-1,1
 161 172 161 172 176 285 c 0,2,3
 191 395 191 395 179.5 501.5 c 128,-1,4
 168 608 168 608 129 723 c 1,5,-1
 187 723 l 1,6,7
 238 608 238 608 257.5 506 c 128,-1,8
 277 404 277 404 260 284 c 0,9,10
 243 165 243 165 189 51 c 128,-1,11
 135 -63 135 -63 55 -161 c 1,12,-1
 -4 -161 l 1,13,0
 64 -57 64 -57 112.5 57.5 c 128,-1,1
EndSplineSet
EndChar

StartChar: asterisk
Encoding: 42 42 13
Width: 382
GlyphClass: 2
Flags: W
LayerCount: 2
Fore
SplineSet
219 518 m 1,0,-1
 121 390 l 1,1,-1
 74 425 l 1,2,-1
 185 542 l 1,3,-1
 60 579 l 1,4,-1
 88 634 l 1,5,-1
 205 584 l 1,6,-1
 215 723 l 1,7,-1
 280 723 l 1,8,-1
 252 584 l 1,9,-1
 384 638 l 1,10,-1
 395 583 l 1,11,-1
 262 542 l 1,12,-1
 337 430 l 1,13,-1
 280 393 l 1,14,-1
 219 518 l 1,0,-1
EndSplineSet
EndChar

StartChar: plus
Encoding: 43 43 14
Width: 546
GlyphClass: 2
Flags: W
LayerCount: 2
Fore
SplineSet
483 330 m 1,0,-1
 304 330 l 1,1,-1
 279 151 l 1,2,-1
 212 151 l 1,3,-1
 237 329 l 1,4,-1
 56 329 l 1,5,-1
 65 397 l 1,6,-1
 245 397 l 1,7,-1
 271 577 l 1,8,-1
 338 577 l 1,9,-1
 312 397 l 1,10,-1
 492 397 l 1,11,-1
 483 330 l 1,0,-1
EndSplineSet
EndChar

StartChar: comma
Encoding: 44 44 15
Width: 230
GlyphClass: 2
Flags: W
LayerCount: 2
Fore
SplineSet
47 -2 m 1,0,-1
 4 0 l 1,1,-1
 19 107 l 1,2,-1
 131 107 l 1,3,-1
 118 14 l 1,4,-1
 16 -124 l 1,5,-1
 -26 -124 l 1,6,-1
 47 -2 l 1,0,-1
EndSplineSet
Substitution2: "'tnum' Tabular Numbers in Latin lookup 23 subtable" comma.tf
Substitution2: "'aalt' Access All Alternates in Latin lookup 0 subtable" comma.tf
EndChar

StartChar: hyphen
Encoding: 45 45 16
Width: 375
GlyphClass: 2
Flags: W
LayerCount: 2
Fore
SplineSet
294 224 m 1,0,-1
 43 224 l 1,1,-1
 52 292 l 1,2,-1
 304 293 l 1,3,-1
 294 224 l 1,0,-1
EndSplineSet
EndChar

StartChar: period
Encoding: 46 46 17
Width: 217
GlyphClass: 2
Flags: W
LayerCount: 2
Fore
SplineSet
110 0 m 1,0,-1
 5 0 l 1,1,-1
 21 113 l 1,2,-1
 126 113 l 1,3,-1
 110 0 l 1,0,-1
EndSplineSet
Substitution2: "'tnum' Tabular Numbers in Latin lookup 23 subtable" period.tf
Substitution2: "'aalt' Access All Alternates in Latin lookup 0 subtable" period.tf
EndChar

StartChar: slash
Encoding: 47 47 18
Width: 343
GlyphClass: 2
Flags: W
LayerCount: 2
Fore
SplineSet
317 723 m 1,0,-1
 385 723 l 1,1,-1
 27 -41 l 1,2,-1
 -41 -41 l 1,3,-1
 317 723 l 1,0,-1
EndSplineSet
Substitution2: "'frac' Diagonal Fractions in Latin lookup 16 subtable" fraction
Substitution2: "'aalt' Access All Alternates in Latin lookup 0 subtable" fraction
EndChar

StartChar: zero
Encoding: 48 48 19
Width: 632
GlyphClass: 2
Flags: W
LayerCount: 2
Fore
SplineSet
505 690.5 m 128,-1,1
 560 648 560 648 582.5 564 c 128,-1,2
 605 480 605 480 588 360 c 128,-1,3
 571 240 571 240 525 157 c 128,-1,4
 479 74 479 74 412 32.5 c 128,-1,5
 345 -9 345 -9 266 -9 c 128,-1,6
 187 -9 187 -9 132 32.5 c 128,-1,7
 77 74 77 74 54 156.5 c 128,-1,8
 31 239 31 239 48 359 c 128,-1,9
 65 479 65 479 112 563.5 c 128,-1,10
 159 648 159 648 226 690.5 c 128,-1,11
 293 733 293 733 372 733 c 0,12,0
 450 733 450 733 505 690.5 c 128,-1,1
416.5 137 m 128,-1,14
 472 209 472 209 493 360 c 0,15,16
 515 513 515 513 478.5 586.5 c 128,-1,17
 442 660 442 660 360 660 c 128,-1,18
 278 660 278 660 221.5 586 c 128,-1,19
 165 512 165 512 143 360 c 0,20,21
 122 210 122 210 159 137.5 c 128,-1,22
 196 65 196 65 278 65 c 0,23,13
 361 65 361 65 416.5 137 c 128,-1,14
EndSplineSet
Substitution2: "'onum' Oldstyle Figures in Latin lookup 24 subtable" zero.osf
Substitution2: "'tnum' Tabular Numbers in Latin lookup 23 subtable" zero.tf
Substitution2: "'frac' Diagonal Fractions in Latin lookup 17 subtable" zero.numr
Substitution2: "'dnom' Denominators in Latin lookup 15 subtable" zero.dnom
Substitution2: "'numr' Numerators in Latin lookup 14 subtable" zero.numr
Substitution2: "'sups' Superscript in Latin lookup 13 subtable" uni2070
Substitution2: "'sinf' Scientific Inferiors in Latin lookup 12 subtable" zero.subs
Substitution2: "'subs' Subscript in Latin lookup 11 subtable" zero.subs
AlternateSubs2: "'aalt' Access All Alternates in Latin lookup 1 subtable" zero.subs uni2070 zero.numr zero.dnom zero.tf zero.osf
EndChar

StartChar: one
Encoding: 49 49 20
Width: 381
GlyphClass: 2
Flags: W
LayerCount: 2
Fore
SplineSet
214 622 m 1,0,-1
 66 572 l 1,1,-1
 76 638 l 1,2,-1
 259 723 l 1,3,-1
 317 723 l 1,4,-1
 216 0 l 1,5,-1
 127 0 l 1,6,-1
 214 622 l 1,0,-1
EndSplineSet
Substitution2: "'onum' Oldstyle Figures in Latin lookup 24 subtable" one.osf
Substitution2: "'tnum' Tabular Numbers in Latin lookup 23 subtable" one.tf
Substitution2: "'frac' Diagonal Fractions in Latin lookup 17 subtable" one.numr
Substitution2: "'dnom' Denominators in Latin lookup 15 subtable" one.dnom
Substitution2: "'numr' Numerators in Latin lookup 14 subtable" one.numr
Substitution2: "'sups' Superscript in Latin lookup 13 subtable" uni00B9
Substitution2: "'sinf' Scientific Inferiors in Latin lookup 12 subtable" one.subs
Substitution2: "'subs' Subscript in Latin lookup 11 subtable" one.subs
AlternateSubs2: "'aalt' Access All Alternates in Latin lookup 1 subtable" one.subs uni00B9 one.numr one.dnom one.tf one.osf
EndChar

StartChar: two
Encoding: 50 50 21
Width: 573
GlyphClass: 2
Flags: W
LayerCount: 2
Fore
SplineSet
4 76 m 1,0,-1
 270 303 l 2,1,2
 336 359 336 359 372.5 395 c 128,-1,3
 409 431 409 431 428 462.5 c 128,-1,4
 447 494 447 494 452 529 c 0,5,6
 461 593 461 593 422.5 625 c 128,-1,7
 384 657 384 657 327 657 c 0,8,9
 274 657 274 657 225.5 632 c 128,-1,10
 177 607 177 607 144 554 c 1,11,-1
 70 574 l 1,12,13
 110 651 110 651 179.5 692 c 128,-1,14
 249 733 249 733 342 733 c 0,15,16
 408 733 408 733 456.5 709 c 128,-1,17
 505 685 505 685 528 639.5 c 128,-1,18
 551 594 551 594 542 531 c 0,19,20
 536 488 536 488 516 451.5 c 128,-1,21
 496 415 496 415 458.5 375 c 128,-1,22
 421 335 421 335 353 276 c 2,23,-1
 124 77 l 1,24,-1
 486 77 l 1,25,-1
 475 0 l 1,26,-1
 -7 0 l 1,27,-1
 4 76 l 1,0,-1
EndSplineSet
Substitution2: "'onum' Oldstyle Figures in Latin lookup 24 subtable" two.osf
Substitution2: "'tnum' Tabular Numbers in Latin lookup 23 subtable" two.tf
Substitution2: "'frac' Diagonal Fractions in Latin lookup 17 subtable" two.numr
Substitution2: "'dnom' Denominators in Latin lookup 15 subtable" two.dnom
Substitution2: "'numr' Numerators in Latin lookup 14 subtable" two.numr
Substitution2: "'sups' Superscript in Latin lookup 13 subtable" uni00B2
Substitution2: "'sinf' Scientific Inferiors in Latin lookup 12 subtable" two.subs
Substitution2: "'subs' Subscript in Latin lookup 11 subtable" two.subs
AlternateSubs2: "'aalt' Access All Alternates in Latin lookup 1 subtable" two.subs uni00B2 two.numr two.dnom two.tf two.osf
EndChar

StartChar: three
Encoding: 51 51 22
Width: 629
GlyphClass: 2
Flags: W
LayerCount: 2
Fore
SplineSet
204 698 m 128,-1,1
 278 733 278 733 366 733 c 0,2,3
 437 733 437 733 490 709 c 128,-1,4
 543 685 543 685 569 643.5 c 128,-1,5
 595 602 595 602 588 550 c 0,6,7
 572 434 572 434 424 385 c 1,8,9
 496 365 496 365 533 317 c 128,-1,10
 570 269 570 269 560 200 c 0,11,12
 552 140 552 140 509.5 92 c 128,-1,13
 467 44 467 44 400 17 c 128,-1,14
 333 -10 333 -10 253 -10 c 0,15,16
 155 -10 155 -10 95 22.5 c 128,-1,17
 35 55 35 55 11 133 c 1,18,-1
 92 153 l 1,19,20
 139 64 139 64 261 64 c 0,21,22
 346 64 346 64 401 101.5 c 128,-1,23
 456 139 456 139 464 198 c 0,24,25
 470 242 470 242 449.5 274 c 128,-1,26
 429 306 429 306 390 323 c 128,-1,27
 351 340 351 340 304 340 c 2,28,-1
 206 341 l 1,29,-1
 216 413 l 1,30,-1
 299 415 l 2,31,32
 348 415 348 415 390.5 432.5 c 128,-1,33
 433 450 433 450 461 479.5 c 128,-1,34
 489 509 489 509 494 545 c 0,35,36
 498 577 498 577 481.5 604 c 128,-1,37
 465 631 465 631 431.5 646 c 128,-1,38
 398 661 398 661 355 661 c 0,39,40
 232 661 232 661 171 572 c 1,41,-1
 97 592 l 1,42,0
 130 663 130 663 204 698 c 128,-1,1
EndSplineSet
Substitution2: "'onum' Oldstyle Figures in Latin lookup 24 subtable" three.osf
Substitution2: "'tnum' Tabular Numbers in Latin lookup 23 subtable" three.tf
Substitution2: "'frac' Diagonal Fractions in Latin lookup 17 subtable" three.numr
Substitution2: "'dnom' Denominators in Latin lookup 15 subtable" three.dnom
Substitution2: "'numr' Numerators in Latin lookup 14 subtable" three.numr
Substitution2: "'sups' Superscript in Latin lookup 13 subtable" uni00B3
Substitution2: "'sinf' Scientific Inferiors in Latin lookup 12 subtable" three.subs
Substitution2: "'subs' Subscript in Latin lookup 11 subtable" three.subs
AlternateSubs2: "'aalt' Access All Alternates in Latin lookup 1 subtable" three.subs uni00B3 three.numr three.dnom three.tf three.osf
EndChar

StartChar: four
Encoding: 52 52 23
Width: 615
GlyphClass: 2
Flags: W
LayerCount: 2
Fore
SplineSet
520 723 m 1,0,-1
 455 266 l 1,1,-1
 568 266 l 1,2,-1
 557 188 l 1,3,-1
 444 188 l 1,4,-1
 418 0 l 1,5,-1
 332 0 l 1,6,-1
 359 188 l 1,7,-1
 20 188 l 1,8,-1
 32 269 l 1,9,-1
 432 723 l 1,10,-1
 520 723 l 1,0,-1
367 266 m 1,11,-1
 414 597 l 1,12,-1
 121 266 l 1,13,-1
 367 266 l 1,11,-1
EndSplineSet
Substitution2: "'onum' Oldstyle Figures in Latin lookup 24 subtable" four.osf
Substitution2: "'tnum' Tabular Numbers in Latin lookup 23 subtable" four.tf
Substitution2: "'frac' Diagonal Fractions in Latin lookup 17 subtable" four.numr
Substitution2: "'dnom' Denominators in Latin lookup 15 subtable" four.dnom
Substitution2: "'numr' Numerators in Latin lookup 14 subtable" four.numr
Substitution2: "'sups' Superscript in Latin lookup 13 subtable" uni2074
Substitution2: "'sinf' Scientific Inferiors in Latin lookup 12 subtable" four.subs
Substitution2: "'subs' Subscript in Latin lookup 11 subtable" four.subs
AlternateSubs2: "'aalt' Access All Alternates in Latin lookup 1 subtable" four.subs uni2074 four.numr four.dnom four.tf four.osf
EndChar

StartChar: five
Encoding: 53 53 24
Width: 641
GlyphClass: 2
Flags: W
LayerCount: 2
Fore
SplineSet
603 723 m 1,0,-1
 587 648 l 1,1,-1
 233 648 l 1,2,-1
 180 407 l 1,3,4
 234 433 234 433 272.5 445.5 c 128,-1,5
 311 458 311 458 361 458 c 0,6,7
 428 458 428 458 479.5 434 c 128,-1,8
 531 410 531 410 556.5 360 c 128,-1,9
 582 310 582 310 572 237 c 0,10,11
 561 161 561 161 517.5 105 c 128,-1,12
 474 49 474 49 407.5 19.5 c 128,-1,13
 341 -10 341 -10 260 -10 c 0,14,15
 181 -10 181 -10 116 19.5 c 128,-1,16
 51 49 51 49 13 104 c 1,17,-1
 83 155 l 1,18,19
 124 107 124 107 161 85 c 128,-1,20
 198 63 198 63 258 63 c 0,21,22
 349 63 349 63 408 110.5 c 128,-1,23
 467 158 467 158 477 234 c 0,24,25
 487 307 487 307 446.5 345.5 c 128,-1,26
 406 384 406 384 334 384 c 0,27,28
 289 384 289 384 249.5 369.5 c 128,-1,29
 210 355 210 355 161 328 c 0,30,31
 155 325 155 325 151 325 c 0,32,33
 149 325 149 325 147.5 326.5 c 128,-1,34
 146 328 146 328 143 329 c 2,35,-1
 89 363 l 1,36,-1
 169 723 l 1,37,-1
 603 723 l 1,0,-1
EndSplineSet
Substitution2: "'onum' Oldstyle Figures in Latin lookup 24 subtable" five.osf
Substitution2: "'tnum' Tabular Numbers in Latin lookup 23 subtable" five.tf
Substitution2: "'frac' Diagonal Fractions in Latin lookup 17 subtable" five.numr
Substitution2: "'dnom' Denominators in Latin lookup 15 subtable" five.dnom
Substitution2: "'numr' Numerators in Latin lookup 14 subtable" five.numr
Substitution2: "'sups' Superscript in Latin lookup 13 subtable" uni2075
Substitution2: "'sinf' Scientific Inferiors in Latin lookup 12 subtable" five.subs
Substitution2: "'subs' Subscript in Latin lookup 11 subtable" five.subs
AlternateSubs2: "'aalt' Access All Alternates in Latin lookup 1 subtable" five.subs uni2075 five.numr five.dnom five.tf five.osf
EndChar

StartChar: six
Encoding: 54 54 25
Width: 609
GlyphClass: 2
Flags: W
LayerCount: 2
Fore
SplineSet
527.5 699.5 m 128,-1,1
 580 660 580 660 590 597 c 1,2,-1
 515 575 l 1,3,4
 494 620 494 620 465 643 c 128,-1,5
 436 666 436 666 380 666 c 0,6,7
 288 666 288 666 226 587 c 128,-1,8
 164 508 164 508 143 360 c 0,9,10
 139 331 139 331 138 316 c 1,11,12
 165 372 165 372 222.5 405 c 128,-1,13
 280 438 280 438 346 438 c 0,14,15
 418 438 418 438 466 409.5 c 128,-1,16
 514 381 514 381 534 331.5 c 128,-1,17
 554 282 554 282 546 221 c 0,18,19
 537 154 537 154 497.5 103 c 128,-1,20
 458 52 458 52 397.5 24.5 c 128,-1,21
 337 -3 337 -3 267 -3 c 0,22,23
 183 -3 183 -3 128 39.5 c 128,-1,24
 73 82 73 82 52 163 c 128,-1,25
 31 244 31 244 47 357 c 0,26,27
 64 475 64 475 110.5 561 c 128,-1,28
 157 647 157 647 228.5 693 c 128,-1,29
 300 739 300 739 390 739 c 0,30,0
 475 739 475 739 527.5 699.5 c 128,-1,1
240 352 m 128,-1,32
 200 336 200 336 173 306 c 128,-1,33
 146 276 146 276 140 238 c 1,34,35
 141 153 141 153 176 110.5 c 128,-1,36
 211 68 211 68 276 68 c 0,37,38
 343 68 343 68 393.5 110 c 128,-1,39
 444 152 444 152 453 217 c 0,40,41
 459 259 459 259 445.5 293.5 c 128,-1,42
 432 328 432 328 400.5 348 c 128,-1,43
 369 368 369 368 324 368 c 0,44,31
 280 368 280 368 240 352 c 128,-1,32
EndSplineSet
Substitution2: "'onum' Oldstyle Figures in Latin lookup 24 subtable" six.osf
Substitution2: "'tnum' Tabular Numbers in Latin lookup 23 subtable" six.tf
Substitution2: "'frac' Diagonal Fractions in Latin lookup 17 subtable" six.numr
Substitution2: "'dnom' Denominators in Latin lookup 15 subtable" six.dnom
Substitution2: "'numr' Numerators in Latin lookup 14 subtable" six.numr
Substitution2: "'sups' Superscript in Latin lookup 13 subtable" uni2076
Substitution2: "'sinf' Scientific Inferiors in Latin lookup 12 subtable" six.subs
Substitution2: "'subs' Subscript in Latin lookup 11 subtable" six.subs
AlternateSubs2: "'aalt' Access All Alternates in Latin lookup 1 subtable" six.subs uni2076 six.numr six.dnom six.tf six.osf
EndChar

StartChar: seven
Encoding: 55 55 26
Width: 570
GlyphClass: 2
Flags: W
LayerCount: 2
Fore
SplineSet
592 723 m 1,0,-1
 580 635 l 1,1,2
 505 548 505 548 426.5 427 c 128,-1,3
 348 306 348 306 289.5 190 c 128,-1,4
 231 74 231 74 212 0 c 1,5,-1
 116 0 l 1,6,7
 140 76 140 76 190.5 183.5 c 128,-1,8
 241 291 241 291 318 414 c 128,-1,9
 395 537 395 537 491 648 c 1,10,-1
 77 648 l 1,11,-1
 87 723 l 1,12,-1
 592 723 l 1,0,-1
EndSplineSet
Substitution2: "'onum' Oldstyle Figures in Latin lookup 24 subtable" seven.osf
Substitution2: "'tnum' Tabular Numbers in Latin lookup 23 subtable" seven.tf
Substitution2: "'frac' Diagonal Fractions in Latin lookup 17 subtable" seven.numr
Substitution2: "'dnom' Denominators in Latin lookup 15 subtable" seven.dnom
Substitution2: "'numr' Numerators in Latin lookup 14 subtable" seven.numr
Substitution2: "'sups' Superscript in Latin lookup 13 subtable" uni2077
Substitution2: "'sinf' Scientific Inferiors in Latin lookup 12 subtable" seven.subs
Substitution2: "'subs' Subscript in Latin lookup 11 subtable" seven.subs
AlternateSubs2: "'aalt' Access All Alternates in Latin lookup 1 subtable" seven.subs uni2077 seven.numr seven.dnom seven.tf seven.osf
EndChar

StartChar: eight
Encoding: 56 56 27
Width: 618
GlyphClass: 2
Flags: W
LayerCount: 2
Fore
SplineSet
482.5 708 m 128,-1,1
 533 683 533 683 556.5 637.5 c 128,-1,2
 580 592 580 592 572 534 c 0,3,4
 563 467 563 467 520 428.5 c 128,-1,5
 477 390 477 390 437 371 c 1,6,7
 443 369 443 369 480 352.5 c 128,-1,8
 517 336 517 336 541 294 c 128,-1,9
 565 252 565 252 556 192 c 0,10,11
 547 131 547 131 507 85 c 128,-1,12
 467 39 467 39 402 14.5 c 128,-1,13
 337 -10 337 -10 255 -10 c 0,14,15
 133 -10 133 -10 69 40 c 128,-1,16
 5 90 5 90 17 179 c 0,17,18
 24 232 24 232 64 280 c 128,-1,19
 104 328 104 328 178 360 c 1,20,21
 141 377 141 377 107.5 413 c 128,-1,22
 74 449 74 449 85 523 c 0,23,24
 93 582 93 582 131.5 630 c 128,-1,25
 170 678 170 678 230 705.5 c 128,-1,26
 290 733 290 733 362 733 c 0,27,0
 432 733 432 733 482.5 708 c 128,-1,1
271 645 m 128,-1,29
 233 628 233 628 208.5 598 c 128,-1,30
 184 568 184 568 179 531 c 0,31,32
 167 445 167 445 263 422 c 2,33,-1
 358 398 l 2,34,35
 376 394 376 394 405.5 414 c 128,-1,36
 435 434 435 434 459.5 467.5 c 128,-1,37
 484 501 484 501 488 535 c 0,38,39
 496 592 496 592 459.5 627 c 128,-1,40
 423 662 423 662 353 662 c 0,41,28
 309 662 309 662 271 645 c 128,-1,29
401 95.5 m 128,-1,43
 453 130 453 130 462 188 c 0,44,45
 468 233 468 233 447.5 260.5 c 128,-1,46
 427 288 427 288 375 301 c 2,47,-1
 255 332 l 2,48,49
 252 333 252 333 246 333 c 0,50,51
 224 333 224 333 192.5 313.5 c 128,-1,52
 161 294 161 294 135.5 261.5 c 128,-1,53
 110 229 110 229 105 191 c 0,54,55
 96 130 96 130 138.5 95.5 c 128,-1,56
 181 61 181 61 269 61 c 0,57,42
 349 61 349 61 401 95.5 c 128,-1,43
EndSplineSet
Substitution2: "'onum' Oldstyle Figures in Latin lookup 24 subtable" eight.osf
Substitution2: "'tnum' Tabular Numbers in Latin lookup 23 subtable" eight.tf
Substitution2: "'frac' Diagonal Fractions in Latin lookup 17 subtable" eight.numr
Substitution2: "'dnom' Denominators in Latin lookup 15 subtable" eight.dnom
Substitution2: "'numr' Numerators in Latin lookup 14 subtable" eight.numr
Substitution2: "'sups' Superscript in Latin lookup 13 subtable" uni2078
Substitution2: "'sinf' Scientific Inferiors in Latin lookup 12 subtable" eight.subs
Substitution2: "'subs' Subscript in Latin lookup 11 subtable" eight.subs
AlternateSubs2: "'aalt' Access All Alternates in Latin lookup 1 subtable" eight.subs uni2078 eight.numr eight.dnom eight.tf eight.osf
EndChar

StartChar: nine
Encoding: 57 57 28
Width: 609
GlyphClass: 2
Flags: W
LayerCount: 2
Fore
SplineSet
85 30.5 m 128,-1,1
 32 70 32 70 22 133 c 1,2,-1
 99 154 l 1,3,4
 119 110 119 110 147 86.5 c 128,-1,5
 175 63 175 63 230 63 c 0,6,7
 326 63 326 63 390.5 141.5 c 128,-1,8
 455 220 455 220 477 377 c 0,9,10
 481 402 481 402 481 416 c 1,11,12
 454 357 454 357 396.5 322.5 c 128,-1,13
 339 288 339 288 269 288 c 0,14,15
 197 288 197 288 148.5 317 c 128,-1,16
 100 346 100 346 79 396 c 128,-1,17
 58 446 58 446 66 509 c 0,18,19
 75 576 75 576 114.5 626.5 c 128,-1,20
 154 677 154 677 214.5 704.5 c 128,-1,21
 275 732 275 732 346 732 c 0,22,23
 430 732 430 732 485 689.5 c 128,-1,24
 540 647 540 647 561 566.5 c 128,-1,25
 582 486 582 486 566 373 c 0,26,27
 540 189 540 189 450.5 90 c 128,-1,28
 361 -9 361 -9 223 -9 c 0,29,0
 138 -9 138 -9 85 30.5 c 128,-1,1
373 379 m 128,-1,31
 414 396 414 396 441 426 c 128,-1,32
 468 456 468 456 473 492 c 1,33,34
 471 576 471 576 436 619 c 128,-1,35
 401 662 401 662 336 662 c 0,36,37
 269 662 269 662 219.5 620 c 128,-1,38
 170 578 170 578 161 513 c 0,39,40
 155 472 155 472 168.5 437.5 c 128,-1,41
 182 403 182 403 212.5 382.5 c 128,-1,42
 243 362 243 362 288 362 c 0,43,30
 332 362 332 362 373 379 c 128,-1,31
EndSplineSet
Substitution2: "'onum' Oldstyle Figures in Latin lookup 24 subtable" nine.osf
Substitution2: "'tnum' Tabular Numbers in Latin lookup 23 subtable" nine.tf
Substitution2: "'frac' Diagonal Fractions in Latin lookup 17 subtable" nine.numr
Substitution2: "'dnom' Denominators in Latin lookup 15 subtable" nine.dnom
Substitution2: "'numr' Numerators in Latin lookup 14 subtable" nine.numr
Substitution2: "'sups' Superscript in Latin lookup 13 subtable" uni2079
Substitution2: "'sinf' Scientific Inferiors in Latin lookup 12 subtable" nine.subs
Substitution2: "'subs' Subscript in Latin lookup 11 subtable" nine.subs
AlternateSubs2: "'aalt' Access All Alternates in Latin lookup 1 subtable" nine.subs uni2079 nine.numr nine.dnom nine.tf nine.osf
EndChar

StartChar: colon
Encoding: 58 58 29
Width: 217
GlyphClass: 2
Flags: W
LayerCount: 2
Fore
SplineSet
164 383 m 1,0,-1
 59 383 l 1,1,-1
 75 495 l 1,2,-1
 180 495 l 1,3,-1
 164 383 l 1,0,-1
110 3 m 1,4,-1
 5 3 l 1,5,-1
 21 115 l 1,6,-1
 126 115 l 1,7,-1
 110 3 l 1,4,-1
EndSplineSet
EndChar

StartChar: semicolon
Encoding: 59 59 30
Width: 240
GlyphClass: 2
Flags: W
LayerCount: 2
Fore
SplineSet
77 494 m 1,0,-1
 181 494 l 1,1,-1
 165 381 l 1,2,-1
 61 381 l 1,3,-1
 77 494 l 1,0,-1
52 0 m 1,4,-1
 11 0 l 1,5,-1
 27 112 l 1,6,-1
 132 112 l 1,7,-1
 118 13 l 1,8,-1
 14 -141 l 1,9,-1
 -24 -141 l 1,10,-1
 52 0 l 1,4,-1
EndSplineSet
EndChar

StartChar: less
Encoding: 60 60 31
Width: 542
GlyphClass: 2
Flags: W
LayerCount: 2
Fore
SplineSet
442 143 m 1,0,-1
 48 306 l 1,1,-1
 59 386 l 1,2,-1
 501 552 l 1,3,-1
 489 469 l 1,4,-1
 158 346 l 1,5,-1
 453 224 l 1,6,-1
 442 143 l 1,0,-1
EndSplineSet
EndChar

StartChar: equal
Encoding: 61 61 32
Width: 546
GlyphClass: 2
Flags: W
LayerCount: 2
Fore
SplineSet
497 427 m 1,0,-1
 69 426 l 1,1,-1
 79 493 l 1,2,-1
 506 494 l 1,3,-1
 497 427 l 1,0,-1
465 206 m 1,4,-1
 38 205 l 1,5,-1
 48 272 l 1,6,-1
 475 273 l 1,7,-1
 465 206 l 1,4,-1
EndSplineSet
EndChar

StartChar: greater
Encoding: 62 62 33
Width: 540
GlyphClass: 2
Flags: W
LayerCount: 2
Fore
SplineSet
379 346 m 1,0,-1
 83 469 l 1,1,-1
 94 552 l 1,2,-1
 488 386 l 1,3,-1
 477 306 l 1,4,-1
 38 143 l 1,5,-1
 49 224 l 1,6,-1
 379 346 l 1,0,-1
EndSplineSet
EndChar

StartChar: question
Encoding: 63 63 34
Width: 516
GlyphClass: 2
Flags: W
LayerCount: 2
Fore
SplineSet
169 695.5 m 128,-1,1
 237 733 237 733 316 733 c 0,2,3
 381 733 381 733 428 711 c 128,-1,4
 475 689 475 689 496 649.5 c 128,-1,5
 517 610 517 610 510 559 c 0,6,7
 504 519 504 519 486.5 486.5 c 128,-1,8
 469 454 469 454 446 429.5 c 128,-1,9
 423 405 423 405 384 369 c 0,10,11
 346 334 346 334 322.5 309.5 c 128,-1,12
 299 285 299 285 281 252.5 c 128,-1,13
 263 220 263 220 257 181 c 1,14,-1
 183 181 l 1,15,16
 190 229 190 229 210 267.5 c 128,-1,17
 230 306 230 306 254.5 334.5 c 128,-1,18
 279 363 279 363 318 401 c 0,19,20
 367 448 367 448 391.5 481 c 128,-1,21
 416 514 416 514 422 556 c 0,22,23
 429 607 429 607 397 636.5 c 128,-1,24
 365 666 365 666 305 666 c 0,25,26
 255 666 255 666 205 637.5 c 128,-1,27
 155 609 155 609 133 567 c 1,28,-1
 60 591 l 1,29,0
 101 658 101 658 169 695.5 c 128,-1,1
247 0 m 1,30,-1
 144 0 l 1,31,-1
 159 112 l 1,32,-1
 262 112 l 1,33,-1
 247 0 l 1,30,-1
EndSplineSet
EndChar

StartChar: at
Encoding: 64 64 35
Width: 816
GlyphClass: 2
Flags: W
LayerCount: 2
Fore
SplineSet
488 -90 m 128,-1,1
 426 -110 426 -110 359 -110 c 0,2,3
 244 -110 244 -110 165.5 -61.5 c 128,-1,4
 87 -13 87 -13 53 70 c 128,-1,5
 19 153 19 153 33 254 c 0,6,7
 48 360 48 360 110 449 c 128,-1,8
 172 538 172 538 269 591 c 128,-1,9
 366 644 366 644 480 644 c 0,10,11
 570 644 570 644 644 610 c 128,-1,12
 718 576 718 576 757 505.5 c 128,-1,13
 796 435 796 435 781 331 c 0,14,15
 771 258 771 258 738.5 200.5 c 128,-1,16
 706 143 706 143 658.5 111 c 128,-1,17
 611 79 611 79 557 79 c 0,18,19
 484 79 484 79 476 131 c 0,20,21
 474 137 474 137 472 137 c 0,22,23
 471 137 471 137 465 132 c 0,24,25
 405 65 405 65 321 65 c 0,26,27
 283 65 283 65 254.5 86.5 c 128,-1,28
 226 108 226 108 212.5 147 c 128,-1,29
 199 186 199 186 206 237 c 0,30,31
 215 299 215 299 246 350.5 c 128,-1,32
 277 402 277 402 325 432.5 c 128,-1,33
 373 463 373 463 427 463 c 0,34,35
 501 463 501 463 531 402 c 0,36,37
 533 400 533 400 535 400.5 c 128,-1,38
 537 401 537 401 539 405 c 2,39,-1
 551 438 l 1,40,-1
 611 438 l 1,41,-1
 543 215 l 2,42,43
 537 197 537 197 536 184 c 0,44,45
 533 160 533 160 541.5 149.5 c 128,-1,46
 550 139 550 139 570 139 c 0,47,48
 602 139 602 139 632.5 161.5 c 128,-1,49
 663 184 663 184 684.5 226.5 c 128,-1,50
 706 269 706 269 714 325 c 0,51,52
 727 415 727 415 695 473.5 c 128,-1,53
 663 532 663 532 603.5 559 c 128,-1,54
 544 586 544 586 472 586 c 0,55,56
 370 586 370 586 290.5 541.5 c 128,-1,57
 211 497 211 497 161.5 421 c 128,-1,58
 112 345 112 345 99 254 c 0,59,60
 87 166 87 166 115 96.5 c 128,-1,61
 143 27 143 27 210.5 -13 c 128,-1,62
 278 -53 278 -53 381 -53 c 0,63,64
 423 -53 423 -53 455.5 -45 c 128,-1,65
 488 -37 488 -37 512 -25 c 128,-1,66
 536 -13 536 -13 573 10 c 1,67,-1
 601 -35 l 1,68,0
 550 -70 550 -70 488 -90 c 128,-1,1
289 159 m 128,-1,70
 306 128 306 128 344 128 c 0,71,72
 379 128 379 128 412 151 c 128,-1,73
 445 174 445 174 468 211.5 c 128,-1,74
 491 249 491 249 497 291 c 0,75,76
 504 343 504 343 482 372 c 128,-1,77
 460 401 460 401 423 401 c 0,78,79
 370 401 370 401 329.5 355 c 128,-1,80
 289 309 289 309 280 242 c 0,81,69
 272 190 272 190 289 159 c 128,-1,70
EndSplineSet
EndChar

StartChar: A
Encoding: 65 65 36
Width: 693
GlyphClass: 2
Flags: W
AnchorPoint: "Anchor-5" -46 0 basechar 0
AnchorPoint: "Anchor-4" -46 0 basechar 0
AnchorPoint: "Anchor-3" 307 723 basechar 0
AnchorPoint: "Anchor-2" 607 10 basechar 0
LayerCount: 2
Fore
SplineSet
351 723 m 1,0,-1
 450 723 l 1,1,-1
 610 0 l 1,2,-1
 523 0 l 1,3,-1
 478 202 l 1,4,-1
 178 202 l 1,5,-1
 76 0 l 1,6,-1
 -12 0 l 1,7,-1
 351 723 l 1,0,-1
465 282 m 1,8,-1
 389 638 l 1,9,-1
 211 282 l 1,10,-1
 465 282 l 1,8,-1
EndSplineSet
Substitution2: "Single Substitution lookup 30 subtable" ordfeminine
Substitution2: "'aalt' Access All Alternates in Latin lookup 0 subtable" ordfeminine
EndChar

StartChar: B
Encoding: 66 66 37
Width: 658
GlyphClass: 2
Flags: W
LayerCount: 2
Fore
SplineSet
142 723 m 1,0,-1
 371 723 l 2,1,2
 501 723 501 723 562 674.5 c 128,-1,3
 623 626 623 626 611 535 c 0,4,5
 603 475 603 475 565.5 434.5 c 128,-1,6
 528 394 528 394 452 369 c 1,7,8
 601 337 601 337 581 194 c 0,9,10
 554 0 554 0 276 0 c 2,11,-1
 40 0 l 1,12,-1
 142 723 l 1,0,-1
343 403 m 2,13,14
 412 403 412 403 464.5 431 c 128,-1,15
 517 459 517 459 526 524 c 0,16,17
 535 587 535 587 491 619 c 128,-1,18
 447 651 447 651 364 651 c 2,19,-1
 218 651 l 1,20,-1
 183 403 l 1,21,-1
 343 403 l 2,13,14
285 73 m 2,22,23
 477 73 477 73 494 197 c 0,24,25
 503 264 503 264 458 296.5 c 128,-1,26
 413 329 413 329 333 329 c 2,27,-1
 173 329 l 1,28,-1
 137 73 l 1,29,-1
 285 73 l 2,22,23
EndSplineSet
EndChar

StartChar: C
Encoding: 67 67 38
Width: 677
GlyphClass: 2
Flags: W
AnchorPoint: "Anchor-5" -46 0 basechar 0
AnchorPoint: "Anchor-4" 314 0 basechar 0
AnchorPoint: "Anchor-3" 314 723 basechar 0
AnchorPoint: "Anchor-2" -46 0 basechar 0
LayerCount: 2
Fore
SplineSet
537 704 m 128,-1,1
 593 675 593 675 622 625.5 c 128,-1,2
 651 576 651 576 650 516 c 1,3,-1
 558 511 l 1,4,5
 554 578 554 578 513.5 618 c 128,-1,6
 473 658 473 658 395 658 c 0,7,8
 294 658 294 658 231.5 584 c 128,-1,9
 169 510 169 510 148 362 c 0,10,11
 127 215 127 215 170 140.5 c 128,-1,12
 213 66 213 66 318 66 c 0,13,14
 385 66 385 66 437.5 105 c 128,-1,15
 490 144 490 144 514 210 c 1,16,-1
 603 202 l 1,17,18
 588 143 588 143 547 94.5 c 128,-1,19
 506 46 506 46 444 18 c 128,-1,20
 382 -10 382 -10 308 -10 c 0,21,22
 211 -10 211 -10 148 35 c 128,-1,23
 85 80 85 80 61 164 c 128,-1,24
 37 248 37 248 53 363 c 128,-1,25
 69 478 69 478 116.5 561.5 c 128,-1,26
 164 645 164 645 237.5 689 c 128,-1,27
 311 733 311 733 406 733 c 0,28,0
 481 733 481 733 537 704 c 128,-1,1
EndSplineSet
EndChar

StartChar: D
Encoding: 68 68 39
Width: 677
GlyphClass: 2
Flags: W
AnchorPoint: "Anchor-5" -46 0 basechar 0
AnchorPoint: "Anchor-4" -46 0 basechar 0
AnchorPoint: "Anchor-3" 291 723 basechar 0
AnchorPoint: "Anchor-2" -46 0 basechar 0
LayerCount: 2
Fore
SplineSet
304 722 m 0,0,1
 500 720 500 720 577.5 631 c 128,-1,2
 655 542 655 542 630 366 c 0,3,4
 604 183 604 183 496 91.5 c 128,-1,5
 388 0 388 0 192 0 c 2,6,-1
 40 0 l 1,7,-1
 142 723 l 1,8,9
 243 723 243 723 304 722 c 0,0,1
140 75 m 1,10,-1
 203 75 l 2,11,12
 349 75 349 75 433.5 143 c 128,-1,13
 518 211 518 211 540 364 c 0,14,15
 562 518 562 518 497.5 583 c 128,-1,16
 433 648 433 648 288 648 c 2,17,-1
 221 648 l 1,18,-1
 140 75 l 1,10,-1
EndSplineSet
EndChar

StartChar: E
Encoding: 69 69 40
Width: 613
GlyphClass: 2
Flags: W
AnchorPoint: "Anchor-5" -46 0 basechar 0
AnchorPoint: "Anchor-4" 297 0 basechar 0
AnchorPoint: "Anchor-3" 285 723 basechar 0
AnchorPoint: "Anchor-2" 503 10 basechar 0
LayerCount: 2
Fore
SplineSet
142 723 m 1,0,-1
 593 723 l 1,1,-1
 582 647 l 1,2,-1
 217 647 l 1,3,-1
 183 403 l 1,4,-1
 513 403 l 1,5,-1
 502 327 l 1,6,-1
 172 327 l 1,7,-1
 137 78 l 1,8,-1
 512 77 l 1,9,-1
 501 0 l 1,10,-1
 40 0 l 1,11,-1
 142 723 l 1,0,-1
EndSplineSet
EndChar

StartChar: F
Encoding: 70 70 41
Width: 572
GlyphClass: 2
Flags: W
LayerCount: 2
Fore
SplineSet
587 723 m 1,0,-1
 576 647 l 1,1,-1
 220 647 l 1,2,-1
 186 401 l 1,3,-1
 507 401 l 1,4,-1
 496 326 l 1,5,-1
 175 326 l 1,6,-1
 129 0 l 1,7,-1
 40 0 l 1,8,-1
 142 723 l 1,9,-1
 587 723 l 1,0,-1
EndSplineSet
EndChar

StartChar: G
Encoding: 71 71 42
Width: 721
GlyphClass: 2
Flags: W
AnchorPoint: "Anchor-5" -46 0 basechar 0
AnchorPoint: "Anchor-4" 316 0 basechar 0
AnchorPoint: "Anchor-3" 312 723 basechar 0
AnchorPoint: "Anchor-2" -46 0 basechar 0
LayerCount: 2
Fore
SplineSet
149.5 34.5 m 128,-1,1
 87 79 87 79 62 162.5 c 128,-1,2
 37 246 37 246 53 359 c 0,3,4
 69 475 69 475 119 559.5 c 128,-1,5
 169 644 169 644 244.5 688.5 c 128,-1,6
 320 733 320 733 413 733 c 0,7,8
 482 733 482 733 538.5 703 c 128,-1,9
 595 673 595 673 625.5 623.5 c 128,-1,10
 656 574 656 574 652 517 c 1,11,-1
 558 511 l 1,12,13
 555 574 555 574 512 615 c 128,-1,14
 469 656 469 656 401 656 c 0,15,16
 300 656 300 656 232.5 580.5 c 128,-1,17
 165 505 165 505 146 365 c 0,18,19
 125 217 125 217 172.5 142.5 c 128,-1,20
 220 68 220 68 321 68 c 0,21,22
 380 68 380 68 425.5 95 c 128,-1,23
 471 122 471 122 499 162 c 128,-1,24
 527 202 527 202 534 242 c 2,25,-1
 546 309 l 1,26,-1
 367 309 l 1,27,-1
 376 373 l 1,28,-1
 644 372 l 1,29,-1
 591 0 l 1,30,-1
 525 0 l 1,31,-1
 541 112 l 1,32,33
 501 58 501 58 442.5 24 c 128,-1,34
 384 -10 384 -10 305 -10 c 0,35,0
 212 -10 212 -10 149.5 34.5 c 128,-1,1
EndSplineSet
EndChar

StartChar: H
Encoding: 72 72 43
Width: 700
GlyphClass: 2
Flags: W
AnchorPoint: "Anchor-5" -46 0 basechar 0
AnchorPoint: "Anchor-4" 306 0 basechar 0
AnchorPoint: "Anchor-3" 307 723 basechar 0
AnchorPoint: "Anchor-2" -46 0 basechar 0
LayerCount: 2
Fore
SplineSet
174 336 m 1,0,-1
 126 0 l 1,1,-1
 40 0 l 1,2,-1
 142 723 l 1,3,-1
 228 723 l 1,4,-1
 184 413 l 1,5,-1
 529 413 l 1,6,-1
 573 723 l 1,7,-1
 659 723 l 1,8,-1
 557 0 l 1,9,-1
 471 0 l 1,10,-1
 519 336 l 1,11,-1
 174 336 l 1,0,-1
EndSplineSet
EndChar

StartChar: I
Encoding: 73 73 44
Width: 269
GlyphClass: 2
Flags: W
AnchorPoint: "Anchor-5" -46 0 basechar 0
AnchorPoint: "Anchor-4" 96 0 basechar 0
AnchorPoint: "Anchor-3" 95 723 basechar 0
AnchorPoint: "Anchor-2" 123 8 basechar 0
LayerCount: 2
Fore
SplineSet
228 723 m 1,0,-1
 126 0 l 1,1,-1
 40 0 l 1,2,-1
 142 723 l 1,3,-1
 228 723 l 1,0,-1
EndSplineSet
EndChar

StartChar: J
Encoding: 74 74 45
Width: 383
GlyphClass: 2
Flags: W
AnchorPoint: "Anchor-5" -46 0 basechar 0
AnchorPoint: "Anchor-4" -46 0 basechar 0
AnchorPoint: "Anchor-3" 187 723 basechar 0
AnchorPoint: "Anchor-2" -46 0 basechar 0
LayerCount: 2
Fore
SplineSet
213.5 33.5 m 128,-1,1
 175 -10 175 -10 90 -10 c 0,2,3
 56 -10 56 -10 24.5 -2 c 128,-1,4
 -7 6 -7 6 -23 13 c 1,5,-1
 -5 96 l 1,6,7
 1 94 1 94 15 87.5 c 128,-1,8
 29 81 29 81 45 77 c 128,-1,9
 61 73 61 73 80 73 c 0,10,11
 128 73 128 73 150.5 99.5 c 128,-1,12
 173 126 173 126 182 192 c 2,13,-1
 257 723 l 1,14,-1
 343 723 l 1,15,-1
 264 167 l 2,16,0
 252 77 252 77 213.5 33.5 c 128,-1,1
EndSplineSet
EndChar

StartChar: K
Encoding: 75 75 46
Width: 665
GlyphClass: 2
Flags: W
AnchorPoint: "Anchor-5" -46 0 basechar 0
AnchorPoint: "Anchor-4" 292 0 basechar 0
AnchorPoint: "Anchor-3" 312 723 basechar 0
AnchorPoint: "Anchor-2" -46 0 basechar 0
LayerCount: 2
Fore
SplineSet
487 0 m 1,0,-1
 310 376 l 1,1,-1
 162 230 l 1,2,-1
 129 0 l 1,3,-1
 40 0 l 1,4,-1
 142 723 l 1,5,-1
 231 723 l 1,6,-1
 178 344 l 1,7,-1
 563 723 l 1,8,-1
 666 723 l 1,9,-1
 384 441 l 1,10,-1
 586 0 l 1,11,-1
 487 0 l 1,0,-1
EndSplineSet
EndChar

StartChar: L
Encoding: 76 76 47
Width: 551
GlyphClass: 2
Flags: W
AnchorPoint: "Anchor-5" 385 723 basechar 0
AnchorPoint: "Anchor-4" 261 0 basechar 0
AnchorPoint: "Anchor-3" 93 723 basechar 0
AnchorPoint: "Anchor-2" -46 0 basechar 0
LayerCount: 2
Fore
SplineSet
231 723 m 1,0,-1
 140 78 l 1,1,-1
 485 78 l 1,2,-1
 474 0 l 1,3,-1
 40 0 l 1,4,-1
 142 723 l 1,5,-1
 231 723 l 1,0,-1
EndSplineSet
EndChar

StartChar: M
Encoding: 77 77 48
Width: 870
GlyphClass: 2
Flags: W
LayerCount: 2
Fore
SplineSet
142 723 m 1,0,-1
 260 723 l 1,1,-1
 399 115 l 1,2,-1
 712 723 l 1,3,-1
 829 723 l 1,4,-1
 727 0 l 1,5,-1
 638 0 l 1,6,-1
 721 588 l 1,7,-1
 424 0 l 1,8,-1
 341 0 l 1,9,-1
 211 583 l 1,10,-1
 129 0 l 1,11,-1
 40 0 l 1,12,-1
 142 723 l 1,0,-1
EndSplineSet
EndChar

StartChar: N
Encoding: 78 78 49
Width: 739
GlyphClass: 2
Flags: W
AnchorPoint: "Anchor-5" -46 0 basechar 0
AnchorPoint: "Anchor-4" 310 0 basechar 0
AnchorPoint: "Anchor-3" 337 723 basechar 0
AnchorPoint: "Anchor-2" -46 0 basechar 0
LayerCount: 2
Fore
SplineSet
698 723 m 1,0,-1
 596 0 l 1,1,-1
 520 0 l 1,2,-1
 208 579 l 1,3,-1
 126 0 l 1,4,-1
 40 0 l 1,5,-1
 142 723 l 1,6,-1
 223 723 l 1,7,-1
 532 151 l 1,8,-1
 612 723 l 1,9,-1
 698 723 l 1,0,-1
EndSplineSet
EndChar

StartChar: O
Encoding: 79 79 50
Width: 723
GlyphClass: 2
Flags: W
AnchorPoint: "Anchor-5" -46 0 basechar 0
AnchorPoint: "Anchor-4" 320 0 basechar 0
AnchorPoint: "Anchor-3" 319 723 basechar 0
AnchorPoint: "Anchor-2" 394 9 basechar 0
LayerCount: 2
Fore
SplineSet
152 33 m 128,-1,1
 88 76 88 76 62 159 c 128,-1,2
 36 242 36 242 53 359 c 0,3,4
 70 477 70 477 119.5 561 c 128,-1,5
 169 645 169 645 245 689 c 128,-1,6
 321 733 321 733 417 733 c 0,7,8
 512 733 512 733 575.5 689 c 128,-1,9
 639 645 639 645 664.5 561.5 c 128,-1,10
 690 478 690 478 674 360 c 0,11,12
 658 243 658 243 608.5 160 c 128,-1,13
 559 77 559 77 483.5 33.5 c 128,-1,14
 408 -10 408 -10 312 -10 c 128,-1,0
 216 -10 216 -10 152 33 c 128,-1,1
494 138 m 128,-1,16
 559 210 559 210 580 359 c 0,17,18
 601 510 601 510 556 584 c 128,-1,19
 511 658 511 658 407 658 c 0,20,21
 302 658 302 658 235 583.5 c 128,-1,22
 168 509 168 509 147 359 c 0,23,24
 126 211 126 211 172.5 138.5 c 128,-1,25
 219 66 219 66 324 66 c 128,-1,15
 429 66 429 66 494 138 c 128,-1,16
EndSplineSet
Substitution2: "Single Substitution lookup 30 subtable" ordmasculine
Substitution2: "'aalt' Access All Alternates in Latin lookup 0 subtable" ordmasculine
EndChar

StartChar: P
Encoding: 80 80 51
Width: 628
GlyphClass: 2
Flags: W
LayerCount: 2
Fore
SplineSet
142 723 m 1,0,-1
 384 723 l 2,1,2
 506 723 506 723 571 670 c 128,-1,3
 636 617 636 617 621 510 c 0,4,5
 606 405 606 405 530 351 c 128,-1,6
 454 297 454 297 336 297 c 2,7,-1
 171 297 l 1,8,-1
 129 0 l 1,9,-1
 40 0 l 1,10,-1
 142 723 l 1,0,-1
344 370 m 2,11,12
 423 370 423 370 475.5 407 c 128,-1,13
 528 444 528 444 538 515 c 0,14,15
 557 650 557 650 379 650 c 2,16,-1
 220 650 l 1,17,-1
 180 370 l 1,18,-1
 344 370 l 2,11,12
EndSplineSet
EndChar

StartChar: Q
Encoding: 81 81 52
Width: 727
GlyphClass: 2
Flags: W
LayerCount: 2
Fore
SplineSet
114.5 562 m 128,-1,1
 164 646 164 646 240.5 689.5 c 128,-1,2
 317 733 317 733 413 733 c 128,-1,3
 509 733 509 733 572 689.5 c 128,-1,4
 635 646 635 646 661 562 c 128,-1,5
 687 478 687 478 670 360 c 0,6,7
 654 244 654 244 607.5 163.5 c 128,-1,8
 561 83 561 83 481 37 c 1,9,10
 493 -3 493 -3 526.5 -24 c 128,-1,11
 560 -45 560 -45 606 -47 c 1,12,-1
 596 -121 l 1,13,14
 451 -121 451 -121 395 -1 c 1,15,16
 345 -10 345 -10 308 -10 c 0,17,18
 213 -10 213 -10 148.5 33 c 128,-1,19
 84 76 84 76 58 159 c 128,-1,20
 32 242 32 242 48 360 c 0,21,0
 65 478 65 478 114.5 562 c 128,-1,1
319 66 m 0,22,23
 535 66 535 66 576 359 c 0,24,25
 597 508 597 508 552 583 c 128,-1,26
 507 658 507 658 402 658 c 0,27,28
 296 658 296 658 230 583 c 128,-1,29
 164 508 164 508 143 358 c 0,30,31
 102 66 102 66 319 66 c 0,22,23
EndSplineSet
EndChar

StartChar: R
Encoding: 82 82 53
Width: 667
GlyphClass: 2
Flags: W
AnchorPoint: "Anchor-5" -46 0 basechar 0
AnchorPoint: "Anchor-4" 288 0 basechar 0
AnchorPoint: "Anchor-3" 280 723 basechar 0
AnchorPoint: "Anchor-2" -46 0 basechar 0
LayerCount: 2
Fore
SplineSet
460 0 m 1,0,-1
 372 316 l 1,1,-1
 171 316 l 1,2,-1
 126 0 l 1,3,-1
 40 0 l 1,4,-1
 142 723 l 1,5,-1
 419 723 l 2,6,7
 533 723 533 723 586 672 c 128,-1,8
 639 621 639 621 626 528 c 0,9,10
 615 447 615 447 567.5 400 c 128,-1,11
 520 353 520 353 455 331 c 1,12,-1
 552 0 l 1,13,-1
 460 0 l 1,0,-1
477 421.5 m 128,-1,15
 527 455 527 455 537 522 c 0,16,17
 546 586 546 586 510.5 619 c 128,-1,18
 475 652 475 652 402 652 c 2,19,-1
 218 652 l 1,20,-1
 181 388 l 1,21,-1
 342 388 l 2,22,14
 427 388 427 388 477 421.5 c 128,-1,15
EndSplineSet
EndChar

StartChar: S
Encoding: 83 83 54
Width: 663
GlyphClass: 2
Flags: W
AnchorPoint: "Anchor-5" -46 0 basechar 0
AnchorPoint: "Anchor-4" 284 0 basechar 0
AnchorPoint: "Anchor-3" 288 723 basechar 0
AnchorPoint: "Anchor-2" -46 0 basechar 0
LayerCount: 2
Fore
SplineSet
157.5 12.5 m 128,-1,1
 99 35 99 35 63.5 78.5 c 128,-1,2
 28 122 28 122 28 183 c 1,3,-1
 119 189 l 1,4,5
 124 128 124 128 173.5 95 c 128,-1,6
 223 62 223 62 297 62 c 0,7,8
 378 62 378 62 434.5 95.5 c 128,-1,9
 491 129 491 129 499 184 c 0,10,11
 506 233 506 233 478 263 c 128,-1,12
 450 293 450 293 389 308 c 2,13,-1
 246 342 l 2,14,15
 166 360 166 360 127.5 405.5 c 128,-1,16
 89 451 89 451 98 523 c 0,17,18
 107 584 107 584 147 631.5 c 128,-1,19
 187 679 187 679 249.5 705.5 c 128,-1,20
 312 732 312 732 388 732 c 0,21,22
 468 732 468 732 522.5 704 c 128,-1,23
 577 676 577 676 602.5 630 c 128,-1,24
 628 584 628 584 627 529 c 1,25,-1
 539 524 l 1,26,27
 538 594 538 594 493.5 626 c 128,-1,28
 449 658 449 658 377 658 c 0,29,30
 310 658 310 658 255 624.5 c 128,-1,31
 200 591 200 591 192 531 c 0,32,33
 186 488 186 488 211 461 c 128,-1,34
 236 434 236 434 305 417 c 2,35,-1
 442 383 l 1,36,37
 612 345 612 345 589 185 c 0,38,39
 581 130 581 130 542 86 c 128,-1,40
 503 42 503 42 437.5 16 c 128,-1,41
 372 -10 372 -10 287 -10 c 0,42,0
 216 -10 216 -10 157.5 12.5 c 128,-1,1
EndSplineSet
EndChar

StartChar: T
Encoding: 84 84 55
Width: 570
GlyphClass: 2
Flags: W
AnchorPoint: "Anchor-5" -46 0 basechar 0
AnchorPoint: "Anchor-4" 250 0 basechar 0
AnchorPoint: "Anchor-3" 250 723 basechar 0
AnchorPoint: "Anchor-2" -46 0 basechar 0
LayerCount: 2
Fore
SplineSet
68 723 m 1,0,-1
 611 723 l 1,1,-1
 600 644 l 1,2,-1
 378 644 l 1,3,-1
 288 0 l 1,4,-1
 202 0 l 1,5,-1
 292 644 l 1,6,-1
 57 644 l 1,7,-1
 68 723 l 1,0,-1
EndSplineSet
EndChar

StartChar: U
Encoding: 85 85 56
Width: 706
GlyphClass: 2
Flags: W
AnchorPoint: "Anchor-5" -46 0 basechar 0
AnchorPoint: "Anchor-4" -46 0 basechar 0
AnchorPoint: "Anchor-3" 307 723 basechar 0
AnchorPoint: "Anchor-2" 383 10 basechar 0
LayerCount: 2
Fore
SplineSet
507.5 55 m 128,-1,1
 435 -10 435 -10 300 -10 c 0,2,3
 164 -10 164 -10 111 57 c 128,-1,4
 58 124 58 124 77 257 c 2,5,-1
 142 723 l 1,6,-1
 231 723 l 1,7,-1
 164 243 l 2,8,9
 152 155 152 155 189.5 110.5 c 128,-1,10
 227 66 227 66 311 66 c 0,11,12
 396 66 396 66 447 110 c 128,-1,13
 498 154 498 154 511 243 c 2,14,-1
 578 723 l 1,15,-1
 665 723 l 1,16,-1
 598 247 l 2,17,0
 580 120 580 120 507.5 55 c 128,-1,1
EndSplineSet
EndChar

StartChar: V
Encoding: 86 86 57
Width: 637
GlyphClass: 2
Flags: W
LayerCount: 2
Fore
SplineSet
323 0 m 1,0,-1
 218 0 l 1,1,-1
 67 723 l 1,2,-1
 152 723 l 1,3,-1
 283 97 l 1,4,-1
 596 723 l 1,5,-1
 680 723 l 1,6,-1
 323 0 l 1,0,-1
EndSplineSet
EndChar

StartChar: W
Encoding: 87 87 58
Width: 950
GlyphClass: 2
Flags: W
AnchorPoint: "Anchor-5" -46 0 basechar 0
AnchorPoint: "Anchor-4" -46 0 basechar 0
AnchorPoint: "Anchor-3" 434 723 basechar 0
AnchorPoint: "Anchor-2" -46 0 basechar 0
LayerCount: 2
Fore
SplineSet
670 0 m 1,0,-1
 588 0 l 1,1,-1
 507 572 l 1,2,-1
 263 0 l 1,3,-1
 183 0 l 1,4,-1
 77 723 l 1,5,-1
 164 723 l 1,6,-1
 245 135 l 1,7,-1
 494 723 l 1,8,-1
 562 723 l 1,9,-1
 646 135 l 1,10,-1
 895 723 l 1,11,-1
 981 723 l 1,12,-1
 670 0 l 1,0,-1
EndSplineSet
EndChar

StartChar: X
Encoding: 88 88 59
Width: 646
GlyphClass: 2
Flags: W
LayerCount: 2
Fore
SplineSet
468 0 m 1,0,-1
 312 301 l 1,1,-1
 73 0 l 1,2,-1
 -24 0 l 1,3,-1
 274 369 l 1,4,-1
 86 723 l 1,5,-1
 195 723 l 1,6,-1
 338 444 l 1,7,-1
 560 723 l 1,8,-1
 656 723 l 1,9,-1
 377 378 l 1,10,-1
 576 0 l 1,11,-1
 468 0 l 1,0,-1
EndSplineSet
EndChar

StartChar: Y
Encoding: 89 89 60
Width: 589
GlyphClass: 2
Flags: W
AnchorPoint: "Anchor-5" -46 0 basechar 0
AnchorPoint: "Anchor-4" -46 0 basechar 0
AnchorPoint: "Anchor-3" 254 723 basechar 0
AnchorPoint: "Anchor-2" -46 0 basechar 0
LayerCount: 2
Fore
SplineSet
336 308 m 1,0,-1
 292 0 l 1,1,-1
 206 0 l 1,2,-1
 250 309 l 1,3,-1
 62 723 l 1,4,-1
 156 723 l 1,5,-1
 305 386 l 1,6,-1
 544 723 l 1,7,-1
 638 723 l 1,8,-1
 336 308 l 1,0,-1
EndSplineSet
EndChar

StartChar: Z
Encoding: 90 90 61
Width: 617
GlyphClass: 2
Flags: W
AnchorPoint: "Anchor-5" -46 0 basechar 0
AnchorPoint: "Anchor-4" 274 0 basechar 0
AnchorPoint: "Anchor-3" 276 723 basechar 0
AnchorPoint: "Anchor-2" -46 0 basechar 0
LayerCount: 2
Fore
SplineSet
7 48 m 1,0,-1
 491 648 l 1,1,-1
 107 648 l 1,2,-1
 118 723 l 1,3,-1
 622 723 l 1,4,-1
 616 677 l 1,5,-1
 128 76 l 1,6,-1
 529 76 l 1,7,-1
 518 0 l 1,8,-1
 0 0 l 1,9,-1
 7 48 l 1,0,-1
EndSplineSet
EndChar

StartChar: bracketleft
Encoding: 91 91 62
Width: 288
GlyphClass: 2
Flags: W
LayerCount: 2
Fore
SplineSet
320 723 m 1,0,-1
 313 667 l 1,1,-1
 208 667 l 1,2,-1
 98 -105 l 1,3,-1
 203 -105 l 1,4,-1
 195 -161 l 1,5,-1
 15 -161 l 1,6,-1
 138 723 l 1,7,-1
 320 723 l 1,0,-1
EndSplineSet
EndChar

StartChar: backslash
Encoding: 92 92 63
Width: 343
GlyphClass: 2
Flags: W
LayerCount: 2
Fore
SplineSet
65 723 m 1,0,-1
 133 723 l 1,1,-1
 275 -41 l 1,2,-1
 207 -41 l 1,3,-1
 65 723 l 1,0,-1
EndSplineSet
EndChar

StartChar: bracketright
Encoding: 93 93 64
Width: 288
GlyphClass: 2
Flags: W
LayerCount: 2
Fore
SplineSet
15 -161 m 1,0,-1
 22 -105 l 1,1,-1
 127 -105 l 1,2,-1
 237 667 l 1,3,-1
 132 667 l 1,4,-1
 140 723 l 1,5,-1
 320 723 l 1,6,-1
 197 -161 l 1,7,-1
 15 -161 l 1,0,-1
EndSplineSet
EndChar

StartChar: asciicircum
Encoding: 94 94 65
Width: 467
GlyphClass: 2
Flags: W
LayerCount: 2
Fore
SplineSet
243 426 m 1,0,-1
 82 130 l 1,1,-1
 14 130 l 1,2,-1
 213 491 l 2,3,4
 222 508 222 508 234 517 c 128,-1,5
 246 526 246 526 258 526 c 0,6,7
 269 526 269 526 278 517 c 128,-1,8
 287 508 287 508 291 491 c 2,9,-1
 389 129 l 1,10,-1
 319 129 l 1,11,-1
 243 426 l 1,0,-1
EndSplineSet
EndChar

StartChar: underscore
Encoding: 95 95 66
Width: 510
GlyphClass: 2
Flags: W
LayerCount: 2
Fore
SplineSet
382 -115 m 1,0,-1
 -6 -116 l 1,1,-1
 4 -48 l 1,2,-1
 392 -47 l 1,3,-1
 382 -115 l 1,0,-1
EndSplineSet
EndChar

StartChar: grave
Encoding: 96 96 67
Width: 286
GlyphClass: 2
Flags: W
LayerCount: 2
Fore
SplineSet
342 636 m 1,0,-1
 321 591 l 1,1,-1
 81 665 l 1,2,-1
 113 732 l 1,3,-1
 342 636 l 1,0,-1
EndSplineSet
EndChar

StartChar: a
Encoding: 97 97 68
Width: 593
GlyphClass: 2
Flags: W
LayerCount: 2
Fore
SplineSet
466 0 m 1,0,-1
 380 0 l 1,1,-1
 466 0 l 1,0,-1
380 0 m 1,2,-1
 387 49 l 1,3,4
 346 17 346 17 307.5 3.5 c 128,-1,5
 269 -10 269 -10 228 -10 c 0,6,7
 161 -10 161 -10 114.5 22.5 c 128,-1,8
 68 55 68 55 48 117.5 c 128,-1,9
 28 180 28 180 40 266 c 0,10,11
 52 351 52 351 89 410 c 128,-1,12
 126 469 126 469 178.5 498 c 128,-1,13
 231 527 231 527 293 527 c 0,14,15
 334 527 334 527 364 514 c 128,-1,16
 394 501 394 501 408.5 488 c 128,-1,17
 423 475 423 475 444 451 c 1,18,-1
 454 517 l 1,19,-1
 539 517 l 1,20,-1
 466 0 l 1,21,-1
 380 0 l 1,2,-1
401 150 m 1,22,-1
 426 328 l 2,23,24
 431 362 431 362 418 393 c 128,-1,25
 405 424 405 424 376.5 443 c 128,-1,26
 348 462 348 462 309 462 c 0,27,28
 243 462 243 462 192.5 411.5 c 128,-1,29
 142 361 142 361 128 264 c 0,30,31
 119 200 119 200 133 152.5 c 128,-1,32
 147 105 147 105 179.5 79.5 c 128,-1,33
 212 54 212 54 258 54 c 0,34,35
 333 54 333 54 401 150 c 1,22,-1
EndSplineSet
Substitution2: "Single Substitution lookup 30 subtable" ordfeminine
Substitution2: "'aalt' Access All Alternates in Latin lookup 0 subtable" ordfeminine
EndChar

StartChar: b
Encoding: 98 98 69
Width: 592
GlyphClass: 2
Flags: W
LayerCount: 2
Fore
SplineSet
170.5 18 m 128,-1,1
 130 46 130 46 119 76 c 1,2,-1
 99 0 l 1,3,-1
 34 0 l 1,4,-1
 138 743 l 1,5,-1
 224 743 l 1,6,-1
 183 446 l 1,7,8
 205 474 205 474 252.5 500.5 c 128,-1,9
 300 527 300 527 362 527 c 0,10,11
 465 527 465 527 507.5 453.5 c 128,-1,12
 550 380 550 380 534 261 c 0,13,14
 516 135 516 135 447.5 62.5 c 128,-1,15
 379 -10 379 -10 273 -10 c 0,16,0
 211 -10 211 -10 170.5 18 c 128,-1,1
381 108 m 128,-1,18
 430 159 430 159 445 261 c 0,19,20
 458 357 458 357 427.5 408 c 128,-1,21
 397 459 397 459 327 459 c 0,22,23
 280 459 280 459 238.5 433.5 c 128,-1,24
 197 408 197 408 171 363 c 1,25,-1
 148 200 l 2,26,27
 142 159 142 159 156.5 126.5 c 128,-1,28
 171 94 171 94 200 75.5 c 128,-1,29
 229 57 229 57 264 57 c 0,30,17
 332 57 332 57 381 108 c 128,-1,18
EndSplineSet
EndChar

StartChar: c
Encoding: 99 99 70
Width: 538
GlyphClass: 2
Flags: W
AnchorPoint: "Anchor-5" -46 0 basechar 0
AnchorPoint: "Anchor-4" 239 0 basechar 0
AnchorPoint: "Anchor-3" 238 517 basechar 0
AnchorPoint: "Anchor-2" -46 0 basechar 0
LayerCount: 2
Fore
SplineSet
491 382 m 1,0,-1
 418 368 l 1,1,2
 391 417 391 417 368.5 437 c 128,-1,3
 346 457 346 457 306 457 c 0,4,5
 234 457 234 457 184.5 403.5 c 128,-1,6
 135 350 135 350 122 258 c 0,7,8
 109 165 109 165 144 110.5 c 128,-1,9
 179 56 179 56 251 56 c 0,10,11
 295 56 295 56 328 80.5 c 128,-1,12
 361 105 361 105 393 152 c 1,13,-1
 460 137 l 1,14,15
 424 68 424 68 367.5 29 c 128,-1,16
 311 -10 311 -10 237 -10 c 0,17,18
 167 -10 167 -10 118 23.5 c 128,-1,19
 69 57 69 57 48.5 117.5 c 128,-1,20
 28 178 28 178 39 256 c 0,21,22
 50 335 50 335 87.5 396.5 c 128,-1,23
 125 458 125 458 183.5 492.5 c 128,-1,24
 242 527 242 527 312 527 c 0,25,26
 452 527 452 527 491 382 c 1,0,-1
EndSplineSet
EndChar

StartChar: d
Encoding: 100 100 71
Width: 584
GlyphClass: 2
Flags: W
AnchorPoint: "Anchor-5" 548 661 basechar 0
AnchorPoint: "Anchor-4" 242 0 basechar 0
AnchorPoint: "Anchor-3" -46 0 basechar 0
AnchorPoint: "Anchor-2" -46 0 basechar 0
LayerCount: 2
Fore
SplineSet
68.5 58.5 m 128,-1,1
 21 127 21 127 39 253 c 0,2,3
 57 378 57 378 124 452.5 c 128,-1,4
 191 527 191 527 293 527 c 0,5,6
 337 527 337 527 372 511 c 128,-1,7
 407 495 407 495 437 462 c 1,8,-1
 476 743 l 1,9,-1
 562 743 l 1,10,-1
 458 0 l 1,11,-1
 390 0 l 1,12,-1
 396 74 l 1,13,14
 317 -10 317 -10 216 -10 c 0,15,0
 116 -10 116 -10 68.5 58.5 c 128,-1,1
314 76 m 128,-1,17
 348 95 348 95 371 125.5 c 128,-1,18
 394 156 394 156 398 188 c 2,19,-1
 425 376 l 1,20,21
 387 459 387 459 304 459 c 0,22,23
 234 459 234 459 186 407 c 128,-1,24
 138 355 138 355 124 256 c 0,25,26
 110 156 110 156 143.5 106.5 c 128,-1,27
 177 57 177 57 242 57 c 0,28,16
 280 57 280 57 314 76 c 128,-1,17
EndSplineSet
EndChar

StartChar: e
Encoding: 101 101 72
Width: 556
GlyphClass: 2
Flags: W
AnchorPoint: "Anchor-5" -46 0 basechar 0
AnchorPoint: "Anchor-4" 232 0 basechar 0
AnchorPoint: "Anchor-3" 238 517 basechar 0
AnchorPoint: "Anchor-2" 341 20 basechar 0
LayerCount: 2
Fore
SplineSet
145.5 108.5 m 128,-1,1
 179 58 179 58 253 58 c 0,2,3
 353 58 353 58 395 138 c 1,4,-1
 472 127 l 1,5,6
 445 63 445 63 383.5 26.5 c 128,-1,7
 322 -10 322 -10 246 -10 c 0,8,9
 174 -10 174 -10 123 21.5 c 128,-1,10
 72 53 72 53 49.5 112.5 c 128,-1,11
 27 172 27 172 39 253 c 0,12,13
 57 378 57 378 129.5 452.5 c 128,-1,14
 202 527 202 527 312 527 c 0,15,16
 418 527 418 527 467 459 c 128,-1,17
 516 391 516 391 499 272 c 2,18,-1
 494 238 l 1,19,-1
 123 238 l 1,20,0
 112 159 112 159 145.5 108.5 c 128,-1,1
420 298 m 1,21,22
 430 370 430 370 400.5 415 c 128,-1,23
 371 460 371 460 302 460 c 0,24,25
 254 460 254 460 217.5 437 c 128,-1,26
 181 414 181 414 159.5 376.5 c 128,-1,27
 138 339 138 339 132 298 c 1,28,-1
 420 298 l 1,21,22
EndSplineSet
EndChar

StartChar: f
Encoding: 102 102 73
Width: 388
GlyphClass: 2
Flags: W
LayerCount: 2
Fore
SplineSet
371 454 m 1,0,-1
 243 454 l 1,1,-1
 156 -161 l 1,2,-1
 71 -161 l 1,3,-1
 158 454 l 1,4,-1
 47 454 l 1,5,-1
 56 517 l 1,6,-1
 167 517 l 1,7,-1
 178 598 l 2,8,9
 196 723 196 723 319 723 c 2,10,-1
 414 723 l 1,11,-1
 405 661 l 1,12,-1
 327 661 l 2,13,14
 296 661 296 661 281 644.5 c 128,-1,15
 266 628 266 628 261 592 c 2,16,-1
 251 517 l 1,17,-1
 380 517 l 1,18,-1
 371 454 l 1,0,-1
EndSplineSet
EndChar

StartChar: g
Encoding: 103 103 74
Width: 601
GlyphClass: 2
Flags: W
AnchorPoint: "Anchor-5" -46 0 basechar 0
AnchorPoint: "Anchor-4" -46 0 basechar 0
AnchorPoint: "Anchor-3" 250 517 basechar 0
AnchorPoint: "Anchor-2" -46 0 basechar 0
LayerCount: 2
Fore
SplineSet
37 -134 m 128,-1,1
 -24 -97 -24 -97 -15 -34 c 0,2,3
 -9 7 -9 7 20.5 32 c 128,-1,4
 50 57 50 57 72 67 c 128,-1,5
 94 77 94 77 98 80 c 1,6,7
 94 82 94 82 81 91 c 128,-1,8
 68 100 68 100 60.5 113 c 128,-1,9
 53 126 53 126 55 144 c 0,10,11
 59 169 59 169 85 188.5 c 128,-1,12
 111 208 111 208 156 218 c 1,13,14
 110 244 110 244 91.5 279 c 128,-1,15
 73 314 73 314 80 361 c 0,16,17
 91 438 91 438 158 481.5 c 128,-1,18
 225 525 225 525 326 525 c 0,19,20
 374 525 374 525 407 514 c 128,-1,21
 440 503 440 503 467 480 c 1,22,23
 477 483 477 483 524 502 c 2,24,-1
 605 533 l 1,25,-1
 592 451 l 1,26,-1
 500 434 l 1,27,28
 505 419 505 419 507 397.5 c 128,-1,29
 509 376 509 376 507 362 c 0,30,31
 501 317 501 317 472 280 c 128,-1,32
 443 243 443 243 392 221 c 128,-1,33
 341 199 341 199 271 199 c 0,34,35
 251 199 251 199 243 200 c 0,36,37
 191 199 191 199 166.5 188.5 c 128,-1,38
 142 178 142 178 140 164 c 0,39,40
 138 149 138 149 158.5 143 c 128,-1,41
 179 137 179 137 236 133 c 2,42,-1
 347 127 l 2,43,44
 431 121 431 121 467 85 c 128,-1,45
 503 49 503 49 494 -12 c 0,46,47
 484 -86 484 -86 412.5 -128.5 c 128,-1,48
 341 -171 341 -171 221 -171 c 0,49,0
 98 -171 98 -171 37 -134 c 128,-1,1
381.5 282.5 m 128,-1,51
 418 310 418 310 425 361 c 0,52,53
 432 413 432 413 403 442 c 128,-1,54
 374 471 374 471 312 471 c 128,-1,55
 250 471 250 471 211.5 441.5 c 128,-1,56
 173 412 173 412 166 361 c 0,57,58
 159 311 159 311 189.5 283 c 128,-1,59
 220 255 220 255 282 255 c 0,60,50
 345 255 345 255 381.5 282.5 c 128,-1,51
362 -92.5 m 128,-1,62
 402 -70 402 -70 409 -24 c 0,63,64
 414 10 414 10 394 29 c 128,-1,65
 374 48 374 48 323 52 c 2,66,-1
 177 61 l 2,67,68
 158 62 158 62 134.5 51 c 128,-1,69
 111 40 111 40 93 20 c 128,-1,70
 75 0 75 0 72 -24 c 0,71,72
 66 -69 66 -69 110 -92 c 128,-1,73
 154 -115 154 -115 244 -115 c 0,74,61
 322 -115 322 -115 362 -92.5 c 128,-1,62
EndSplineSet
EndChar

StartChar: h
Encoding: 104 104 75
Width: 588
GlyphClass: 2
Flags: W
AnchorPoint: "Anchor-5" -46 0 basechar 0
AnchorPoint: "Anchor-4" 255 0 basechar 0
AnchorPoint: "Anchor-3" 311 517 basechar 0
AnchorPoint: "Anchor-2" -46 0 basechar 0
LayerCount: 2
Fore
SplineSet
138 743 m 1,0,-1
 221 743 l 1,1,-1
 179 444 l 1,2,3
 222 475 222 475 248 490 c 128,-1,4
 274 505 274 505 304 514.5 c 128,-1,5
 334 524 334 524 370 524 c 0,6,7
 446 524 446 524 484.5 482 c 128,-1,8
 523 440 523 440 513 372 c 2,9,-1
 461 0 l 1,10,-1
 375 0 l 1,11,-1
 425 354 l 2,12,13
 432 401 432 401 409.5 427 c 128,-1,14
 387 453 387 453 337 453 c 0,15,16
 296 453 296 453 259 434.5 c 128,-1,17
 222 416 222 416 173 376 c 1,18,-1
 120 0 l 1,19,-1
 34 0 l 1,20,-1
 138 743 l 1,0,-1
EndSplineSet
EndChar

StartChar: i
Encoding: 105 105 76
Width: 253
GlyphClass: 2
Flags: W
LayerCount: 2
Fore
SplineSet
214 627 m 1,0,-1
 122 627 l 1,1,-1
 138 743 l 1,2,-1
 230 743 l 1,3,-1
 214 627 l 1,0,-1
123 0 m 1,4,-1
 37 0 l 1,5,-1
 110 517 l 1,6,-1
 196 517 l 1,7,-1
 123 0 l 1,4,-1
EndSplineSet
Substitution2: "Single Substitution lookup 28 subtable" dotlessi
Substitution2: "'locl' Localized Forms in Latin lookup 10 subtable" i.loclTRK
Substitution2: "'locl' Localized Forms in Latin lookup 9 subtable" i.loclTRK
Substitution2: "'locl' Localized Forms in Latin lookup 8 subtable" i.loclTRK
Substitution2: "'locl' Localized Forms in Latin lookup 7 subtable" i.loclTRK
Substitution2: "'locl' Localized Forms in Latin lookup 6 subtable" i.loclTRK
AlternateSubs2: "'aalt' Access All Alternates in Latin lookup 1 subtable" dotlessi i.loclTRK
EndChar

StartChar: j
Encoding: 106 106 77
Width: 273
GlyphClass: 2
Flags: W
LayerCount: 2
Fore
SplineSet
226 627 m 1,0,-1
 133 627 l 1,1,-1
 149 743 l 1,2,-1
 242 743 l 1,3,-1
 226 627 l 1,0,-1
85 -132.5 m 128,-1,5
 49 -166 49 -166 -27 -166 c 0,6,7
 -62 -166 -62 -166 -76 -161.5 c 128,-1,8
 -90 -157 -90 -157 -90 -155 c 2,9,-1
 -82 -97 l 1,10,-1
 -29 -95 l 2,11,12
 7 -93 7 -93 23.5 -77 c 128,-1,13
 40 -61 40 -61 46 -23 c 2,14,-1
 122 517 l 1,15,-1
 208 517 l 1,16,-1
 131 -27 l 2,17,4
 121 -99 121 -99 85 -132.5 c 128,-1,5
EndSplineSet
Substitution2: "Single Substitution lookup 28 subtable" uni0237
Substitution2: "'aalt' Access All Alternates in Latin lookup 0 subtable" uni0237
EndChar

StartChar: k
Encoding: 107 107 78
Width: 561
GlyphClass: 2
Flags: W
AnchorPoint: "Anchor-5" -46 0 basechar 0
AnchorPoint: "Anchor-4" 234 0 basechar 0
AnchorPoint: "Anchor-3" -46 0 basechar 0
AnchorPoint: "Anchor-2" -46 0 basechar 0
LayerCount: 2
Fore
SplineSet
391 0 m 1,0,-1
 263 264 l 1,1,-1
 142 154 l 1,2,-1
 120 0 l 1,3,-1
 34 0 l 1,4,-1
 138 743 l 1,5,-1
 224 743 l 1,6,-1
 155 249 l 1,7,-1
 446 517 l 1,8,-1
 542 517 l 1,9,-1
 328 321 l 1,10,-1
 482 0 l 1,11,-1
 391 0 l 1,0,-1
EndSplineSet
EndChar

StartChar: l
Encoding: 108 108 79
Width: 289
GlyphClass: 2
Flags: W
AnchorPoint: "Anchor-5" 246 736 basechar 0
AnchorPoint: "Anchor-4" 70 0 basechar 0
AnchorPoint: "Anchor-3" 74 763 basechar 0
AnchorPoint: "Anchor-2" -46 0 basechar 0
LayerCount: 2
Fore
SplineSet
65.5 34 m 128,-1,1
 44 71 44 71 53 135 c 2,2,-1
 138 743 l 1,3,-1
 222 743 l 1,4,-1
 138 143 l 2,5,6
 132 103 132 103 145 83 c 128,-1,7
 158 63 158 63 185 61 c 2,8,-1
 214 61 l 1,9,-1
 206 5 l 1,10,11
 181 -3 181 -3 160 -3 c 0,12,0
 87 -3 87 -3 65.5 34 c 128,-1,1
EndSplineSet
Substitution2: "'ss01' Style Set 1 in Latin lookup 27 subtable" l.ss01
Substitution2: "'salt' Stylistic Alternatives in Latin lookup 26 subtable" l.ss01
Substitution2: "'aalt' Access All Alternates in Latin lookup 0 subtable" l.ss01
EndChar

StartChar: m
Encoding: 109 109 80
Width: 902
GlyphClass: 2
Flags: W
LayerCount: 2
Fore
SplineSet
107 517 m 1,0,-1
 190 517 l 1,1,-1
 180 445 l 1,2,3
 209 479 209 479 252.5 503 c 128,-1,4
 296 527 296 527 351 527 c 0,5,6
 407 527 407 527 446.5 506.5 c 128,-1,7
 486 486 486 486 500 445 c 1,8,9
 530 484 530 484 575 505.5 c 128,-1,10
 620 527 620 527 673 527 c 0,11,12
 746 527 746 527 791.5 485.5 c 128,-1,13
 837 444 837 444 823 344 c 2,14,-1
 775 0 l 1,15,-1
 690 0 l 1,16,-1
 737 337 l 2,17,18
 754 459 754 459 639 459 c 0,19,20
 584 459 584 459 544 432 c 128,-1,21
 504 405 504 405 495 345 c 2,22,-1
 447 0 l 1,23,-1
 361 0 l 1,24,-1
 412 366 l 2,25,26
 418 411 418 411 389 435 c 128,-1,27
 360 459 360 459 310 459 c 0,28,29
 263 459 263 459 220 432 c 128,-1,30
 177 405 177 405 170 354 c 2,31,-1
 120 0 l 1,32,-1
 34 0 l 1,33,-1
 107 517 l 1,0,-1
EndSplineSet
EndChar

StartChar: n
Encoding: 110 110 81
Width: 588
GlyphClass: 2
Flags: W
AnchorPoint: "Anchor-5" -46 0 basechar 0
AnchorPoint: "Anchor-4" 249 0 basechar 0
AnchorPoint: "Anchor-3" 255 517 basechar 0
AnchorPoint: "Anchor-2" -46 0 basechar 0
LayerCount: 2
Fore
SplineSet
107 517 m 1,0,-1
 190 517 l 1,1,-1
 180 445 l 1,2,3
 208 481 208 481 251.5 503 c 128,-1,4
 295 525 295 525 354 525 c 0,5,6
 432 525 432 525 476.5 476 c 128,-1,7
 521 427 521 427 509 339 c 2,8,-1
 461 0 l 1,9,-1
 376 0 l 1,10,-1
 423 331 l 2,11,12
 431 389 431 389 403.5 421 c 128,-1,13
 376 453 376 453 322 453 c 0,14,15
 264 453 264 453 220 426 c 128,-1,16
 176 399 176 399 169 349 c 2,17,-1
 120 0 l 1,18,-1
 34 0 l 1,19,-1
 107 517 l 1,0,-1
EndSplineSet
EndChar

StartChar: o
Encoding: 111 111 82
Width: 567
GlyphClass: 2
Flags: W
AnchorPoint: "Anchor-5" -46 0 basechar 0
AnchorPoint: "Anchor-4" 237 0 basechar 0
AnchorPoint: "Anchor-3" 240 517 basechar 0
AnchorPoint: "Anchor-2" 304 10 basechar 0
LayerCount: 2
Fore
SplineSet
115.5 23.5 m 128,-1,1
 67 57 67 57 47.5 117 c 128,-1,2
 28 177 28 177 39 255 c 0,3,4
 50 335 50 335 87 396.5 c 128,-1,5
 124 458 124 458 182.5 492.5 c 128,-1,6
 241 527 241 527 313 527 c 128,-1,7
 385 527 385 527 432.5 492.5 c 128,-1,8
 480 458 480 458 499.5 396.5 c 128,-1,9
 519 335 519 335 508 256 c 0,10,11
 497 178 497 178 460.5 117.5 c 128,-1,12
 424 57 424 57 367 23.5 c 128,-1,13
 310 -10 310 -10 237 -10 c 128,-1,0
 164 -10 164 -10 115.5 23.5 c 128,-1,1
366 113.5 m 128,-1,15
 411 169 411 169 423 259 c 0,16,17
 436 349 436 349 406.5 404 c 128,-1,18
 377 459 377 459 304 459 c 0,19,20
 230 459 230 459 184 403.5 c 128,-1,21
 138 348 138 348 125 259 c 0,22,23
 112 169 112 169 142.5 113.5 c 128,-1,24
 173 58 173 58 248 58 c 0,25,14
 321 58 321 58 366 113.5 c 128,-1,15
EndSplineSet
Substitution2: "Single Substitution lookup 30 subtable" ordmasculine
Substitution2: "'aalt' Access All Alternates in Latin lookup 0 subtable" ordmasculine
EndChar

StartChar: p
Encoding: 112 112 83
Width: 591
GlyphClass: 2
Flags: W
LayerCount: 2
Fore
SplineSet
107 517 m 1,0,-1
 192 517 l 1,1,-1
 182 445 l 1,2,3
 256 527 256 527 354 527 c 0,4,5
 416 527 416 527 460.5 498 c 128,-1,6
 505 469 505 469 525 410 c 128,-1,7
 545 351 545 351 533 266 c 0,8,9
 521 180 521 180 483 117.5 c 128,-1,10
 445 55 445 55 388.5 22.5 c 128,-1,11
 332 -10 332 -10 265 -10 c 0,12,13
 177 -10 177 -10 127 52 c 1,14,-1
 97 -161 l 1,15,-1
 11 -161 l 1,16,-1
 107 517 l 1,0,-1
347 81.5 m 128,-1,18
 387 106 387 106 414 152.5 c 128,-1,19
 441 199 441 199 450 263 c 128,-1,20
 459 327 459 327 444 371 c 128,-1,21
 429 415 429 415 397 437 c 128,-1,22
 365 459 365 459 323 459 c 0,23,24
 285 459 285 459 250 440.5 c 128,-1,25
 215 422 215 422 193 393.5 c 128,-1,26
 171 365 171 365 168 338 c 2,27,-1
 139 137 l 1,28,29
 160 100 160 100 191 78.5 c 128,-1,30
 222 57 222 57 261 57 c 0,31,17
 307 57 307 57 347 81.5 c 128,-1,18
EndSplineSet
EndChar

StartChar: q
Encoding: 113 113 84
Width: 593
GlyphClass: 2
Flags: W
LayerCount: 2
Fore
SplineSet
357 -161 m 1,0,-1
 387 49 l 1,1,2
 346 17 346 17 307.5 3.5 c 128,-1,3
 269 -10 269 -10 228 -10 c 0,4,5
 161 -10 161 -10 114.5 22.5 c 128,-1,6
 68 55 68 55 48 117.5 c 128,-1,7
 28 180 28 180 40 266 c 0,8,9
 52 351 52 351 89 410 c 128,-1,10
 126 469 126 469 178.5 498 c 128,-1,11
 231 527 231 527 293 527 c 0,12,13
 334 527 334 527 364 514 c 128,-1,14
 394 501 394 501 408.5 488 c 128,-1,15
 423 475 423 475 444 451 c 1,16,-1
 454 517 l 1,17,-1
 539 517 l 1,18,-1
 443 -161 l 1,19,-1
 357 -161 l 1,0,-1
401 150 m 1,20,-1
 426 328 l 2,21,22
 431 362 431 362 418 393 c 128,-1,23
 405 424 405 424 376.5 443 c 128,-1,24
 348 462 348 462 309 462 c 0,25,26
 243 462 243 462 192.5 411.5 c 128,-1,27
 142 361 142 361 128 264 c 0,28,29
 119 200 119 200 133 152.5 c 128,-1,30
 147 105 147 105 179.5 79.5 c 128,-1,31
 212 54 212 54 258 54 c 0,32,33
 333 54 333 54 401 150 c 1,20,-1
EndSplineSet
EndChar

StartChar: r
Encoding: 114 114 85
Width: 385
GlyphClass: 2
Flags: W
AnchorPoint: "Anchor-5" -46 0 basechar 0
AnchorPoint: "Anchor-4" 80 0 basechar 0
AnchorPoint: "Anchor-3" 166 517 basechar 0
AnchorPoint: "Anchor-2" -46 0 basechar 0
LayerCount: 2
Fore
SplineSet
107 517 m 1,0,-1
 188 517 l 1,1,-1
 172 409 l 1,2,3
 206 460 206 460 264.5 493.5 c 128,-1,4
 323 527 323 527 380 527 c 1,5,-1
 368 444 l 1,6,7
 318 446 318 446 272.5 427.5 c 128,-1,8
 227 409 227 409 198 377.5 c 128,-1,9
 169 346 169 346 164 314 c 2,10,-1
 120 0 l 1,11,-1
 34 0 l 1,12,-1
 107 517 l 1,0,-1
EndSplineSet
EndChar

StartChar: s
Encoding: 115 115 86
Width: 506
GlyphClass: 2
Flags: W
AnchorPoint: "Anchor-5" -46 0 basechar 0
AnchorPoint: "Anchor-4" 206 0 basechar 0
AnchorPoint: "Anchor-3" 201 517 basechar 0
AnchorPoint: "Anchor-2" -46 0 basechar 0
LayerCount: 2
Fore
SplineSet
71.5 28.5 m 128,-1,1
 20 67 20 67 17 135 c 1,2,-1
 93 146 l 1,3,4
 107 55 107 55 215 55 c 0,5,6
 271 55 271 55 311.5 77.5 c 128,-1,7
 352 100 352 100 358 139 c 0,8,9
 366 199 366 199 290 218 c 2,10,-1
 186 241 l 2,11,12
 119 257 119 257 90.5 290 c 128,-1,13
 62 323 62 323 70 374 c 0,14,15
 80 445 80 445 137.5 486 c 128,-1,16
 195 527 195 527 285 527 c 0,17,18
 377 527 377 527 422.5 485 c 128,-1,19
 468 443 468 443 461 378 c 1,20,-1
 386 372 l 1,21,22
 381 463 381 463 274 463 c 0,23,24
 226 463 226 463 191 443.5 c 128,-1,25
 156 424 156 424 149 379 c 0,26,27
 146 355 146 355 163 337.5 c 128,-1,28
 180 320 180 320 227 308 c 2,29,-1
 330 282 l 2,30,31
 396 265 396 265 419.5 227 c 128,-1,32
 443 189 443 189 436 142 c 0,33,34
 430 98 430 98 398.5 63 c 128,-1,35
 367 28 367 28 317 9 c 128,-1,36
 267 -10 267 -10 206 -10 c 0,37,0
 123 -10 123 -10 71.5 28.5 c 128,-1,1
EndSplineSet
EndChar

StartChar: t
Encoding: 116 116 87
Width: 389
GlyphClass: 2
Flags: W
AnchorPoint: "Anchor-5" 334 754 basechar 0
AnchorPoint: "Anchor-4" 213 0 basechar 0
AnchorPoint: "Anchor-3" -46 0 basechar 0
AnchorPoint: "Anchor-2" -46 0 basechar 0
LayerCount: 2
Fore
SplineSet
233 454 m 1,0,-1
 187 130 l 2,1,2
 181 90 181 90 192 75.5 c 128,-1,3
 203 61 203 61 229 61 c 2,4,-1
 300 61 l 1,5,-1
 292 6 l 1,6,7
 270 -2 270 -2 216 -2 c 0,8,9
 141 -2 141 -2 116 28.5 c 128,-1,10
 91 59 91 59 100 124 c 2,11,-1
 147 454 l 1,12,-1
 63 454 l 1,13,-1
 72 517 l 1,14,-1
 158 517 l 1,15,-1
 191 688 l 1,16,-1
 266 688 l 1,17,-1
 242 517 l 1,18,-1
 359 517 l 1,19,-1
 350 454 l 1,20,-1
 233 454 l 1,0,-1
EndSplineSet
EndChar

StartChar: u
Encoding: 117 117 88
Width: 588
GlyphClass: 2
Flags: W
AnchorPoint: "Anchor-5" -46 0 basechar 0
AnchorPoint: "Anchor-4" 247 0 basechar 0
AnchorPoint: "Anchor-3" 239 517 basechar 0
AnchorPoint: "Anchor-2" 446 11 basechar 0
LayerCount: 2
Fore
SplineSet
139.5 9 m 128,-1,1
 97 27 97 27 73 67 c 128,-1,2
 49 107 49 107 58 168 c 2,3,-1
 107 518 l 1,4,-1
 193 518 l 1,5,-1
 145 176 l 2,6,7
 136 115 136 115 169.5 86.5 c 128,-1,8
 203 58 203 58 253 58 c 0,9,10
 307 58 307 58 349 90.5 c 128,-1,11
 391 123 391 123 400 181 c 2,12,-1
 448 518 l 1,13,-1
 534 518 l 1,14,-1
 460 1 l 1,15,-1
 392 1 l 1,16,-1
 399 81 l 1,17,18
 377 45 377 45 328 18 c 128,-1,19
 279 -9 279 -9 229 -9 c 0,20,0
 182 -9 182 -9 139.5 9 c 128,-1,1
EndSplineSet
EndChar

StartChar: v
Encoding: 118 118 89
Width: 530
GlyphClass: 2
Flags: W
LayerCount: 2
Fore
SplineSet
253 0 m 1,0,-1
 185 0 l 1,1,-1
 49 517 l 1,2,-1
 130 517 l 1,3,-1
 235 109 l 1,4,-1
 455 517 l 1,5,-1
 535 517 l 1,6,-1
 253 0 l 1,0,-1
EndSplineSet
EndChar

StartChar: w
Encoding: 119 119 90
Width: 774
GlyphClass: 2
Flags: W
AnchorPoint: "Anchor-5" -46 0 basechar 0
AnchorPoint: "Anchor-4" -46 0 basechar 0
AnchorPoint: "Anchor-3" 345 517 basechar 0
AnchorPoint: "Anchor-2" -46 0 basechar 0
LayerCount: 2
Fore
SplineSet
544 0 m 1,0,-1
 464 0 l 1,1,-1
 395 390 l 1,2,-1
 222 0 l 1,3,-1
 142 0 l 1,4,-1
 52 517 l 1,5,-1
 132 517 l 1,6,-1
 199 110 l 1,7,-1
 381 517 l 1,8,-1
 447 517 l 1,9,-1
 518 111 l 1,10,-1
 695 517 l 1,11,-1
 776 517 l 1,12,-1
 544 0 l 1,0,-1
EndSplineSet
EndChar

StartChar: x
Encoding: 120 120 91
Width: 538
GlyphClass: 2
Flags: W
LayerCount: 2
Fore
SplineSet
376 0 m 1,0,-1
 252 207 l 1,1,-1
 69 0 l 1,2,-1
 -25 0 l 1,3,-1
 213 269 l 1,4,-1
 64 517 l 1,5,-1
 158 517 l 1,6,-1
 270 331 l 1,7,-1
 434 517 l 1,8,-1
 528 517 l 1,9,-1
 309 269 l 1,10,-1
 471 0 l 1,11,-1
 376 0 l 1,0,-1
EndSplineSet
EndChar

StartChar: y
Encoding: 121 121 92
Width: 525
GlyphClass: 2
Flags: W
AnchorPoint: "Anchor-5" -46 0 basechar 0
AnchorPoint: "Anchor-4" -46 0 basechar 0
AnchorPoint: "Anchor-3" 225 517 basechar 0
AnchorPoint: "Anchor-2" -46 0 basechar 0
LayerCount: 2
Fore
SplineSet
11 -162.5 m 128,-1,1
 -6 -160 -6 -160 -13.5 -157 c 128,-1,2
 -21 -154 -21 -154 -23 -153 c 2,3,-1
 -15 -97 l 1,4,-1
 39 -98 l 2,5,6
 89 -99 89 -99 114 -83 c 128,-1,7
 139 -67 139 -67 153 -40 c 2,8,-1
 180 11 l 1,9,-1
 49 517 l 1,10,-1
 136 517 l 1,11,-1
 234 110 l 1,12,-1
 447 517 l 1,13,-1
 530 517 l 1,14,-1
 233 -44 l 2,15,16
 196 -111 196 -111 153 -138 c 128,-1,17
 110 -165 110 -165 54 -165 c 0,18,0
 28 -165 28 -165 11 -162.5 c 128,-1,1
EndSplineSet
EndChar

StartChar: z
Encoding: 122 122 93
Width: 486
GlyphClass: 2
Flags: W
AnchorPoint: "Anchor-5" -46 0 basechar 0
AnchorPoint: "Anchor-4" -46 0 basechar 0
AnchorPoint: "Anchor-3" 213 517 basechar 0
AnchorPoint: "Anchor-2" -46 0 basechar 0
LayerCount: 2
Fore
SplineSet
3 54 m 1,0,-1
 359 457 l 1,1,-1
 80 457 l 1,2,-1
 89 517 l 1,3,-1
 471 517 l 1,4,-1
 463 462 l 1,5,-1
 106 60 l 1,6,-1
 411 60 l 1,7,-1
 403 0 l 1,8,-1
 -5 0 l 1,9,-1
 3 54 l 1,0,-1
EndSplineSet
EndChar

StartChar: braceleft
Encoding: 123 123 94
Width: 316
GlyphClass: 2
Flags: W
LayerCount: 2
Fore
SplineSet
206 696 m 128,-1,1
 245 723 245 723 301 723 c 2,2,-1
 348 723 l 1,3,-1
 340 667 l 1,4,-1
 305 667 l 2,5,6
 269 667 269 667 254.5 654.5 c 128,-1,7
 240 642 240 642 236 615 c 2,8,-1
 206 401 l 2,9,10
 198 348 198 348 165.5 319.5 c 128,-1,11
 133 291 133 291 92 287 c 0,12,13
 86 286 86 286 85 283.5 c 128,-1,14
 84 281 84 281 91 280 c 0,15,16
 133 277 133 277 156.5 249.5 c 128,-1,17
 180 222 180 222 173 165 c 2,18,-1
 142 -51 l 2,19,20
 138 -80 138 -80 150 -92.5 c 128,-1,21
 162 -105 162 -105 198 -105 c 2,22,-1
 232 -105 l 1,23,-1
 224 -161 l 1,24,-1
 178 -161 l 2,25,26
 120 -161 120 -161 89.5 -133 c 128,-1,27
 59 -105 59 -105 65 -58 c 2,28,-1
 96 160 l 2,29,30
 101 199 101 199 75.5 227.5 c 128,-1,31
 50 256 50 256 -4 256 c 1,32,-1
 4 310 l 1,33,34
 60 310 60 310 92.5 337.5 c 128,-1,35
 125 365 125 365 131 410 c 2,36,-1
 161 623 l 2,37,0
 167 669 167 669 206 696 c 128,-1,1
EndSplineSet
EndChar

StartChar: bar
Encoding: 124 124 95
Width: 251
GlyphClass: 2
Flags: W
LayerCount: 2
Fore
SplineSet
19 -161 m 1,0,-1
 157 826 l 1,1,-1
 225 826 l 1,2,-1
 86 -161 l 1,3,-1
 19 -161 l 1,0,-1
EndSplineSet
EndChar

StartChar: braceright
Encoding: 125 125 96
Width: 316
GlyphClass: 2
Flags: W
LayerCount: 2
Fore
SplineSet
138 -134 m 128,-1,1
 99 -161 99 -161 43 -161 c 2,2,-1
 -4 -161 l 1,3,-1
 4 -105 l 1,4,-1
 39 -105 l 2,5,6
 75 -105 75 -105 89.5 -92.5 c 128,-1,7
 104 -80 104 -80 108 -53 c 2,8,-1
 138 161 l 2,9,10
 146 214 146 214 178.5 242.5 c 128,-1,11
 211 271 211 271 252 275 c 0,12,13
 258 276 258 276 259 278.5 c 128,-1,14
 260 281 260 281 253 282 c 0,15,16
 211 285 211 285 187.5 312.5 c 128,-1,17
 164 340 164 340 171 397 c 2,18,-1
 202 613 l 2,19,20
 206 642 206 642 194 654.5 c 128,-1,21
 182 667 182 667 146 667 c 2,22,-1
 112 667 l 1,23,-1
 120 723 l 1,24,-1
 166 723 l 2,25,26
 224 723 224 723 254.5 695 c 128,-1,27
 285 667 285 667 279 620 c 2,28,-1
 248 402 l 2,29,30
 243 363 243 363 268.5 334.5 c 128,-1,31
 294 306 294 306 348 306 c 1,32,-1
 340 252 l 1,33,34
 284 252 284 252 251.5 224.5 c 128,-1,35
 219 197 219 197 213 152 c 2,36,-1
 183 -61 l 2,37,0
 177 -107 177 -107 138 -134 c 128,-1,1
EndSplineSet
EndChar

StartChar: asciitilde
Encoding: 126 126 97
Width: 558
GlyphClass: 2
Flags: W
LayerCount: 2
Fore
SplineSet
446 327.5 m 128,-1,1
 411 310 411 310 368 310 c 0,2,3
 341 310 341 310 320.5 317 c 128,-1,4
 300 324 300 324 273 337 c 0,5,6
 247 350 247 350 230 355.5 c 128,-1,7
 213 361 213 361 191 361 c 0,8,9
 156 361 156 361 129 346 c 128,-1,10
 102 331 102 331 76 305 c 1,11,-1
 58 355 l 1,12,13
 96 388 96 388 127 404.5 c 128,-1,14
 158 421 158 421 199 421 c 0,15,16
 225 421 225 421 246.5 414 c 128,-1,17
 268 407 268 407 293 394 c 0,18,19
 320 381 320 381 337.5 375.5 c 128,-1,20
 355 370 355 370 377 370 c 0,21,22
 437 370 437 370 483 423 c 1,23,-1
 502 373 l 1,24,0
 481 345 481 345 446 327.5 c 128,-1,1
EndSplineSet
EndChar

StartChar: exclamdown
Encoding: 161 161 99
Width: 243
GlyphClass: 2
Flags: W
LayerCount: 2
Fore
SplineSet
76 406 m 1,0,-1
 91 517 l 1,1,-1
 195 517 l 1,2,-1
 180 406 l 1,3,-1
 76 406 l 1,0,-1
-3 -161 m 1,4,-1
 89 338 l 1,5,-1
 147 338 l 1,6,-1
 100 -161 l 1,7,-1
 -3 -161 l 1,4,-1
EndSplineSet
EndChar

StartChar: cent
Encoding: 162 162 100
Width: 536
GlyphClass: 2
Flags: W
AnchorPoint: "Anchor-1" 242 628 basechar 0
AnchorPoint: "Anchor-0" 243 111 basechar 0
LayerCount: 2
Fore
SplineSet
394 148 m 128,-1,1
 345 110 345 110 282 103 c 1,2,-1
 267 0 l 1,3,-1
 202 0 l 1,4,-1
 217 103 l 1,5,6
 127 116 127 116 82.5 187 c 128,-1,7
 38 258 38 258 54 367 c 0,8,9
 69 477 69 477 133.5 550 c 128,-1,10
 198 623 198 623 292 636 c 1,11,-1
 304 723 l 1,12,-1
 369 723 l 1,13,-1
 357 636 l 1,14,15
 471 621 471 621 506 493 c 1,16,-1
 433 479 l 1,17,18
 406 528 406 528 383.5 548 c 128,-1,19
 361 568 361 568 321 568 c 0,20,21
 249 568 249 568 199.5 514.5 c 128,-1,22
 150 461 150 461 137 369 c 0,23,24
 124 276 124 276 159 221.5 c 128,-1,25
 194 167 194 167 266 167 c 0,26,27
 310 167 310 167 343 191.5 c 128,-1,28
 376 216 376 216 408 263 c 1,29,-1
 475 248 l 1,30,0
 443 186 443 186 394 148 c 128,-1,1
EndSplineSet
EndChar

StartChar: sterling
Encoding: 163 163 101
Width: 608
GlyphClass: 2
Flags: W
LayerCount: 2
Fore
SplineSet
-23 74 m 1,0,-1
 15 74 l 2,1,2
 56 74 56 74 86 109.5 c 128,-1,3
 116 145 116 145 126 216 c 0,4,5
 133 266 133 266 132 345 c 1,6,-1
 31 345 l 1,7,-1
 39 401 l 1,8,-1
 130 401 l 1,9,-1
 126 482 l 2,10,11
 124 512 124 512 128 538 c 0,12,13
 136 597 136 597 171 641.5 c 128,-1,14
 206 686 206 686 257 709.5 c 128,-1,15
 308 733 308 733 364 733 c 0,16,17
 433 733 433 733 483 700 c 128,-1,18
 533 667 533 667 547 617 c 1,19,-1
 468 590 l 1,20,21
 455 625 455 625 430.5 642 c 128,-1,22
 406 659 406 659 363 659 c 0,23,24
 310 659 310 659 271 628 c 128,-1,25
 232 597 232 597 224 544 c 0,26,27
 216 487 216 487 228 401 c 1,28,-1
 391 401 l 1,29,-1
 383 345 l 1,30,-1
 228 345 l 1,31,32
 228 289 228 289 224 257 c 0,33,34
 221 239 221 239 219 229 c 0,35,36
 202 130 202 130 139 75 c 1,37,-1
 318 75 l 2,38,39
 370 75 370 75 403 93.5 c 128,-1,40
 436 112 436 112 460 157 c 1,41,-1
 531 137 l 1,42,43
 465 0 465 0 312 0 c 2,44,-1
 -33 0 l 1,45,-1
 -23 74 l 1,0,-1
EndSplineSet
EndChar

StartChar: currency
Encoding: 164 164 102
Width: 528
GlyphClass: 2
Flags: W
LayerCount: 2
Fore
SplineSet
139 207 m 0,0,1
 133 212 133 212 126 206 c 2,2,-1
 66 151 l 1,3,-1
 29 196 l 1,4,-1
 96 254 l 1,5,6
 69 303 69 303 77 364 c 0,7,8
 85 419 85 419 122 465 c 0,9,10
 128 473 128 473 123 479 c 2,11,-1
 77 532 l 1,12,-1
 126 576 l 1,13,-1
 177 515 l 1,14,15
 229 550 229 550 290 550 c 0,16,17
 349 550 349 550 388 519 c 0,18,19
 396 516 396 516 400 520 c 2,20,-1
 462 574 l 1,21,-1
 498 530 l 1,22,-1
 432 472 l 1,23,24
 459 422 459 422 450 364 c 0,25,26
 442 304 442 304 406 262 c 0,27,28
 400 256 400 256 405 251 c 2,29,-1
 452 198 l 1,30,-1
 404 155 l 1,31,-1
 353 213 l 1,32,33
 297 176 297 176 239 176 c 128,-1,34
 181 176 181 176 139 207 c 0,0,1
339.5 279 m 128,-1,36
 380 315 380 315 386 364 c 0,37,38
 390 396 390 396 378.5 424 c 128,-1,39
 367 452 367 452 341.5 468.5 c 128,-1,40
 316 485 316 485 282 485 c 128,-1,41
 248 485 248 485 218.5 468.5 c 128,-1,42
 189 452 189 452 169 424 c 128,-1,43
 149 396 149 396 144 364 c 0,44,45
 137 315 137 315 167 279 c 128,-1,46
 197 243 197 243 248 243 c 128,-1,35
 299 243 299 243 339.5 279 c 128,-1,36
EndSplineSet
EndChar

StartChar: yen
Encoding: 165 165 103
Width: 602
GlyphClass: 2
Flags: W
LayerCount: 2
Fore
SplineSet
365 337 m 1,0,-1
 507 337 l 1,1,-1
 499 282 l 1,2,-1
 346 282 l 1,3,-1
 334 192 l 1,4,-1
 487 192 l 1,5,-1
 479 136 l 1,6,-1
 326 136 l 1,7,-1
 307 0 l 1,8,-1
 209 0 l 1,9,-1
 228 136 l 1,10,-1
 75 136 l 1,11,-1
 82 191 l 1,12,-1
 235 191 l 1,13,-1
 248 281 l 1,14,-1
 95 281 l 1,15,-1
 103 337 l 1,16,-1
 235 337 l 1,17,-1
 60 723 l 1,18,-1
 171 723 l 1,19,-1
 319 387 l 1,20,-1
 561 723 l 1,21,-1
 653 723 l 1,22,-1
 365 337 l 1,0,-1
EndSplineSet
EndChar

StartChar: brokenbar
Encoding: 166 166 104
Width: 251
GlyphClass: 2
Flags: W
LayerCount: 2
Fore
SplineSet
101 426 m 1,0,-1
 157 826 l 1,1,-1
 225 826 l 1,2,-1
 168 426 l 1,3,-1
 101 426 l 1,0,-1
19 -161 m 1,4,-1
 74 239 l 1,5,-1
 142 239 l 1,6,-1
 86 -161 l 1,7,-1
 19 -161 l 1,4,-1
EndSplineSet
EndChar

StartChar: section
Encoding: 167 167 105
Width: 481
GlyphClass: 2
Flags: W
LayerCount: 2
Fore
SplineSet
65.5 -39 m 128,-1,1
 12 -7 12 -7 -8 45 c 1,2,-1
 53 75 l 1,3,4
 73 37 73 37 109.5 13.5 c 128,-1,5
 146 -10 146 -10 198 -10 c 0,6,7
 249 -10 249 -10 283 9.5 c 128,-1,8
 317 29 317 29 322 64 c 0,9,10
 326 91 326 91 307.5 113.5 c 128,-1,11
 289 136 289 136 236 158 c 2,12,-1
 154 191 l 2,13,14
 91 217 91 217 65 252 c 128,-1,15
 39 287 39 287 46 336 c 0,16,17
 52 381 52 381 84 414.5 c 128,-1,18
 116 448 116 448 163 466 c 1,19,20
 112 495 112 495 96 525.5 c 128,-1,21
 80 556 80 556 85 595 c 128,-1,22
 90 634 90 634 118 665.5 c 128,-1,23
 146 697 146 697 190.5 715 c 128,-1,24
 235 733 235 733 290 733 c 0,25,26
 354 733 354 733 400.5 704 c 128,-1,27
 447 675 447 675 468 632 c 1,28,-1
 405 601 l 1,29,30
 359 672 359 672 286 672 c 0,31,32
 235 672 235 672 203 653 c 128,-1,33
 171 634 171 634 166 602 c 0,34,35
 163 578 163 578 178.5 558 c 128,-1,36
 194 538 194 538 236 521 c 2,37,-1
 314 487 l 2,38,39
 387 456 387 456 416 417.5 c 128,-1,40
 445 379 445 379 438 327 c 0,41,42
 432 281 432 281 403 250.5 c 128,-1,43
 374 220 374 220 329 199 c 1,44,45
 372 173 372 173 391 142.5 c 128,-1,46
 410 112 410 112 404 72 c 0,47,48
 395 9 395 9 336.5 -31 c 128,-1,49
 278 -71 278 -71 190 -71 c 0,50,0
 119 -71 119 -71 65.5 -39 c 128,-1,1
323 255 m 128,-1,52
 354 279 354 279 359 313 c 128,-1,53
 364 347 364 347 348.5 369.5 c 128,-1,54
 333 392 333 392 286 412 c 2,55,-1
 234 433 l 1,56,57
 193 430 193 430 160 404.5 c 128,-1,58
 127 379 127 379 123 347 c 0,59,60
 119 318 119 318 134 299.5 c 128,-1,61
 149 281 149 281 199 260 c 2,62,-1
 256 234 l 1,63,51
 292 231 292 231 323 255 c 128,-1,52
EndSplineSet
EndChar

StartChar: dieresis
Encoding: 168 168 106
Width: 256
GlyphClass: 2
Flags: W
LayerCount: 2
Fore
SplineSet
158 615 m 1,0,-1
 74 615 l 1,1,-1
 90 723 l 1,2,-1
 174 723 l 1,3,-1
 158 615 l 1,0,-1
304 615 m 1,4,-1
 220 615 l 1,5,-1
 236 723 l 1,6,-1
 320 723 l 1,7,-1
 304 615 l 1,4,-1
EndSplineSet
EndChar

StartChar: copyright
Encoding: 169 169 107
Width: 813
GlyphClass: 2
Flags: W
LayerCount: 2
Fore
SplineSet
176.5 39.5 m 128,-1,1
 98 89 98 89 60 174.5 c 128,-1,2
 22 260 22 260 37 362 c 0,3,4
 51 462 51 462 113 547.5 c 128,-1,5
 175 633 175 633 267.5 683 c 128,-1,6
 360 733 360 733 461 733 c 0,7,8
 561 733 561 733 639.5 683 c 128,-1,9
 718 633 718 633 756 547.5 c 128,-1,10
 794 462 794 462 780 362 c 0,11,12
 766 260 766 260 703.5 175 c 128,-1,13
 641 90 641 90 549 40 c 128,-1,14
 457 -10 457 -10 356 -10 c 128,-1,0
 255 -10 255 -10 176.5 39.5 c 128,-1,1
525 89 m 128,-1,16
 601 128 601 128 652.5 199 c 128,-1,17
 704 270 704 270 717 362 c 0,18,19
 730 453 730 453 698.5 524.5 c 128,-1,20
 667 596 667 596 602 635.5 c 128,-1,21
 537 675 537 675 453 675 c 0,22,23
 367 675 367 675 291.5 635.5 c 128,-1,24
 216 596 216 596 165 524.5 c 128,-1,25
 114 453 114 453 101 362 c 0,26,27
 88 269 88 269 118.5 198 c 128,-1,28
 149 127 149 127 214 88.5 c 128,-1,29
 279 50 279 50 365 50 c 0,30,15
 449 50 449 50 525 89 c 128,-1,16
534 542.5 m 128,-1,32
 571 512 571 512 589 464 c 1,33,-1
 523 448 l 1,34,35
 493 518 493 518 436 518 c 0,36,37
 383 518 383 518 344.5 476.5 c 128,-1,38
 306 435 306 435 296 365 c 0,39,40
 286 293 286 293 313 251.5 c 128,-1,41
 340 210 340 210 394 210 c 0,42,43
 431 210 431 210 462 230.5 c 128,-1,44
 493 251 493 251 517 287 c 1,45,-1
 564 268 l 1,46,47
 532 220 532 220 486 188 c 128,-1,48
 440 156 440 156 382 156 c 0,49,50
 326 156 326 156 286.5 182 c 128,-1,51
 247 208 247 208 229.5 255 c 128,-1,52
 212 302 212 302 221 363 c 128,-1,53
 230 424 230 424 261 472 c 128,-1,54
 292 520 292 520 338.5 546.5 c 128,-1,55
 385 573 385 573 440 573 c 0,56,31
 497 573 497 573 534 542.5 c 128,-1,32
EndSplineSet
EndChar

StartChar: ordfeminine
Encoding: 170 170 108
Width: 414
GlyphClass: 2
Flags: W
LayerCount: 2
Fore
SplineSet
87 420 m 128,-1,1
 62 444 62 444 68 486 c 0,2,3
 75 533 75 533 120 561.5 c 128,-1,4
 165 590 165 590 244 595 c 2,5,-1
 302 599 l 1,6,-1
 305 623 l 2,7,8
 309 655 309 655 292 670.5 c 128,-1,9
 275 686 275 686 240 686 c 0,10,11
 212 686 212 686 191 675.5 c 128,-1,12
 170 665 170 665 150 638 c 1,13,-1
 98 653 l 1,14,15
 146 731 146 731 250 731 c 0,16,17
 314 731 314 731 342.5 702.5 c 128,-1,18
 371 674 371 674 364 623 c 2,19,-1
 348 506 l 2,20,21
 343 468 343 468 342 439 c 2,22,-1
 343 402 l 1,23,-1
 281 402 l 1,24,-1
 279 445 l 1,25,26
 248 419 248 419 221.5 407.5 c 128,-1,27
 195 396 195 396 163 396 c 0,28,0
 112 396 112 396 87 420 c 128,-1,1
259 465 m 0,29,30
 286 486 286 486 289 506 c 2,31,-1
 296 560 l 1,32,-1
 249 556 l 2,33,34
 194 552 194 552 164 535 c 128,-1,35
 134 518 134 518 130 489 c 0,36,37
 127 466 127 466 143 452.5 c 128,-1,38
 159 439 159 439 189 439 c 0,39,40
 227 439 227 439 259 465 c 0,29,30
EndSplineSet
EndChar

StartChar: guillemotleft
Encoding: 171 171 109
Width: 443
GlyphClass: 2
Flags: W
LayerCount: 2
Fore
SplineSet
180 71 m 1,0,-1
 131 71 l 1,1,-1
 24 251 l 1,2,-1
 183 439 l 1,3,-1
 232 439 l 1,4,-1
 103 251 l 1,5,-1
 180 71 l 1,0,-1
355 71 m 1,6,-1
 306 71 l 1,7,-1
 199 251 l 1,8,-1
 358 439 l 1,9,-1
 407 439 l 1,10,-1
 278 251 l 1,11,-1
 355 71 l 1,6,-1
EndSplineSet
EndChar

StartChar: logicalnot
Encoding: 172 172 110
Width: 546
GlyphClass: 2
Flags: W
LayerCount: 2
Fore
SplineSet
492 397 m 1,0,-1
 463 187 l 1,1,-1
 391 187 l 1,2,-1
 410 330 l 1,3,-1
 56 329 l 1,4,-1
 65 397 l 1,5,-1
 492 397 l 1,0,-1
EndSplineSet
EndChar

StartChar: uni00AD
Encoding: 173 173 111
Width: 369
GlyphClass: 2
Flags: W
LayerCount: 2
Fore
SplineSet
299 224 m 1,0,-1
 48 224 l 1,1,-1
 57 292 l 1,2,-1
 309 293 l 1,3,-1
 299 224 l 1,0,-1
EndSplineSet
EndChar

StartChar: registered
Encoding: 174 174 112
Width: 535
GlyphClass: 2
Flags: W
LayerCount: 2
Fore
SplineSet
143.5 299 m 128,-1,1
 94 330 94 330 70.5 383 c 128,-1,2
 47 436 47 436 56 500 c 128,-1,3
 65 564 65 564 103.5 617 c 128,-1,4
 142 670 142 670 200 701.5 c 128,-1,5
 258 733 258 733 322 733 c 0,6,7
 385 733 385 733 434 701.5 c 128,-1,8
 483 670 483 670 506.5 616.5 c 128,-1,9
 530 563 530 563 521 500 c 128,-1,10
 512 437 512 437 473.5 383.5 c 128,-1,11
 435 330 435 330 377.5 299 c 128,-1,12
 320 268 320 268 257 268 c 0,13,0
 193 268 193 268 143.5 299 c 128,-1,1
403.5 364 m 128,-1,15
 462 415 462 415 474 500 c 0,16,17
 482 556 482 556 464.5 599 c 128,-1,18
 447 642 447 642 408.5 665.5 c 128,-1,19
 370 689 370 689 316 689 c 0,20,21
 233 689 233 689 174 637 c 128,-1,22
 115 585 115 585 103 500 c 128,-1,23
 91 415 91 415 135 364 c 128,-1,24
 179 313 179 313 263 313 c 0,25,14
 345 313 345 313 403.5 364 c 128,-1,15
216 614 m 1,26,-1
 320 614 l 2,27,28
 358 614 358 614 376.5 599 c 128,-1,29
 395 584 395 584 391 556 c 0,30,31
 387 531 387 531 371 516 c 128,-1,32
 355 501 355 501 333 494 c 1,33,-1
 363 383 l 1,34,-1
 318 383 l 1,35,-1
 294 490 l 1,36,-1
 241 490 l 1,37,-1
 226 383 l 1,38,-1
 184 383 l 1,39,-1
 216 614 l 1,26,-1
302 523 m 2,40,41
 343 523 343 523 347 552 c 128,-1,42
 351 581 351 581 308 581 c 2,43,-1
 254 581 l 1,44,-1
 245 523 l 1,45,-1
 302 523 l 2,40,41
EndSplineSet
EndChar

StartChar: macron
Encoding: 175 175 113
Width: 319
GlyphClass: 2
Flags: W
LayerCount: 2
Fore
SplineSet
377 648 m 1,0,-1
 85 648 l 1,1,-1
 93 710 l 1,2,-1
 385 710 l 1,3,-1
 377 648 l 1,0,-1
EndSplineSet
EndChar

StartChar: degree
Encoding: 176 176 114
Width: 453
GlyphClass: 2
Flags: W
LayerCount: 2
Fore
SplineSet
395 600.5 m 128,-1,1
 370 565 370 565 331.5 545 c 128,-1,2
 293 525 293 525 249 525 c 0,3,4
 182 525 182 525 144.5 569 c 128,-1,5
 107 613 107 613 116 680 c 0,6,7
 126 748 126 748 176 792.5 c 128,-1,8
 226 837 226 837 293 837 c 0,9,10
 337 837 337 837 369.5 816.5 c 128,-1,11
 402 796 402 796 417 760.5 c 128,-1,12
 432 725 432 725 426 680 c 0,13,0
 420 636 420 636 395 600.5 c 128,-1,1
348.5 751 m 128,-1,15
 327 778 327 778 283 778 c 0,16,17
 241 778 241 778 211 751 c 128,-1,18
 181 724 181 724 175 681 c 0,19,20
 169 636 169 636 190.5 608.5 c 128,-1,21
 212 581 212 581 256 581 c 0,22,23
 299 581 299 581 328.5 608 c 128,-1,24
 358 635 358 635 364 679 c 0,25,14
 370 724 370 724 348.5 751 c 128,-1,15
EndSplineSet
EndChar

StartChar: plusminus
Encoding: 177 177 115
Width: 546
GlyphClass: 2
Flags: W
LayerCount: 2
Fore
SplineSet
503 473 m 1,0,-1
 493 405 l 1,1,-1
 313 405 l 1,2,-1
 288 226 l 1,3,-1
 222 226 l 1,4,-1
 247 405 l 1,5,-1
 66 405 l 1,6,-1
 76 472 l 1,7,-1
 256 472 l 1,8,-1
 281 653 l 1,9,-1
 348 653 l 1,10,-1
 323 473 l 1,11,-1
 503 473 l 1,0,-1
27 128 m 1,12,-1
 455 129 l 1,13,-1
 445 62 l 1,14,-1
 18 61 l 1,15,-1
 27 128 l 1,12,-1
EndSplineSet
EndChar

StartChar: uni00B2
Encoding: 178 178 116
Width: 377
GlyphClass: 2
Flags: W
LayerCount: 2
Fore
SplineSet
29 432 m 1,0,-1
 196 575 l 2,1,2
 257 626 257 626 281.5 655.5 c 128,-1,3
 306 685 306 685 311 717 c 0,4,5
 317 757 317 757 292.5 777 c 128,-1,6
 268 797 268 797 232 797 c 0,7,8
 198 797 198 797 168 781.5 c 128,-1,9
 138 766 138 766 117 732 c 1,10,-1
 71 745 l 1,11,12
 95 793 95 793 138.5 819 c 128,-1,13
 182 845 182 845 241 845 c 0,14,15
 304 845 304 845 339.5 811.5 c 128,-1,16
 375 778 375 778 367 719 c 0,17,18
 361 679 361 679 336 646 c 128,-1,19
 311 613 311 613 248 558 c 2,20,-1
 105 432 l 1,21,-1
 332 432 l 1,22,-1
 325 384 l 1,23,-1
 22 384 l 1,24,-1
 29 432 l 1,0,-1
EndSplineSet
EndChar

StartChar: uni00B3
Encoding: 179 179 117
Width: 392
GlyphClass: 2
Flags: W
LayerCount: 2
Fore
SplineSet
164 823 m 128,-1,1
 211 845 211 845 266 845 c 0,2,3
 334 845 334 845 373 812.5 c 128,-1,4
 412 780 412 780 405 730 c 0,5,6
 395 657 395 657 302 626 c 1,7,8
 347 614 347 614 370.5 583.5 c 128,-1,9
 394 553 394 553 388 510 c 0,10,11
 380 452 380 452 325.5 415 c 128,-1,12
 271 378 271 378 194 378 c 0,13,14
 132 378 132 378 94.5 398.5 c 128,-1,15
 57 419 57 419 42 468 c 1,16,-1
 93 480 l 1,17,18
 124 424 124 424 200 424 c 0,19,20
 254 424 254 424 288 447.5 c 128,-1,21
 322 471 322 471 328 509 c 0,22,23
 334 550 334 550 303 574 c 128,-1,24
 272 598 272 598 226 598 c 2,25,-1
 165 598 l 1,26,-1
 172 644 l 1,27,-1
 223 645 l 2,28,29
 271 646 271 646 306 669 c 128,-1,30
 341 692 341 692 346 727 c 0,31,32
 350 758 350 758 325 779 c 128,-1,33
 300 800 300 800 259 800 c 0,34,35
 183 800 183 800 143 744 c 1,36,-1
 96 756 l 1,37,0
 117 801 117 801 164 823 c 128,-1,1
EndSplineSet
EndChar

StartChar: acute
Encoding: 180 180 118
Width: 286
GlyphClass: 2
Flags: W
LayerCount: 2
Fore
SplineSet
347 665 m 1,0,-1
 86 591 l 1,1,-1
 78 636 l 1,2,-1
 335 732 l 1,3,-1
 347 665 l 1,0,-1
EndSplineSet
EndChar

StartChar: paragraph
Encoding: 182 182 119
Width: 563
GlyphClass: 2
Flags: W
LayerCount: 2
Fore
SplineSet
470 670 m 1,0,-1
 364 -83 l 1,1,-1
 306 -83 l 1,2,-1
 412 670 l 1,3,-1
 362 670 l 1,4,-1
 256 -83 l 1,5,-1
 198 -83 l 1,6,-1
 251 297 l 1,7,8
 188 299 188 299 144 326.5 c 128,-1,9
 100 354 100 354 80.5 400.5 c 128,-1,10
 61 447 61 447 69 504 c 0,11,12
 77 562 77 562 111 612 c 128,-1,13
 145 662 145 662 200.5 692.5 c 128,-1,14
 256 723 256 723 329 723 c 2,15,-1
 537 723 l 1,16,-1
 530 670 l 1,17,-1
 470 670 l 1,0,-1
EndSplineSet
EndChar

StartChar: periodcentered
Encoding: 183 183 120
Width: 204
GlyphClass: 2
Flags: W
LayerCount: 2
Fore
SplineSet
150 311 m 1,0,-1
 40 311 l 1,1,-1
 55 417 l 1,2,-1
 165 417 l 1,3,-1
 150 311 l 1,0,-1
EndSplineSet
EndChar

StartChar: cedilla
Encoding: 184 184 121
Width: 225
GlyphClass: 2
Flags: W
LayerCount: 2
Fore
SplineSet
126.5 -184.5 m 128,-1,1
 93 -205 93 -205 47 -205 c 0,2,3
 -9 -205 -9 -205 -41 -180 c 1,4,-1
 -22 -143 l 1,5,6
 5 -166 5 -166 43 -166 c 0,7,8
 97 -166 97 -166 102 -129 c 0,9,10
 105 -107 105 -107 88 -96.5 c 128,-1,11
 71 -86 71 -86 29 -85 c 0,12,13
 20 -85 20 -85 24 -78 c 2,14,-1
 73 5 l 1,15,-1
 119 5 l 1,16,-1
 87 -56 l 1,17,18
 133 -58 133 -58 151 -79 c 128,-1,19
 169 -100 169 -100 165 -128 c 0,20,0
 160 -164 160 -164 126.5 -184.5 c 128,-1,1
EndSplineSet
EndChar

StartChar: uni00B9
Encoding: 185 185 122
Width: 294
GlyphClass: 2
Flags: W
LayerCount: 2
Fore
SplineSet
150 771 m 1,0,-1
 57 740 l 1,1,-1
 62 781 l 1,2,-1
 178 835 l 1,3,-1
 215 835 l 1,4,-1
 151 380 l 1,5,-1
 95 380 l 1,6,-1
 150 771 l 1,0,-1
EndSplineSet
EndChar

StartChar: ordmasculine
Encoding: 186 186 123
Width: 406
GlyphClass: 2
Flags: W
LayerCount: 2
Fore
SplineSet
363.5 685.5 m 128,-1,1
 400 639 400 639 390 563 c 0,2,3
 380 489 380 489 330.5 443 c 128,-1,4
 281 397 281 397 209 397 c 128,-1,5
 137 397 137 397 102 443 c 128,-1,6
 67 489 67 489 78 563 c 0,7,8
 89 639 89 639 137.5 685.5 c 128,-1,9
 186 732 186 732 256 732 c 0,10,0
 327 732 327 732 363.5 685.5 c 128,-1,1
178.5 654 m 128,-1,12
 151 622 151 622 143 566 c 0,13,14
 135 508 135 508 153.5 475.5 c 128,-1,15
 172 443 172 443 216 443 c 0,16,17
 261 443 261 443 289 475 c 128,-1,18
 317 507 317 507 325 566 c 0,19,20
 333 623 333 623 314 654.5 c 128,-1,21
 295 686 295 686 250 686 c 0,22,11
 206 686 206 686 178.5 654 c 128,-1,12
EndSplineSet
EndChar

StartChar: guillemotright
Encoding: 187 187 124
Width: 441
GlyphClass: 2
Flags: W
LayerCount: 2
Fore
SplineSet
59 439 m 1,0,-1
 108 439 l 1,1,-1
 214 251 l 1,2,-1
 57 71 l 1,3,-1
 9 71 l 1,4,-1
 136 251 l 1,5,-1
 59 439 l 1,0,-1
233 439 m 1,6,-1
 283 439 l 1,7,-1
 389 251 l 1,8,-1
 232 71 l 1,9,-1
 184 71 l 1,10,-1
 311 251 l 1,11,-1
 233 439 l 1,6,-1
EndSplineSet
EndChar

StartChar: onequarter
Encoding: 188 188 125
Width: 950
GlyphClass: 2
Flags: W
LayerCount: 2
Fore
SplineSet
135 667 m 1,0,-1
 42 636 l 1,1,-1
 47 677 l 1,2,-1
 163 731 l 1,3,-1
 200 731 l 1,4,-1
 136 276 l 1,5,-1
 80 276 l 1,6,-1
 135 667 l 1,0,-1
169 -4 m 1,7,-1
 109 -3 l 1,8,-1
 700 731 l 1,9,-1
 758 731 l 1,10,-1
 169 -4 l 1,7,-1
844 455 m 1,11,-1
 803 167 l 1,12,-1
 874 167 l 1,13,-1
 867 118 l 1,14,-1
 796 118 l 1,15,-1
 780 0 l 1,16,-1
 726 0 l 1,17,-1
 743 118 l 1,18,-1
 530 118 l 1,19,-1
 537 169 l 1,20,-1
 789 455 l 1,21,-1
 844 455 l 1,11,-1
748 167 m 1,22,-1
 777 375 l 1,23,-1
 593 167 l 1,24,-1
 748 167 l 1,22,-1
EndSplineSet
EndChar

StartChar: onehalf
Encoding: 189 189 126
Width: 919
GlyphClass: 2
Flags: W
LayerCount: 2
Fore
SplineSet
135 667 m 1,0,-1
 42 636 l 1,1,-1
 47 677 l 1,2,-1
 163 731 l 1,3,-1
 200 731 l 1,4,-1
 136 276 l 1,5,-1
 80 276 l 1,6,-1
 135 667 l 1,0,-1
169 -4 m 1,7,-1
 109 -3 l 1,8,-1
 700 731 l 1,9,-1
 758 731 l 1,10,-1
 169 -4 l 1,7,-1
515 48 m 1,11,-1
 683 191 l 2,12,13
 724 226 724 226 747 248.5 c 128,-1,14
 770 271 770 271 782 291 c 128,-1,15
 794 311 794 311 797 333 c 0,16,17
 803 373 803 373 778.5 393 c 128,-1,18
 754 413 754 413 719 413 c 0,19,20
 685 413 685 413 654.5 397.5 c 128,-1,21
 624 382 624 382 604 348 c 1,22,-1
 557 361 l 1,23,24
 582 409 582 409 626 435 c 128,-1,25
 670 461 670 461 728 461 c 0,26,27
 770 461 770 461 800.5 446 c 128,-1,28
 831 431 831 431 845 402.5 c 128,-1,29
 859 374 859 374 854 334 c 0,30,31
 850 307 850 307 837.5 284 c 128,-1,32
 825 261 825 261 801.5 236 c 128,-1,33
 778 211 778 211 735 174 c 2,34,-1
 591 48 l 1,35,-1
 819 48 l 1,36,-1
 812 0 l 1,37,-1
 509 0 l 1,38,-1
 515 48 l 1,11,-1
EndSplineSet
EndChar

StartChar: threequarters
Encoding: 190 190 127
Width: 1048
GlyphClass: 2
Flags: W
LayerCount: 2
Fore
SplineSet
149 718 m 128,-1,1
 196 740 196 740 251 740 c 0,2,3
 319 740 319 740 358 707.5 c 128,-1,4
 397 675 397 675 390 625 c 0,5,6
 380 552 380 552 287 521 c 1,7,8
 332 509 332 509 355.5 478.5 c 128,-1,9
 379 448 379 448 373 405 c 0,10,11
 365 347 365 347 310.5 310 c 128,-1,12
 256 273 256 273 179 273 c 0,13,14
 117 273 117 273 79.5 293.5 c 128,-1,15
 42 314 42 314 27 363 c 1,16,-1
 78 375 l 1,17,18
 109 319 109 319 185 319 c 0,19,20
 239 319 239 319 273 342.5 c 128,-1,21
 307 366 307 366 313 404 c 0,22,23
 319 445 319 445 288 469 c 128,-1,24
 257 493 257 493 211 493 c 2,25,-1
 150 493 l 1,26,-1
 157 539 l 1,27,-1
 208 540 l 2,28,29
 256 541 256 541 291 564 c 128,-1,30
 326 587 326 587 331 622 c 0,31,32
 335 653 335 653 310 674 c 128,-1,33
 285 695 285 695 244 695 c 0,34,35
 168 695 168 695 128 639 c 1,36,-1
 81 651 l 1,37,0
 102 696 102 696 149 718 c 128,-1,1
267 -4 m 1,38,-1
 207 -3 l 1,39,-1
 798 731 l 1,40,-1
 856 731 l 1,41,-1
 267 -4 l 1,38,-1
942 455 m 1,42,-1
 901 167 l 1,43,-1
 972 167 l 1,44,-1
 965 118 l 1,45,-1
 894 118 l 1,46,-1
 878 0 l 1,47,-1
 824 0 l 1,48,-1
 841 118 l 1,49,-1
 628 118 l 1,50,-1
 635 169 l 1,51,-1
 887 455 l 1,52,-1
 942 455 l 1,42,-1
846 167 m 1,53,-1
 875 375 l 1,54,-1
 691 167 l 1,55,-1
 846 167 l 1,53,-1
EndSplineSet
EndChar

StartChar: questiondown
Encoding: 191 191 128
Width: 510
GlyphClass: 2
Flags: W
LayerCount: 2
Fore
SplineSet
239 517 m 1,0,-1
 343 517 l 1,1,-1
 327 406 l 1,2,-1
 223 406 l 1,3,-1
 239 517 l 1,0,-1
323.5 -133.5 m 128,-1,5
 256 -171 256 -171 176 -171 c 0,6,7
 74 -171 74 -171 22.5 -122.5 c 128,-1,8
 -29 -74 -29 -74 -18 4 c 0,9,10
 -13 42 -13 42 4.5 71.5 c 128,-1,11
 22 101 22 101 45 121.5 c 128,-1,12
 68 142 68 142 105 170 c 0,13,14
 143 199 143 199 165.5 219.5 c 128,-1,15
 188 240 188 240 205.5 270 c 128,-1,16
 223 300 223 300 229 339 c 1,17,-1
 303 339 l 1,18,19
 296 291 296 291 276 255 c 128,-1,20
 256 219 256 219 231.5 195 c 128,-1,21
 207 171 207 171 169 139 c 0,22,23
 123 102 123 102 99.5 74.5 c 128,-1,24
 76 47 76 47 70 7 c 0,25,26
 63 -43 63 -43 95 -73 c 128,-1,27
 127 -103 127 -103 187 -103 c 0,28,29
 237 -103 237 -103 287 -74.5 c 128,-1,30
 337 -46 337 -46 359 -4 c 1,31,-1
 432 -29 l 1,32,4
 391 -96 391 -96 323.5 -133.5 c 128,-1,5
EndSplineSet
EndChar

StartChar: Agrave
Encoding: 192 192 129
Width: 696
GlyphClass: 2
Flags: W
AnchorPoint: "Anchor-5" -46 0 basechar 0
AnchorPoint: "Anchor-4" -46 0 basechar 0
AnchorPoint: "Anchor-3" 307 723 basechar 0
AnchorPoint: "Anchor-2" 607 10 basechar 0
LayerCount: 2
Fore
SplineSet
351 723 m 1,0,-1
 450 723 l 1,1,-1
 610 0 l 1,2,-1
 523 0 l 1,3,-1
 478 202 l 1,4,-1
 178 202 l 1,5,-1
 76 0 l 1,6,-1
 -12 0 l 1,7,-1
 351 723 l 1,0,-1
465 282 m 1,8,-1
 389 638 l 1,9,-1
 211 282 l 1,10,-1
 465 282 l 1,8,-1
570 842 m 1,11,-1
 549 797 l 1,12,-1
 309 871 l 1,13,-1
 341 938 l 1,14,-1
 570 842 l 1,11,-1
EndSplineSet
EndChar

StartChar: Aacute
Encoding: 193 193 130
Width: 696
GlyphClass: 2
Flags: W
AnchorPoint: "Anchor-5" -46 0 basechar 0
AnchorPoint: "Anchor-4" -46 0 basechar 0
AnchorPoint: "Anchor-3" 307 723 basechar 0
AnchorPoint: "Anchor-2" 607 10 basechar 0
LayerCount: 2
Fore
SplineSet
351 723 m 1,0,-1
 450 723 l 1,1,-1
 610 0 l 1,2,-1
 523 0 l 1,3,-1
 478 202 l 1,4,-1
 178 202 l 1,5,-1
 76 0 l 1,6,-1
 -12 0 l 1,7,-1
 351 723 l 1,0,-1
465 282 m 1,8,-1
 389 638 l 1,9,-1
 211 282 l 1,10,-1
 465 282 l 1,8,-1
587 871 m 1,11,-1
 326 797 l 1,12,-1
 318 842 l 1,13,-1
 575 938 l 1,14,-1
 587 871 l 1,11,-1
EndSplineSet
EndChar

StartChar: Acircumflex
Encoding: 194 194 131
Width: 696
GlyphClass: 2
Flags: W
AnchorPoint: "Anchor-5" -46 0 basechar 0
AnchorPoint: "Anchor-4" -46 0 basechar 0
AnchorPoint: "Anchor-3" 307 723 basechar 0
AnchorPoint: "Anchor-2" 607 10 basechar 0
LayerCount: 2
Fore
SplineSet
351 723 m 1,0,-1
 450 723 l 1,1,-1
 610 0 l 1,2,-1
 523 0 l 1,3,-1
 478 202 l 1,4,-1
 178 202 l 1,5,-1
 76 0 l 1,6,-1
 -12 0 l 1,7,-1
 351 723 l 1,0,-1
465 282 m 1,8,-1
 389 638 l 1,9,-1
 211 282 l 1,10,-1
 465 282 l 1,8,-1
460 886 m 1,11,-1
 375 820 l 1,12,-1
 296 820 l 1,13,-1
 437 932 l 1,14,-1
 499 932 l 1,15,-1
 605 820 l 1,16,-1
 521 820 l 1,17,-1
 460 886 l 1,11,-1
EndSplineSet
EndChar

StartChar: Atilde
Encoding: 195 195 132
Width: 696
GlyphClass: 2
Flags: W
AnchorPoint: "Anchor-5" -46 0 basechar 0
AnchorPoint: "Anchor-4" -46 0 basechar 0
AnchorPoint: "Anchor-3" 307 723 basechar 0
AnchorPoint: "Anchor-2" 607 10 basechar 0
LayerCount: 2
Fore
SplineSet
351 723 m 1,0,-1
 450 723 l 1,1,-1
 610 0 l 1,2,-1
 523 0 l 1,3,-1
 478 202 l 1,4,-1
 178 202 l 1,5,-1
 76 0 l 1,6,-1
 -12 0 l 1,7,-1
 351 723 l 1,0,-1
465 282 m 1,8,-1
 389 638 l 1,9,-1
 211 282 l 1,10,-1
 465 282 l 1,8,-1
518 843 m 0,11,12
 499 843 499 843 485 846.5 c 128,-1,13
 471 850 471 850 452 857 c 0,14,15
 440 862 440 862 425.5 865.5 c 128,-1,16
 411 869 411 869 396 869 c 0,17,18
 380 869 380 869 368.5 865 c 128,-1,19
 357 861 357 861 347.5 855.5 c 128,-1,20
 338 850 338 850 334 848 c 0,21,22
 330 845 330 845 327 845 c 0,23,24
 323 845 323 845 321 853 c 2,25,-1
 316 880 l 2,26,27
 315 884 315 884 315 886 c 0,28,29
 316 890 316 890 321 894 c 0,30,31
 343 909 343 909 360 916.5 c 128,-1,32
 377 924 377 924 400 924 c 0,33,34
 417 924 417 924 431.5 920.5 c 128,-1,35
 446 917 446 917 467 910 c 0,36,37
 502 897 502 897 526 897 c 0,38,39
 543 897 543 897 556.5 902 c 128,-1,40
 570 907 570 907 586 916 c 0,41,42
 590 919 590 919 594 919 c 128,-1,43
 598 919 598 919 600 912 c 2,44,-1
 606 880 l 1,45,-1
 606 876 l 2,46,47
 605 872 605 872 601 869 c 128,-1,48
 597 866 597 866 596 865 c 0,49,50
 562 843 562 843 518 843 c 0,11,12
EndSplineSet
EndChar

StartChar: Adieresis
Encoding: 196 196 133
Width: 696
GlyphClass: 2
Flags: W
AnchorPoint: "Anchor-5" -46 0 basechar 0
AnchorPoint: "Anchor-4" -46 0 basechar 0
AnchorPoint: "Anchor-3" 307 723 basechar 0
AnchorPoint: "Anchor-2" 607 10 basechar 0
LayerCount: 2
Fore
SplineSet
351 723 m 1,0,-1
 450 723 l 1,1,-1
 610 0 l 1,2,-1
 523 0 l 1,3,-1
 478 202 l 1,4,-1
 178 202 l 1,5,-1
 76 0 l 1,6,-1
 -12 0 l 1,7,-1
 351 723 l 1,0,-1
465 282 m 1,8,-1
 389 638 l 1,9,-1
 211 282 l 1,10,-1
 465 282 l 1,8,-1
413 821 m 1,11,-1
 329 821 l 1,12,-1
 345 929 l 1,13,-1
 429 929 l 1,14,-1
 413 821 l 1,11,-1
559 821 m 1,15,-1
 475 821 l 1,16,-1
 491 929 l 1,17,-1
 575 929 l 1,18,-1
 559 821 l 1,15,-1
EndSplineSet
EndChar

StartChar: Aring
Encoding: 197 197 134
Width: 696
GlyphClass: 2
Flags: W
AnchorPoint: "Anchor-5" -46 0 basechar 0
AnchorPoint: "Anchor-4" -46 0 basechar 0
AnchorPoint: "Anchor-3" 307 723 basechar 0
AnchorPoint: "Anchor-2" 607 10 basechar 0
LayerCount: 2
Fore
SplineSet
351 723 m 1,0,-1
 450 723 l 1,1,-1
 610 0 l 1,2,-1
 523 0 l 1,3,-1
 478 202 l 1,4,-1
 178 202 l 1,5,-1
 76 0 l 1,6,-1
 -12 0 l 1,7,-1
 351 723 l 1,0,-1
465 282 m 1,8,-1
 389 638 l 1,9,-1
 211 282 l 1,10,-1
 465 282 l 1,8,-1
514.5 813.5 m 128,-1,12
 481 784 481 784 437 784 c 0,13,14
 394 784 394 784 368.5 814 c 128,-1,15
 343 844 343 844 349 888 c 0,16,17
 355 929 355 929 389 958 c 128,-1,18
 423 987 423 987 465 987 c 0,19,20
 508 987 508 987 534 957.5 c 128,-1,21
 560 928 560 928 554 886 c 0,22,11
 548 843 548 843 514.5 813.5 c 128,-1,12
493.5 924 m 128,-1,24
 480 939 480 939 457 939 c 0,25,26
 435 939 435 939 417 923.5 c 128,-1,27
 399 908 399 908 396 885 c 0,28,29
 393 863 393 863 406.5 846.5 c 128,-1,30
 420 830 420 830 442 830 c 128,-1,31
 464 830 464 830 482.5 846.5 c 128,-1,32
 501 863 501 863 504 885 c 0,33,23
 507 909 507 909 493.5 924 c 128,-1,24
EndSplineSet
EndChar

StartChar: AE
Encoding: 198 198 135
Width: 1004
GlyphClass: 2
Flags: W
AnchorPoint: "Anchor-5" -46 0 basechar 0
AnchorPoint: "Anchor-4" -46 0 basechar 0
AnchorPoint: "Anchor-3" 630 723 basechar 0
AnchorPoint: "Anchor-2" -46 0 basechar 0
LayerCount: 2
Fore
SplineSet
893 0 m 1,0,-1
 438 0 l 1,1,-1
 466 204 l 1,2,-1
 218 204 l 1,3,-1
 76 0 l 1,4,-1
 -12 0 l 1,5,-1
 491 723 l 1,6,-1
 982 723 l 1,7,-1
 972 648 l 1,8,-1
 627 648 l 1,9,-1
 592 402 l 1,10,-1
 850 402 l 1,11,-1
 840 328 l 1,12,-1
 582 328 l 1,13,-1
 546 75 l 1,14,-1
 903 75 l 1,15,-1
 893 0 l 1,0,-1
530 660 m 1,16,-1
 263 282 l 1,17,-1
 477 282 l 1,18,-1
 530 660 l 1,16,-1
EndSplineSet
EndChar

StartChar: Ccedilla
Encoding: 199 199 136
Width: 681
GlyphClass: 2
Flags: W
AnchorPoint: "Anchor-5" -46 0 basechar 0
AnchorPoint: "Anchor-4" 314 0 basechar 0
AnchorPoint: "Anchor-3" 314 723 basechar 0
AnchorPoint: "Anchor-2" -46 0 basechar 0
LayerCount: 2
Fore
SplineSet
537 704 m 128,-1,1
 593 675 593 675 622 625.5 c 128,-1,2
 651 576 651 576 650 516 c 1,3,-1
 558 511 l 1,4,5
 554 578 554 578 513.5 618 c 128,-1,6
 473 658 473 658 395 658 c 0,7,8
 294 658 294 658 231.5 584 c 128,-1,9
 169 510 169 510 148 362 c 0,10,11
 127 215 127 215 170 140.5 c 128,-1,12
 213 66 213 66 318 66 c 0,13,14
 385 66 385 66 437.5 105 c 128,-1,15
 490 144 490 144 514 210 c 1,16,-1
 603 202 l 1,17,18
 588 143 588 143 547 94.5 c 128,-1,19
 506 46 506 46 444 18 c 128,-1,20
 382 -10 382 -10 308 -10 c 0,21,22
 211 -10 211 -10 148 35 c 128,-1,23
 85 80 85 80 61 164 c 128,-1,24
 37 248 37 248 53 363 c 128,-1,25
 69 478 69 478 116.5 561.5 c 128,-1,26
 164 645 164 645 237.5 689 c 128,-1,27
 311 733 311 733 406 733 c 0,28,0
 481 733 481 733 537 704 c 128,-1,1
366.5 -184.5 m 128,-1,30
 333 -205 333 -205 287 -205 c 0,31,32
 231 -205 231 -205 199 -180 c 1,33,-1
 218 -143 l 1,34,35
 245 -166 245 -166 283 -166 c 0,36,37
 337 -166 337 -166 342 -129 c 0,38,39
 345 -107 345 -107 328 -96.5 c 128,-1,40
 311 -86 311 -86 269 -85 c 0,41,42
 260 -85 260 -85 264 -78 c 2,43,-1
 313 5 l 1,44,-1
 359 5 l 1,45,-1
 327 -56 l 1,46,47
 373 -58 373 -58 391 -79 c 128,-1,48
 409 -100 409 -100 405 -128 c 0,49,29
 400 -164 400 -164 366.5 -184.5 c 128,-1,30
EndSplineSet
EndChar

StartChar: Egrave
Encoding: 200 200 137
Width: 621
GlyphClass: 2
Flags: W
AnchorPoint: "Anchor-5" -46 0 basechar 0
AnchorPoint: "Anchor-4" 297 0 basechar 0
AnchorPoint: "Anchor-3" 285 723 basechar 0
AnchorPoint: "Anchor-2" 503 10 basechar 0
LayerCount: 2
Fore
SplineSet
142 723 m 1,0,-1
 593 723 l 1,1,-1
 582 647 l 1,2,-1
 217 647 l 1,3,-1
 183 403 l 1,4,-1
 513 403 l 1,5,-1
 502 327 l 1,6,-1
 172 327 l 1,7,-1
 137 78 l 1,8,-1
 512 77 l 1,9,-1
 501 0 l 1,10,-1
 40 0 l 1,11,-1
 142 723 l 1,0,-1
548 842 m 1,12,-1
 527 797 l 1,13,-1
 287 871 l 1,14,-1
 319 938 l 1,15,-1
 548 842 l 1,12,-1
EndSplineSet
EndChar

StartChar: Eacute
Encoding: 201 201 138
Width: 621
GlyphClass: 2
Flags: W
AnchorPoint: "Anchor-5" -46 0 basechar 0
AnchorPoint: "Anchor-4" 297 0 basechar 0
AnchorPoint: "Anchor-3" 285 723 basechar 0
AnchorPoint: "Anchor-2" 503 10 basechar 0
LayerCount: 2
Fore
SplineSet
142 723 m 1,0,-1
 593 723 l 1,1,-1
 582 647 l 1,2,-1
 217 647 l 1,3,-1
 183 403 l 1,4,-1
 513 403 l 1,5,-1
 502 327 l 1,6,-1
 172 327 l 1,7,-1
 137 78 l 1,8,-1
 512 77 l 1,9,-1
 501 0 l 1,10,-1
 40 0 l 1,11,-1
 142 723 l 1,0,-1
565 871 m 1,12,-1
 304 797 l 1,13,-1
 296 842 l 1,14,-1
 553 938 l 1,15,-1
 565 871 l 1,12,-1
EndSplineSet
EndChar

StartChar: Ecircumflex
Encoding: 202 202 139
Width: 621
GlyphClass: 2
Flags: W
AnchorPoint: "Anchor-5" -46 0 basechar 0
AnchorPoint: "Anchor-4" 297 0 basechar 0
AnchorPoint: "Anchor-3" 285 723 basechar 0
AnchorPoint: "Anchor-2" 503 10 basechar 0
LayerCount: 2
Fore
SplineSet
142 723 m 1,0,-1
 593 723 l 1,1,-1
 582 647 l 1,2,-1
 217 647 l 1,3,-1
 183 403 l 1,4,-1
 513 403 l 1,5,-1
 502 327 l 1,6,-1
 172 327 l 1,7,-1
 137 78 l 1,8,-1
 512 77 l 1,9,-1
 501 0 l 1,10,-1
 40 0 l 1,11,-1
 142 723 l 1,0,-1
438 886 m 1,12,-1
 353 820 l 1,13,-1
 274 820 l 1,14,-1
 415 932 l 1,15,-1
 477 932 l 1,16,-1
 583 820 l 1,17,-1
 499 820 l 1,18,-1
 438 886 l 1,12,-1
EndSplineSet
EndChar

StartChar: Edieresis
Encoding: 203 203 140
Width: 621
GlyphClass: 2
Flags: W
AnchorPoint: "Anchor-5" -46 0 basechar 0
AnchorPoint: "Anchor-4" 297 0 basechar 0
AnchorPoint: "Anchor-3" 285 723 basechar 0
AnchorPoint: "Anchor-2" 503 10 basechar 0
LayerCount: 2
Fore
SplineSet
142 723 m 1,0,-1
 593 723 l 1,1,-1
 582 647 l 1,2,-1
 217 647 l 1,3,-1
 183 403 l 1,4,-1
 513 403 l 1,5,-1
 502 327 l 1,6,-1
 172 327 l 1,7,-1
 137 78 l 1,8,-1
 512 77 l 1,9,-1
 501 0 l 1,10,-1
 40 0 l 1,11,-1
 142 723 l 1,0,-1
391 821 m 1,12,-1
 307 821 l 1,13,-1
 323 929 l 1,14,-1
 407 929 l 1,15,-1
 391 821 l 1,12,-1
537 821 m 1,16,-1
 453 821 l 1,17,-1
 469 929 l 1,18,-1
 553 929 l 1,19,-1
 537 821 l 1,16,-1
EndSplineSet
EndChar

StartChar: Igrave
Encoding: 204 204 141
Width: 276
GlyphClass: 2
Flags: W
AnchorPoint: "Anchor-5" -46 0 basechar 0
AnchorPoint: "Anchor-4" 96 0 basechar 0
AnchorPoint: "Anchor-3" 95 723 basechar 0
AnchorPoint: "Anchor-2" 123 8 basechar 0
LayerCount: 2
Fore
SplineSet
228 723 m 1,0,-1
 126 0 l 1,1,-1
 40 0 l 1,2,-1
 142 723 l 1,3,-1
 228 723 l 1,0,-1
358 842 m 1,4,-1
 337 797 l 1,5,-1
 97 871 l 1,6,-1
 129 938 l 1,7,-1
 358 842 l 1,4,-1
EndSplineSet
EndChar

StartChar: Iacute
Encoding: 205 205 142
Width: 276
GlyphClass: 2
Flags: W
AnchorPoint: "Anchor-5" -46 0 basechar 0
AnchorPoint: "Anchor-4" 96 0 basechar 0
AnchorPoint: "Anchor-3" 95 723 basechar 0
AnchorPoint: "Anchor-2" 123 8 basechar 0
LayerCount: 2
Fore
SplineSet
228 723 m 1,0,-1
 126 0 l 1,1,-1
 40 0 l 1,2,-1
 142 723 l 1,3,-1
 228 723 l 1,0,-1
375 871 m 1,4,-1
 114 797 l 1,5,-1
 106 842 l 1,6,-1
 363 938 l 1,7,-1
 375 871 l 1,4,-1
EndSplineSet
EndChar

StartChar: Icircumflex
Encoding: 206 206 143
Width: 276
GlyphClass: 2
Flags: W
AnchorPoint: "Anchor-5" -46 0 basechar 0
AnchorPoint: "Anchor-4" 96 0 basechar 0
AnchorPoint: "Anchor-3" 95 723 basechar 0
AnchorPoint: "Anchor-2" 123 8 basechar 0
LayerCount: 2
Fore
SplineSet
228 723 m 1,0,-1
 126 0 l 1,1,-1
 40 0 l 1,2,-1
 142 723 l 1,3,-1
 228 723 l 1,0,-1
248 886 m 1,4,-1
 163 820 l 1,5,-1
 84 820 l 1,6,-1
 225 932 l 1,7,-1
 287 932 l 1,8,-1
 393 820 l 1,9,-1
 309 820 l 1,10,-1
 248 886 l 1,4,-1
EndSplineSet
EndChar

StartChar: Idieresis
Encoding: 207 207 144
Width: 276
GlyphClass: 2
Flags: W
AnchorPoint: "Anchor-5" -46 0 basechar 0
AnchorPoint: "Anchor-4" 96 0 basechar 0
AnchorPoint: "Anchor-3" 95 723 basechar 0
AnchorPoint: "Anchor-2" 123 8 basechar 0
LayerCount: 2
Fore
SplineSet
228 723 m 1,0,-1
 126 0 l 1,1,-1
 40 0 l 1,2,-1
 142 723 l 1,3,-1
 228 723 l 1,0,-1
201 821 m 1,4,-1
 117 821 l 1,5,-1
 133 929 l 1,6,-1
 217 929 l 1,7,-1
 201 821 l 1,4,-1
347 821 m 1,8,-1
 263 821 l 1,9,-1
 279 929 l 1,10,-1
 363 929 l 1,11,-1
 347 821 l 1,8,-1
EndSplineSet
EndChar

StartChar: Eth
Encoding: 208 208 145
Width: 692
GlyphClass: 2
Flags: W
AnchorPoint: "Anchor-5" -46 0 basechar 0
AnchorPoint: "Anchor-4" -46 0 basechar 0
AnchorPoint: "Anchor-3" 300 723 basechar 0
AnchorPoint: "Anchor-2" -46 0 basechar 0
LayerCount: 2
Fore
SplineSet
591.5 631 m 128,-1,1
 669 542 669 542 644 366 c 0,2,3
 618 183 618 183 510.5 91.5 c 128,-1,4
 403 0 403 0 207 0 c 2,5,-1
 55 0 l 1,6,-1
 101 327 l 1,7,-1
 45 327 l 2,8,9
 36 327 36 327 33.5 330 c 128,-1,10
 31 333 31 333 32 341 c 2,11,-1
 38 384 l 2,12,13
 40 396 40 396 50 396 c 2,14,-1
 111 396 l 1,15,-1
 157 723 l 1,16,17
 258 723 258 723 319 722 c 0,18,0
 514 720 514 720 591.5 631 c 128,-1,1
448.5 143 m 128,-1,20
 533 211 533 211 554 364 c 0,21,22
 576 518 576 518 511.5 583 c 128,-1,23
 447 648 447 648 302 648 c 2,24,-1
 235 648 l 1,25,-1
 200 396 l 1,26,-1
 359 396 l 2,27,28
 369 396 369 396 367 385 c 2,29,-1
 361 342 l 2,30,31
 359 327 359 327 341 327 c 2,32,-1
 190 327 l 1,33,-1
 155 75 l 1,34,-1
 218 75 l 2,35,19
 364 75 364 75 448.5 143 c 128,-1,20
EndSplineSet
EndChar

StartChar: Ntilde
Encoding: 209 209 146
Width: 746
GlyphClass: 2
Flags: W
AnchorPoint: "Anchor-5" -46 0 basechar 0
AnchorPoint: "Anchor-4" 310 0 basechar 0
AnchorPoint: "Anchor-3" 337 723 basechar 0
AnchorPoint: "Anchor-2" -46 0 basechar 0
LayerCount: 2
Fore
SplineSet
698 723 m 1,0,-1
 596 0 l 1,1,-1
 520 0 l 1,2,-1
 208 579 l 1,3,-1
 126 0 l 1,4,-1
 40 0 l 1,5,-1
 142 723 l 1,6,-1
 223 723 l 1,7,-1
 532 151 l 1,8,-1
 612 723 l 1,9,-1
 698 723 l 1,0,-1
548 843 m 0,10,11
 529 843 529 843 515 846.5 c 128,-1,12
 501 850 501 850 482 857 c 0,13,14
 470 862 470 862 455.5 865.5 c 128,-1,15
 441 869 441 869 426 869 c 0,16,17
 410 869 410 869 398.5 865 c 128,-1,18
 387 861 387 861 377.5 855.5 c 128,-1,19
 368 850 368 850 364 848 c 0,20,21
 360 845 360 845 357 845 c 0,22,23
 353 845 353 845 351 853 c 2,24,-1
 346 880 l 2,25,26
 345 884 345 884 345 886 c 0,27,28
 346 890 346 890 351 894 c 0,29,30
 373 909 373 909 390 916.5 c 128,-1,31
 407 924 407 924 430 924 c 0,32,33
 447 924 447 924 461.5 920.5 c 128,-1,34
 476 917 476 917 497 910 c 0,35,36
 532 897 532 897 556 897 c 0,37,38
 573 897 573 897 586.5 902 c 128,-1,39
 600 907 600 907 616 916 c 0,40,41
 620 919 620 919 624 919 c 128,-1,42
 628 919 628 919 630 912 c 2,43,-1
 636 880 l 1,44,-1
 636 876 l 2,45,46
 635 872 635 872 631 869 c 128,-1,47
 627 866 627 866 626 865 c 0,48,49
 592 843 592 843 548 843 c 0,10,11
EndSplineSet
EndChar

StartChar: Ograve
Encoding: 210 210 147
Width: 727
GlyphClass: 2
Flags: W
AnchorPoint: "Anchor-5" -46 0 basechar 0
AnchorPoint: "Anchor-4" 320 0 basechar 0
AnchorPoint: "Anchor-3" 319 723 basechar 0
AnchorPoint: "Anchor-2" 394 9 basechar 0
LayerCount: 2
Fore
SplineSet
152 33 m 128,-1,1
 88 76 88 76 62 159 c 128,-1,2
 36 242 36 242 53 359 c 0,3,4
 70 477 70 477 119.5 561 c 128,-1,5
 169 645 169 645 245 689 c 128,-1,6
 321 733 321 733 417 733 c 0,7,8
 512 733 512 733 575.5 689 c 128,-1,9
 639 645 639 645 664.5 561.5 c 128,-1,10
 690 478 690 478 674 360 c 0,11,12
 658 243 658 243 608.5 160 c 128,-1,13
 559 77 559 77 483.5 33.5 c 128,-1,14
 408 -10 408 -10 312 -10 c 128,-1,0
 216 -10 216 -10 152 33 c 128,-1,1
494 138 m 128,-1,16
 559 210 559 210 580 359 c 0,17,18
 601 510 601 510 556 584 c 128,-1,19
 511 658 511 658 407 658 c 0,20,21
 302 658 302 658 235 583.5 c 128,-1,22
 168 509 168 509 147 359 c 0,23,24
 126 211 126 211 172.5 138.5 c 128,-1,25
 219 66 219 66 324 66 c 128,-1,15
 429 66 429 66 494 138 c 128,-1,16
582 842 m 1,26,-1
 561 797 l 1,27,-1
 321 871 l 1,28,-1
 353 938 l 1,29,-1
 582 842 l 1,26,-1
EndSplineSet
EndChar

StartChar: Oacute
Encoding: 211 211 148
Width: 727
GlyphClass: 2
Flags: W
AnchorPoint: "Anchor-5" -46 0 basechar 0
AnchorPoint: "Anchor-4" 320 0 basechar 0
AnchorPoint: "Anchor-3" 319 723 basechar 0
AnchorPoint: "Anchor-2" 394 9 basechar 0
LayerCount: 2
Fore
SplineSet
152 33 m 128,-1,1
 88 76 88 76 62 159 c 128,-1,2
 36 242 36 242 53 359 c 0,3,4
 70 477 70 477 119.5 561 c 128,-1,5
 169 645 169 645 245 689 c 128,-1,6
 321 733 321 733 417 733 c 0,7,8
 512 733 512 733 575.5 689 c 128,-1,9
 639 645 639 645 664.5 561.5 c 128,-1,10
 690 478 690 478 674 360 c 0,11,12
 658 243 658 243 608.5 160 c 128,-1,13
 559 77 559 77 483.5 33.5 c 128,-1,14
 408 -10 408 -10 312 -10 c 128,-1,0
 216 -10 216 -10 152 33 c 128,-1,1
494 138 m 128,-1,16
 559 210 559 210 580 359 c 0,17,18
 601 510 601 510 556 584 c 128,-1,19
 511 658 511 658 407 658 c 0,20,21
 302 658 302 658 235 583.5 c 128,-1,22
 168 509 168 509 147 359 c 0,23,24
 126 211 126 211 172.5 138.5 c 128,-1,25
 219 66 219 66 324 66 c 128,-1,15
 429 66 429 66 494 138 c 128,-1,16
599 871 m 1,26,-1
 338 797 l 1,27,-1
 330 842 l 1,28,-1
 587 938 l 1,29,-1
 599 871 l 1,26,-1
EndSplineSet
EndChar

StartChar: Ocircumflex
Encoding: 212 212 149
Width: 727
GlyphClass: 2
Flags: W
AnchorPoint: "Anchor-5" -46 0 basechar 0
AnchorPoint: "Anchor-4" 320 0 basechar 0
AnchorPoint: "Anchor-3" 319 723 basechar 0
AnchorPoint: "Anchor-2" 394 9 basechar 0
LayerCount: 2
Fore
SplineSet
152 33 m 128,-1,1
 88 76 88 76 62 159 c 128,-1,2
 36 242 36 242 53 359 c 0,3,4
 70 477 70 477 119.5 561 c 128,-1,5
 169 645 169 645 245 689 c 128,-1,6
 321 733 321 733 417 733 c 0,7,8
 512 733 512 733 575.5 689 c 128,-1,9
 639 645 639 645 664.5 561.5 c 128,-1,10
 690 478 690 478 674 360 c 0,11,12
 658 243 658 243 608.5 160 c 128,-1,13
 559 77 559 77 483.5 33.5 c 128,-1,14
 408 -10 408 -10 312 -10 c 128,-1,0
 216 -10 216 -10 152 33 c 128,-1,1
494 138 m 128,-1,16
 559 210 559 210 580 359 c 0,17,18
 601 510 601 510 556 584 c 128,-1,19
 511 658 511 658 407 658 c 0,20,21
 302 658 302 658 235 583.5 c 128,-1,22
 168 509 168 509 147 359 c 0,23,24
 126 211 126 211 172.5 138.5 c 128,-1,25
 219 66 219 66 324 66 c 128,-1,15
 429 66 429 66 494 138 c 128,-1,16
472 886 m 1,26,-1
 387 820 l 1,27,-1
 308 820 l 1,28,-1
 449 932 l 1,29,-1
 511 932 l 1,30,-1
 617 820 l 1,31,-1
 533 820 l 1,32,-1
 472 886 l 1,26,-1
EndSplineSet
EndChar

StartChar: Otilde
Encoding: 213 213 150
Width: 727
GlyphClass: 2
Flags: W
AnchorPoint: "Anchor-5" -46 0 basechar 0
AnchorPoint: "Anchor-4" 320 0 basechar 0
AnchorPoint: "Anchor-3" 319 723 basechar 0
AnchorPoint: "Anchor-2" 394 9 basechar 0
LayerCount: 2
Fore
SplineSet
152 33 m 128,-1,1
 88 76 88 76 62 159 c 128,-1,2
 36 242 36 242 53 359 c 0,3,4
 70 477 70 477 119.5 561 c 128,-1,5
 169 645 169 645 245 689 c 128,-1,6
 321 733 321 733 417 733 c 0,7,8
 512 733 512 733 575.5 689 c 128,-1,9
 639 645 639 645 664.5 561.5 c 128,-1,10
 690 478 690 478 674 360 c 0,11,12
 658 243 658 243 608.5 160 c 128,-1,13
 559 77 559 77 483.5 33.5 c 128,-1,14
 408 -10 408 -10 312 -10 c 128,-1,0
 216 -10 216 -10 152 33 c 128,-1,1
494 138 m 128,-1,16
 559 210 559 210 580 359 c 0,17,18
 601 510 601 510 556 584 c 128,-1,19
 511 658 511 658 407 658 c 0,20,21
 302 658 302 658 235 583.5 c 128,-1,22
 168 509 168 509 147 359 c 0,23,24
 126 211 126 211 172.5 138.5 c 128,-1,25
 219 66 219 66 324 66 c 128,-1,15
 429 66 429 66 494 138 c 128,-1,16
530 843 m 0,26,27
 511 843 511 843 497 846.5 c 128,-1,28
 483 850 483 850 464 857 c 0,29,30
 452 862 452 862 437.5 865.5 c 128,-1,31
 423 869 423 869 408 869 c 0,32,33
 392 869 392 869 380.5 865 c 128,-1,34
 369 861 369 861 359.5 855.5 c 128,-1,35
 350 850 350 850 346 848 c 0,36,37
 342 845 342 845 339 845 c 0,38,39
 335 845 335 845 333 853 c 2,40,-1
 328 880 l 2,41,42
 327 884 327 884 327 886 c 0,43,44
 328 890 328 890 333 894 c 0,45,46
 355 909 355 909 372 916.5 c 128,-1,47
 389 924 389 924 412 924 c 0,48,49
 429 924 429 924 443.5 920.5 c 128,-1,50
 458 917 458 917 479 910 c 0,51,52
 514 897 514 897 538 897 c 0,53,54
 555 897 555 897 568.5 902 c 128,-1,55
 582 907 582 907 598 916 c 0,56,57
 602 919 602 919 606 919 c 128,-1,58
 610 919 610 919 612 912 c 2,59,-1
 618 880 l 1,60,-1
 618 876 l 2,61,62
 617 872 617 872 613 869 c 128,-1,63
 609 866 609 866 608 865 c 0,64,65
 574 843 574 843 530 843 c 0,26,27
EndSplineSet
EndChar

StartChar: Odieresis
Encoding: 214 214 151
Width: 727
GlyphClass: 2
Flags: W
AnchorPoint: "Anchor-5" -46 0 basechar 0
AnchorPoint: "Anchor-4" 320 0 basechar 0
AnchorPoint: "Anchor-3" 319 723 basechar 0
AnchorPoint: "Anchor-2" 394 9 basechar 0
LayerCount: 2
Fore
SplineSet
152 33 m 128,-1,1
 88 76 88 76 62 159 c 128,-1,2
 36 242 36 242 53 359 c 0,3,4
 70 477 70 477 119.5 561 c 128,-1,5
 169 645 169 645 245 689 c 128,-1,6
 321 733 321 733 417 733 c 0,7,8
 512 733 512 733 575.5 689 c 128,-1,9
 639 645 639 645 664.5 561.5 c 128,-1,10
 690 478 690 478 674 360 c 0,11,12
 658 243 658 243 608.5 160 c 128,-1,13
 559 77 559 77 483.5 33.5 c 128,-1,14
 408 -10 408 -10 312 -10 c 128,-1,0
 216 -10 216 -10 152 33 c 128,-1,1
494 138 m 128,-1,16
 559 210 559 210 580 359 c 0,17,18
 601 510 601 510 556 584 c 128,-1,19
 511 658 511 658 407 658 c 0,20,21
 302 658 302 658 235 583.5 c 128,-1,22
 168 509 168 509 147 359 c 0,23,24
 126 211 126 211 172.5 138.5 c 128,-1,25
 219 66 219 66 324 66 c 128,-1,15
 429 66 429 66 494 138 c 128,-1,16
425 821 m 1,26,-1
 341 821 l 1,27,-1
 357 929 l 1,28,-1
 441 929 l 1,29,-1
 425 821 l 1,26,-1
571 821 m 1,30,-1
 487 821 l 1,31,-1
 503 929 l 1,32,-1
 587 929 l 1,33,-1
 571 821 l 1,30,-1
EndSplineSet
EndChar

StartChar: multiply
Encoding: 215 215 152
Width: 530
GlyphClass: 2
Flags: W
LayerCount: 2
Fore
SplineSet
314 364 m 1,0,-1
 449 207 l 1,1,-1
 394 158 l 1,2,-1
 259 315 l 1,3,-1
 81 158 l 1,4,-1
 40 207 l 1,5,-1
 218 363 l 1,6,-1
 83 520 l 1,7,-1
 137 568 l 1,8,-1
 272 411 l 1,9,-1
 451 569 l 1,10,-1
 493 522 l 1,11,-1
 314 364 l 1,0,-1
EndSplineSet
EndChar

StartChar: Oslash
Encoding: 216 216 153
Width: 718
GlyphClass: 2
Flags: W
AnchorPoint: "Anchor-5" -46 0 basechar 0
AnchorPoint: "Anchor-4" -46 0 basechar 0
AnchorPoint: "Anchor-3" 313 723 basechar 0
AnchorPoint: "Anchor-2" -46 0 basechar 0
LayerCount: 2
Fore
SplineSet
746 697 m 1,0,-1
 744 697 l 2,1,2
 749 694 749 694 748 689 c 0,3,4
 747 685 747 685 744 682 c 2,5,-1
 651 592 l 1,6,7
 691 503 691 503 672 360 c 0,8,9
 656 243 656 243 606.5 160 c 128,-1,10
 557 77 557 77 481.5 33.5 c 128,-1,11
 406 -10 406 -10 310 -10 c 0,12,13
 174 -10 174 -10 107 74 c 1,14,-1
 29 0 l 2,15,16
 22 -8 22 -8 16 -8 c 0,17,18
 12 -8 12 -8 4 -1 c 2,19,-1
 -17 22 l 2,20,21
 -24 30 -24 30 -23 34 c 0,22,23
 -23 36 -23 36 -18 42 c 2,24,-1
 71 128 l 1,25,26
 31 220 31 220 51 359 c 0,27,28
 68 477 68 477 117.5 561 c 128,-1,29
 167 645 167 645 243 689 c 128,-1,30
 319 733 319 733 415 733 c 0,31,32
 549 733 549 733 618 647 c 1,33,-1
 699 725 l 2,34,35
 712 736 712 736 718 728 c 2,36,-1
 746 697 l 1,0,-1
157 206 m 1,37,-1
 546 584 l 1,38,39
 506 659 506 659 403 659 c 0,40,41
 298 659 298 659 236 585 c 128,-1,42
 174 511 174 511 153 359 c 0,43,44
 140 267 140 267 157 206 c 1,37,-1
561 514 m 1,45,-1
 173 137 l 1,46,47
 214 65 214 65 319 65 c 0,48,49
 423 65 423 65 483.5 136.5 c 128,-1,50
 544 208 544 208 566 359 c 0,51,52
 578 451 578 451 561 514 c 1,45,-1
EndSplineSet
EndChar

StartChar: Ugrave
Encoding: 217 217 154
Width: 713
GlyphClass: 2
Flags: W
AnchorPoint: "Anchor-5" -46 0 basechar 0
AnchorPoint: "Anchor-4" -46 0 basechar 0
AnchorPoint: "Anchor-3" 307 723 basechar 0
AnchorPoint: "Anchor-2" 383 10 basechar 0
LayerCount: 2
Fore
SplineSet
507.5 55 m 128,-1,1
 435 -10 435 -10 300 -10 c 0,2,3
 164 -10 164 -10 111 57 c 128,-1,4
 58 124 58 124 77 257 c 2,5,-1
 142 723 l 1,6,-1
 231 723 l 1,7,-1
 164 243 l 2,8,9
 152 155 152 155 189.5 110.5 c 128,-1,10
 227 66 227 66 311 66 c 0,11,12
 396 66 396 66 447 110 c 128,-1,13
 498 154 498 154 511 243 c 2,14,-1
 578 723 l 1,15,-1
 665 723 l 1,16,-1
 598 247 l 2,17,0
 580 120 580 120 507.5 55 c 128,-1,1
570 842 m 1,18,-1
 549 797 l 1,19,-1
 309 871 l 1,20,-1
 341 938 l 1,21,-1
 570 842 l 1,18,-1
EndSplineSet
EndChar

StartChar: Uacute
Encoding: 218 218 155
Width: 713
GlyphClass: 2
Flags: W
AnchorPoint: "Anchor-5" -46 0 basechar 0
AnchorPoint: "Anchor-4" -46 0 basechar 0
AnchorPoint: "Anchor-3" 307 723 basechar 0
AnchorPoint: "Anchor-2" 383 10 basechar 0
LayerCount: 2
Fore
SplineSet
507.5 55 m 128,-1,1
 435 -10 435 -10 300 -10 c 0,2,3
 164 -10 164 -10 111 57 c 128,-1,4
 58 124 58 124 77 257 c 2,5,-1
 142 723 l 1,6,-1
 231 723 l 1,7,-1
 164 243 l 2,8,9
 152 155 152 155 189.5 110.5 c 128,-1,10
 227 66 227 66 311 66 c 0,11,12
 396 66 396 66 447 110 c 128,-1,13
 498 154 498 154 511 243 c 2,14,-1
 578 723 l 1,15,-1
 665 723 l 1,16,-1
 598 247 l 2,17,0
 580 120 580 120 507.5 55 c 128,-1,1
587 871 m 1,18,-1
 326 797 l 1,19,-1
 318 842 l 1,20,-1
 575 938 l 1,21,-1
 587 871 l 1,18,-1
EndSplineSet
EndChar

StartChar: Ucircumflex
Encoding: 219 219 156
Width: 713
GlyphClass: 2
Flags: W
AnchorPoint: "Anchor-5" -46 0 basechar 0
AnchorPoint: "Anchor-4" -46 0 basechar 0
AnchorPoint: "Anchor-3" 307 723 basechar 0
AnchorPoint: "Anchor-2" 383 10 basechar 0
LayerCount: 2
Fore
SplineSet
507.5 55 m 128,-1,1
 435 -10 435 -10 300 -10 c 0,2,3
 164 -10 164 -10 111 57 c 128,-1,4
 58 124 58 124 77 257 c 2,5,-1
 142 723 l 1,6,-1
 231 723 l 1,7,-1
 164 243 l 2,8,9
 152 155 152 155 189.5 110.5 c 128,-1,10
 227 66 227 66 311 66 c 0,11,12
 396 66 396 66 447 110 c 128,-1,13
 498 154 498 154 511 243 c 2,14,-1
 578 723 l 1,15,-1
 665 723 l 1,16,-1
 598 247 l 2,17,0
 580 120 580 120 507.5 55 c 128,-1,1
460 886 m 1,18,-1
 375 820 l 1,19,-1
 296 820 l 1,20,-1
 437 932 l 1,21,-1
 499 932 l 1,22,-1
 605 820 l 1,23,-1
 521 820 l 1,24,-1
 460 886 l 1,18,-1
EndSplineSet
EndChar

StartChar: Udieresis
Encoding: 220 220 157
Width: 713
GlyphClass: 2
Flags: W
AnchorPoint: "Anchor-5" -46 0 basechar 0
AnchorPoint: "Anchor-4" -46 0 basechar 0
AnchorPoint: "Anchor-3" 307 723 basechar 0
AnchorPoint: "Anchor-2" 383 10 basechar 0
LayerCount: 2
Fore
SplineSet
507.5 55 m 128,-1,1
 435 -10 435 -10 300 -10 c 0,2,3
 164 -10 164 -10 111 57 c 128,-1,4
 58 124 58 124 77 257 c 2,5,-1
 142 723 l 1,6,-1
 231 723 l 1,7,-1
 164 243 l 2,8,9
 152 155 152 155 189.5 110.5 c 128,-1,10
 227 66 227 66 311 66 c 0,11,12
 396 66 396 66 447 110 c 128,-1,13
 498 154 498 154 511 243 c 2,14,-1
 578 723 l 1,15,-1
 665 723 l 1,16,-1
 598 247 l 2,17,0
 580 120 580 120 507.5 55 c 128,-1,1
413 821 m 1,18,-1
 329 821 l 1,19,-1
 345 929 l 1,20,-1
 429 929 l 1,21,-1
 413 821 l 1,18,-1
559 821 m 1,22,-1
 475 821 l 1,23,-1
 491 929 l 1,24,-1
 575 929 l 1,25,-1
 559 821 l 1,22,-1
EndSplineSet
EndChar

StartChar: Yacute
Encoding: 221 221 158
Width: 590
GlyphClass: 2
Flags: W
AnchorPoint: "Anchor-5" -46 0 basechar 0
AnchorPoint: "Anchor-4" -46 0 basechar 0
AnchorPoint: "Anchor-3" 254 723 basechar 0
AnchorPoint: "Anchor-2" -46 0 basechar 0
LayerCount: 2
Fore
SplineSet
336 308 m 1,0,-1
 292 0 l 1,1,-1
 206 0 l 1,2,-1
 250 309 l 1,3,-1
 62 723 l 1,4,-1
 156 723 l 1,5,-1
 305 386 l 1,6,-1
 544 723 l 1,7,-1
 638 723 l 1,8,-1
 336 308 l 1,0,-1
534 871 m 1,9,-1
 273 797 l 1,10,-1
 265 842 l 1,11,-1
 522 938 l 1,12,-1
 534 871 l 1,9,-1
EndSplineSet
EndChar

StartChar: Thorn
Encoding: 222 222 159
Width: 653
GlyphClass: 2
Flags: W
LayerCount: 2
Fore
SplineSet
535 217.5 m 128,-1,1
 458 165 458 165 340 165 c 2,2,-1
 162 165 l 1,3,-1
 138 0 l 1,4,-1
 40 0 l 1,5,-1
 142 723 l 1,6,-1
 240 723 l 1,7,-1
 219 573 l 1,8,-1
 385 573 l 2,9,10
 507 573 507 573 574 523 c 128,-1,11
 641 473 641 473 627 375 c 0,12,0
 612 270 612 270 535 217.5 c 128,-1,1
370 499 m 2,13,-1
 209 499 l 1,14,-1
 172 239 l 1,15,-1
 340 239 l 2,16,17
 419 239 419 239 468 273 c 128,-1,18
 517 307 517 307 526 376 c 0,19,20
 544 499 544 499 370 499 c 2,13,-1
EndSplineSet
EndChar

StartChar: germandbls
Encoding: 223 223 160
Width: 600
GlyphClass: 2
Flags: W
LayerCount: 2
Fore
SplineSet
495 684 m 128,-1,1
 532 645 532 645 523 586 c 0,2,3
 518 550 518 550 500.5 526 c 128,-1,4
 483 502 483 502 456.5 485.5 c 128,-1,5
 430 469 430 469 386 450 c 0,6,7
 348 431 348 431 335.5 421 c 128,-1,8
 323 411 323 411 320 394 c 0,9,10
 318 377 318 377 328 369 c 128,-1,11
 338 361 338 361 370 350 c 0,12,13
 426 328 426 328 459 310 c 128,-1,14
 492 292 492 292 515.5 255 c 128,-1,15
 539 218 539 218 530 160 c 0,16,17
 519 79 519 79 458 34.5 c 128,-1,18
 397 -10 397 -10 311 -10 c 0,19,20
 274 -10 274 -10 237.5 -0.5 c 128,-1,21
 201 9 201 9 179 25 c 1,22,-1
 219 83 l 1,23,24
 242 68 242 68 262.5 60 c 128,-1,25
 283 52 283 52 313 52 c 0,26,27
 369 52 369 52 405.5 78.5 c 128,-1,28
 442 105 442 105 448 152 c 0,29,30
 453 185 453 185 439.5 206.5 c 128,-1,31
 426 228 426 228 403 240.5 c 128,-1,32
 380 253 380 253 340 268 c 0,33,34
 292 286 292 286 267 309 c 128,-1,35
 242 332 242 332 248 379 c 0,36,37
 253 414 253 414 277 439 c 128,-1,38
 301 464 301 464 349 489 c 0,39,40
 356 493 356 493 382.5 508 c 128,-1,41
 409 523 409 523 424 541.5 c 128,-1,42
 439 560 439 560 442 584 c 0,43,44
 447 619 447 619 424 640 c 128,-1,45
 401 661 401 661 354 661 c 0,46,47
 295 661 295 661 255 625 c 128,-1,48
 215 589 215 589 205 522 c 2,49,-1
 132 0 l 1,50,-1
 47 0 l 1,51,-1
 109 444 l 1,52,-1
 41 444 l 1,53,-1
 50 507 l 1,54,-1
 117 507 l 1,55,56
 133 605 133 605 199 664 c 128,-1,57
 265 723 265 723 371 723 c 0,58,0
 458 723 458 723 495 684 c 128,-1,1
EndSplineSet
EndChar

StartChar: agrave
Encoding: 224 224 161
Width: 559
GlyphClass: 2
Flags: W
AnchorPoint: "Anchor-5" -46 0 basechar 0
AnchorPoint: "Anchor-4" -46 0 basechar 0
AnchorPoint: "Anchor-3" 233 517 basechar 0
AnchorPoint: "Anchor-2" 421 13 basechar 0
LayerCount: 2
Fore
SplineSet
466 0 m 1,0,-1
 380 0 l 1,1,-1
 466 0 l 1,0,-1
380 0 m 1,2,-1
 387 49 l 1,3,4
 346 17 346 17 307.5 3.5 c 128,-1,5
 269 -10 269 -10 228 -10 c 0,6,7
 161 -10 161 -10 114.5 22.5 c 128,-1,8
 68 55 68 55 48 117.5 c 128,-1,9
 28 180 28 180 40 266 c 0,10,11
 52 351 52 351 89 410 c 128,-1,12
 126 469 126 469 178.5 498 c 128,-1,13
 231 527 231 527 293 527 c 0,14,15
 334 527 334 527 364 514 c 128,-1,16
 394 501 394 501 408.5 488 c 128,-1,17
 423 475 423 475 444 451 c 1,18,-1
 454 517 l 1,19,-1
 539 517 l 1,20,-1
 466 0 l 1,21,-1
 380 0 l 1,2,-1
401 150 m 1,22,-1
 426 328 l 2,23,24
 431 362 431 362 418 393 c 128,-1,25
 405 424 405 424 376.5 443 c 128,-1,26
 348 462 348 462 309 462 c 0,27,28
 243 462 243 462 192.5 411.5 c 128,-1,29
 142 361 142 361 128 264 c 0,30,31
 119 200 119 200 133 152.5 c 128,-1,32
 147 105 147 105 179.5 79.5 c 128,-1,33
 212 54 212 54 258 54 c 0,34,35
 333 54 333 54 401 150 c 1,22,-1
467 636 m 1,36,-1
 446 591 l 1,37,-1
 206 665 l 1,38,-1
 238 732 l 1,39,-1
 467 636 l 1,36,-1
EndSplineSet
EndChar

StartChar: aacute
Encoding: 225 225 162
Width: 559
GlyphClass: 2
Flags: W
AnchorPoint: "Anchor-5" -46 0 basechar 0
AnchorPoint: "Anchor-4" -46 0 basechar 0
AnchorPoint: "Anchor-3" 233 517 basechar 0
AnchorPoint: "Anchor-2" 421 13 basechar 0
LayerCount: 2
Fore
SplineSet
466 0 m 1,0,-1
 380 0 l 1,1,-1
 466 0 l 1,0,-1
380 0 m 1,2,-1
 387 49 l 1,3,4
 346 17 346 17 307.5 3.5 c 128,-1,5
 269 -10 269 -10 228 -10 c 0,6,7
 161 -10 161 -10 114.5 22.5 c 128,-1,8
 68 55 68 55 48 117.5 c 128,-1,9
 28 180 28 180 40 266 c 0,10,11
 52 351 52 351 89 410 c 128,-1,12
 126 469 126 469 178.5 498 c 128,-1,13
 231 527 231 527 293 527 c 0,14,15
 334 527 334 527 364 514 c 128,-1,16
 394 501 394 501 408.5 488 c 128,-1,17
 423 475 423 475 444 451 c 1,18,-1
 454 517 l 1,19,-1
 539 517 l 1,20,-1
 466 0 l 1,21,-1
 380 0 l 1,2,-1
401 150 m 1,22,-1
 426 328 l 2,23,24
 431 362 431 362 418 393 c 128,-1,25
 405 424 405 424 376.5 443 c 128,-1,26
 348 462 348 462 309 462 c 0,27,28
 243 462 243 462 192.5 411.5 c 128,-1,29
 142 361 142 361 128 264 c 0,30,31
 119 200 119 200 133 152.5 c 128,-1,32
 147 105 147 105 179.5 79.5 c 128,-1,33
 212 54 212 54 258 54 c 0,34,35
 333 54 333 54 401 150 c 1,22,-1
484 665 m 1,36,-1
 223 591 l 1,37,-1
 215 636 l 1,38,-1
 472 732 l 1,39,-1
 484 665 l 1,36,-1
EndSplineSet
EndChar

StartChar: acircumflex
Encoding: 226 226 163
Width: 559
GlyphClass: 2
Flags: W
AnchorPoint: "Anchor-5" -46 0 basechar 0
AnchorPoint: "Anchor-4" -46 0 basechar 0
AnchorPoint: "Anchor-3" 233 517 basechar 0
AnchorPoint: "Anchor-2" 421 13 basechar 0
LayerCount: 2
Fore
SplineSet
466 0 m 1,0,-1
 380 0 l 1,1,-1
 466 0 l 1,0,-1
380 0 m 1,2,-1
 387 49 l 1,3,4
 346 17 346 17 307.5 3.5 c 128,-1,5
 269 -10 269 -10 228 -10 c 0,6,7
 161 -10 161 -10 114.5 22.5 c 128,-1,8
 68 55 68 55 48 117.5 c 128,-1,9
 28 180 28 180 40 266 c 0,10,11
 52 351 52 351 89 410 c 128,-1,12
 126 469 126 469 178.5 498 c 128,-1,13
 231 527 231 527 293 527 c 0,14,15
 334 527 334 527 364 514 c 128,-1,16
 394 501 394 501 408.5 488 c 128,-1,17
 423 475 423 475 444 451 c 1,18,-1
 454 517 l 1,19,-1
 539 517 l 1,20,-1
 466 0 l 1,21,-1
 380 0 l 1,2,-1
401 150 m 1,22,-1
 426 328 l 2,23,24
 431 362 431 362 418 393 c 128,-1,25
 405 424 405 424 376.5 443 c 128,-1,26
 348 462 348 462 309 462 c 0,27,28
 243 462 243 462 192.5 411.5 c 128,-1,29
 142 361 142 361 128 264 c 0,30,31
 119 200 119 200 133 152.5 c 128,-1,32
 147 105 147 105 179.5 79.5 c 128,-1,33
 212 54 212 54 258 54 c 0,34,35
 333 54 333 54 401 150 c 1,22,-1
357 680 m 1,36,-1
 272 614 l 1,37,-1
 193 614 l 1,38,-1
 334 726 l 1,39,-1
 396 726 l 1,40,-1
 502 614 l 1,41,-1
 418 614 l 1,42,-1
 357 680 l 1,36,-1
EndSplineSet
EndChar

StartChar: atilde
Encoding: 227 227 164
Width: 559
GlyphClass: 2
Flags: W
AnchorPoint: "Anchor-5" -46 0 basechar 0
AnchorPoint: "Anchor-4" -46 0 basechar 0
AnchorPoint: "Anchor-3" 233 517 basechar 0
AnchorPoint: "Anchor-2" 421 13 basechar 0
LayerCount: 2
Fore
SplineSet
466 0 m 1,0,-1
 380 0 l 1,1,-1
 466 0 l 1,0,-1
380 0 m 1,2,-1
 387 49 l 1,3,4
 346 17 346 17 307.5 3.5 c 128,-1,5
 269 -10 269 -10 228 -10 c 0,6,7
 161 -10 161 -10 114.5 22.5 c 128,-1,8
 68 55 68 55 48 117.5 c 128,-1,9
 28 180 28 180 40 266 c 0,10,11
 52 351 52 351 89 410 c 128,-1,12
 126 469 126 469 178.5 498 c 128,-1,13
 231 527 231 527 293 527 c 0,14,15
 334 527 334 527 364 514 c 128,-1,16
 394 501 394 501 408.5 488 c 128,-1,17
 423 475 423 475 444 451 c 1,18,-1
 454 517 l 1,19,-1
 539 517 l 1,20,-1
 466 0 l 1,21,-1
 380 0 l 1,2,-1
401 150 m 1,22,-1
 426 328 l 2,23,24
 431 362 431 362 418 393 c 128,-1,25
 405 424 405 424 376.5 443 c 128,-1,26
 348 462 348 462 309 462 c 0,27,28
 243 462 243 462 192.5 411.5 c 128,-1,29
 142 361 142 361 128 264 c 0,30,31
 119 200 119 200 133 152.5 c 128,-1,32
 147 105 147 105 179.5 79.5 c 128,-1,33
 212 54 212 54 258 54 c 0,34,35
 333 54 333 54 401 150 c 1,22,-1
415 637 m 0,36,37
 396 637 396 637 382 640.5 c 128,-1,38
 368 644 368 644 349 651 c 0,39,40
 337 656 337 656 322.5 659.5 c 128,-1,41
 308 663 308 663 293 663 c 0,42,43
 277 663 277 663 265.5 659 c 128,-1,44
 254 655 254 655 244.5 649.5 c 128,-1,45
 235 644 235 644 231 642 c 0,46,47
 227 639 227 639 224 639 c 0,48,49
 220 639 220 639 218 647 c 2,50,-1
 213 674 l 2,51,52
 212 678 212 678 212 680 c 0,53,54
 213 684 213 684 218 688 c 0,55,56
 240 703 240 703 257 710.5 c 128,-1,57
 274 718 274 718 297 718 c 0,58,59
 314 718 314 718 328.5 714.5 c 128,-1,60
 343 711 343 711 364 704 c 0,61,62
 399 691 399 691 423 691 c 0,63,64
 440 691 440 691 453.5 696 c 128,-1,65
 467 701 467 701 483 710 c 0,66,67
 487 713 487 713 491 713 c 128,-1,68
 495 713 495 713 497 706 c 2,69,-1
 503 674 l 1,70,-1
 503 670 l 2,71,72
 502 666 502 666 498 663 c 128,-1,73
 494 660 494 660 493 659 c 0,74,75
 459 637 459 637 415 637 c 0,36,37
EndSplineSet
EndChar

StartChar: adieresis
Encoding: 228 228 165
Width: 559
GlyphClass: 2
Flags: W
AnchorPoint: "Anchor-5" -46 0 basechar 0
AnchorPoint: "Anchor-4" -46 0 basechar 0
AnchorPoint: "Anchor-3" 233 517 basechar 0
AnchorPoint: "Anchor-2" 421 13 basechar 0
LayerCount: 2
Fore
SplineSet
466 0 m 1,0,-1
 380 0 l 1,1,-1
 466 0 l 1,0,-1
380 0 m 1,2,-1
 387 49 l 1,3,4
 346 17 346 17 307.5 3.5 c 128,-1,5
 269 -10 269 -10 228 -10 c 0,6,7
 161 -10 161 -10 114.5 22.5 c 128,-1,8
 68 55 68 55 48 117.5 c 128,-1,9
 28 180 28 180 40 266 c 0,10,11
 52 351 52 351 89 410 c 128,-1,12
 126 469 126 469 178.5 498 c 128,-1,13
 231 527 231 527 293 527 c 0,14,15
 334 527 334 527 364 514 c 128,-1,16
 394 501 394 501 408.5 488 c 128,-1,17
 423 475 423 475 444 451 c 1,18,-1
 454 517 l 1,19,-1
 539 517 l 1,20,-1
 466 0 l 1,21,-1
 380 0 l 1,2,-1
401 150 m 1,22,-1
 426 328 l 2,23,24
 431 362 431 362 418 393 c 128,-1,25
 405 424 405 424 376.5 443 c 128,-1,26
 348 462 348 462 309 462 c 0,27,28
 243 462 243 462 192.5 411.5 c 128,-1,29
 142 361 142 361 128 264 c 0,30,31
 119 200 119 200 133 152.5 c 128,-1,32
 147 105 147 105 179.5 79.5 c 128,-1,33
 212 54 212 54 258 54 c 0,34,35
 333 54 333 54 401 150 c 1,22,-1
310 615 m 1,36,-1
 226 615 l 1,37,-1
 242 723 l 1,38,-1
 326 723 l 1,39,-1
 310 615 l 1,36,-1
456 615 m 1,40,-1
 372 615 l 1,41,-1
 388 723 l 1,42,-1
 472 723 l 1,43,-1
 456 615 l 1,40,-1
EndSplineSet
EndChar

StartChar: aring
Encoding: 229 229 166
Width: 559
GlyphClass: 2
Flags: W
AnchorPoint: "Anchor-5" -46 0 basechar 0
AnchorPoint: "Anchor-4" -46 0 basechar 0
AnchorPoint: "Anchor-3" 233 517 basechar 0
AnchorPoint: "Anchor-2" 421 13 basechar 0
LayerCount: 2
Fore
SplineSet
466 0 m 1,0,-1
 380 0 l 1,1,-1
 466 0 l 1,0,-1
380 0 m 1,2,-1
 387 49 l 1,3,4
 346 17 346 17 307.5 3.5 c 128,-1,5
 269 -10 269 -10 228 -10 c 0,6,7
 161 -10 161 -10 114.5 22.5 c 128,-1,8
 68 55 68 55 48 117.5 c 128,-1,9
 28 180 28 180 40 266 c 0,10,11
 52 351 52 351 89 410 c 128,-1,12
 126 469 126 469 178.5 498 c 128,-1,13
 231 527 231 527 293 527 c 0,14,15
 334 527 334 527 364 514 c 128,-1,16
 394 501 394 501 408.5 488 c 128,-1,17
 423 475 423 475 444 451 c 1,18,-1
 454 517 l 1,19,-1
 539 517 l 1,20,-1
 466 0 l 1,21,-1
 380 0 l 1,2,-1
401 150 m 1,22,-1
 426 328 l 2,23,24
 431 362 431 362 418 393 c 128,-1,25
 405 424 405 424 376.5 443 c 128,-1,26
 348 462 348 462 309 462 c 0,27,28
 243 462 243 462 192.5 411.5 c 128,-1,29
 142 361 142 361 128 264 c 0,30,31
 119 200 119 200 133 152.5 c 128,-1,32
 147 105 147 105 179.5 79.5 c 128,-1,33
 212 54 212 54 258 54 c 0,34,35
 333 54 333 54 401 150 c 1,22,-1
411.5 607.5 m 128,-1,37
 378 578 378 578 334 578 c 0,38,39
 291 578 291 578 265.5 608 c 128,-1,40
 240 638 240 638 246 682 c 0,41,42
 252 723 252 723 286 752 c 128,-1,43
 320 781 320 781 362 781 c 0,44,45
 405 781 405 781 431 751.5 c 128,-1,46
 457 722 457 722 451 680 c 0,47,36
 445 637 445 637 411.5 607.5 c 128,-1,37
390.5 718 m 128,-1,49
 377 733 377 733 354 733 c 0,50,51
 332 733 332 733 314 717.5 c 128,-1,52
 296 702 296 702 293 679 c 0,53,54
 290 657 290 657 303.5 640.5 c 128,-1,55
 317 624 317 624 339 624 c 128,-1,56
 361 624 361 624 379.5 640.5 c 128,-1,57
 398 657 398 657 401 679 c 0,58,48
 404 703 404 703 390.5 718 c 128,-1,49
EndSplineSet
EndChar

StartChar: ae
Encoding: 230 230 167
Width: 924
GlyphClass: 2
Flags: W
AnchorPoint: "Anchor-5" -46 0 basechar 0
AnchorPoint: "Anchor-4" -46 0 basechar 0
AnchorPoint: "Anchor-3" 408 517 basechar 0
AnchorPoint: "Anchor-2" -46 0 basechar 0
LayerCount: 2
Fore
SplineSet
478.5 150.5 m 128,-1,1
 495 108 495 108 529.5 81.5 c 128,-1,2
 564 55 564 55 609 55 c 0,3,4
 666 55 666 55 704 77.5 c 128,-1,5
 742 100 742 100 780 142 c 1,6,-1
 833 112 l 1,7,8
 790 52 790 52 728.5 21 c 128,-1,9
 667 -10 667 -10 591 -10 c 0,10,11
 519 -10 519 -10 476 20 c 128,-1,12
 433 50 433 50 405 94 c 0,13,14
 403 97 403 97 402.5 97 c 128,-1,15
 402 97 402 97 399 94 c 0,16,17
 350 47 350 47 297.5 18.5 c 128,-1,18
 245 -10 245 -10 167 -10 c 0,19,20
 90 -10 90 -10 52 29 c 128,-1,21
 14 68 14 68 23 135 c 0,22,23
 34 210 34 210 102 254 c 128,-1,24
 170 298 170 298 294 307 c 2,25,-1
 396 315 l 1,26,-1
 402 354 l 2,27,28
 409 406 409 406 381.5 435.5 c 128,-1,29
 354 465 354 465 295 465 c 0,30,31
 209 465 209 465 142 379 c 1,32,-1
 74 404 l 1,33,34
 156 527 156 527 311 527 c 0,35,36
 447 527 447 527 472 433 c 1,37,38
 545 527 545 527 667 527 c 0,39,40
 737 527 737 527 786 493 c 128,-1,41
 835 459 835 459 855 394.5 c 128,-1,42
 875 330 875 330 863 241 c 1,43,-1
 469 240 l 1,44,0
 462 193 462 193 478.5 150.5 c 128,-1,1
577 445 m 128,-1,46
 539 424 539 424 512.5 385.5 c 128,-1,47
 486 347 486 347 479 296 c 1,48,-1
 784 295 l 1,49,50
 790 340 790 340 777.5 379 c 128,-1,51
 765 418 765 418 734 442 c 128,-1,52
 703 466 703 466 659 466 c 128,-1,45
 615 466 615 466 577 445 c 128,-1,46
304 254 m 2,53,54
 216 247 216 247 166.5 218.5 c 128,-1,55
 117 190 117 190 110 140 c 0,56,57
 104 100 104 100 127.5 75.5 c 128,-1,58
 151 51 151 51 198 51 c 0,59,60
 241 51 241 51 280.5 66.5 c 128,-1,61
 320 82 320 82 345.5 109 c 128,-1,62
 371 136 371 136 376 168 c 2,63,-1
 389 260 l 1,64,-1
 304 254 l 2,53,54
EndSplineSet
EndChar

StartChar: ccedilla
Encoding: 231 231 168
Width: 537
GlyphClass: 2
Flags: W
AnchorPoint: "Anchor-5" -46 0 basechar 0
AnchorPoint: "Anchor-4" 239 0 basechar 0
AnchorPoint: "Anchor-3" 238 517 basechar 0
AnchorPoint: "Anchor-2" -46 0 basechar 0
LayerCount: 2
Fore
SplineSet
491 382 m 1,0,-1
 418 368 l 1,1,2
 391 417 391 417 368.5 437 c 128,-1,3
 346 457 346 457 306 457 c 0,4,5
 234 457 234 457 184.5 403.5 c 128,-1,6
 135 350 135 350 122 258 c 0,7,8
 109 165 109 165 144 110.5 c 128,-1,9
 179 56 179 56 251 56 c 0,10,11
 295 56 295 56 328 80.5 c 128,-1,12
 361 105 361 105 393 152 c 1,13,-1
 460 137 l 1,14,15
 424 68 424 68 367.5 29 c 128,-1,16
 311 -10 311 -10 237 -10 c 0,17,18
 167 -10 167 -10 118 23.5 c 128,-1,19
 69 57 69 57 48.5 117.5 c 128,-1,20
 28 178 28 178 39 256 c 0,21,22
 50 335 50 335 87.5 396.5 c 128,-1,23
 125 458 125 458 183.5 492.5 c 128,-1,24
 242 527 242 527 312 527 c 0,25,26
 452 527 452 527 491 382 c 1,0,-1
291.5 -184.5 m 128,-1,28
 258 -205 258 -205 212 -205 c 0,29,30
 156 -205 156 -205 124 -180 c 1,31,-1
 143 -143 l 1,32,33
 170 -166 170 -166 208 -166 c 0,34,35
 262 -166 262 -166 267 -129 c 0,36,37
 270 -107 270 -107 253 -96.5 c 128,-1,38
 236 -86 236 -86 194 -85 c 0,39,40
 185 -85 185 -85 189 -78 c 2,41,-1
 238 5 l 1,42,-1
 284 5 l 1,43,-1
 252 -56 l 1,44,45
 298 -58 298 -58 316 -79 c 128,-1,46
 334 -100 334 -100 330 -128 c 0,47,27
 325 -164 325 -164 291.5 -184.5 c 128,-1,28
EndSplineSet
EndChar

StartChar: egrave
Encoding: 232 232 169
Width: 556
GlyphClass: 2
Flags: W
AnchorPoint: "Anchor-5" -46 0 basechar 0
AnchorPoint: "Anchor-4" 232 0 basechar 0
AnchorPoint: "Anchor-3" 238 517 basechar 0
AnchorPoint: "Anchor-2" 341 20 basechar 0
LayerCount: 2
Fore
SplineSet
145.5 108.5 m 128,-1,1
 179 58 179 58 253 58 c 0,2,3
 353 58 353 58 395 138 c 1,4,-1
 472 127 l 1,5,6
 445 63 445 63 383.5 26.5 c 128,-1,7
 322 -10 322 -10 246 -10 c 0,8,9
 174 -10 174 -10 123 21.5 c 128,-1,10
 72 53 72 53 49.5 112.5 c 128,-1,11
 27 172 27 172 39 253 c 0,12,13
 57 378 57 378 129.5 452.5 c 128,-1,14
 202 527 202 527 312 527 c 0,15,16
 418 527 418 527 467 459 c 128,-1,17
 516 391 516 391 499 272 c 2,18,-1
 494 238 l 1,19,-1
 123 238 l 1,20,0
 112 159 112 159 145.5 108.5 c 128,-1,1
420 298 m 1,21,22
 430 370 430 370 400.5 415 c 128,-1,23
 371 460 371 460 302 460 c 0,24,25
 254 460 254 460 217.5 437 c 128,-1,26
 181 414 181 414 159.5 376.5 c 128,-1,27
 138 339 138 339 132 298 c 1,28,-1
 420 298 l 1,21,22
472 636 m 1,29,-1
 451 591 l 1,30,-1
 211 665 l 1,31,-1
 243 732 l 1,32,-1
 472 636 l 1,29,-1
EndSplineSet
EndChar

StartChar: eacute
Encoding: 233 233 170
Width: 556
GlyphClass: 2
Flags: W
AnchorPoint: "Anchor-5" -46 0 basechar 0
AnchorPoint: "Anchor-4" 232 0 basechar 0
AnchorPoint: "Anchor-3" 238 517 basechar 0
AnchorPoint: "Anchor-2" 341 20 basechar 0
LayerCount: 2
Fore
SplineSet
145.5 108.5 m 128,-1,1
 179 58 179 58 253 58 c 0,2,3
 353 58 353 58 395 138 c 1,4,-1
 472 127 l 1,5,6
 445 63 445 63 383.5 26.5 c 128,-1,7
 322 -10 322 -10 246 -10 c 0,8,9
 174 -10 174 -10 123 21.5 c 128,-1,10
 72 53 72 53 49.5 112.5 c 128,-1,11
 27 172 27 172 39 253 c 0,12,13
 57 378 57 378 129.5 452.5 c 128,-1,14
 202 527 202 527 312 527 c 0,15,16
 418 527 418 527 467 459 c 128,-1,17
 516 391 516 391 499 272 c 2,18,-1
 494 238 l 1,19,-1
 123 238 l 1,20,0
 112 159 112 159 145.5 108.5 c 128,-1,1
420 298 m 1,21,22
 430 370 430 370 400.5 415 c 128,-1,23
 371 460 371 460 302 460 c 0,24,25
 254 460 254 460 217.5 437 c 128,-1,26
 181 414 181 414 159.5 376.5 c 128,-1,27
 138 339 138 339 132 298 c 1,28,-1
 420 298 l 1,21,22
489 665 m 1,29,-1
 228 591 l 1,30,-1
 220 636 l 1,31,-1
 477 732 l 1,32,-1
 489 665 l 1,29,-1
EndSplineSet
EndChar

StartChar: ecircumflex
Encoding: 234 234 171
Width: 556
GlyphClass: 2
Flags: W
AnchorPoint: "Anchor-5" -46 0 basechar 0
AnchorPoint: "Anchor-4" 232 0 basechar 0
AnchorPoint: "Anchor-3" 238 517 basechar 0
AnchorPoint: "Anchor-2" 341 20 basechar 0
LayerCount: 2
Fore
SplineSet
145.5 108.5 m 128,-1,1
 179 58 179 58 253 58 c 0,2,3
 353 58 353 58 395 138 c 1,4,-1
 472 127 l 1,5,6
 445 63 445 63 383.5 26.5 c 128,-1,7
 322 -10 322 -10 246 -10 c 0,8,9
 174 -10 174 -10 123 21.5 c 128,-1,10
 72 53 72 53 49.5 112.5 c 128,-1,11
 27 172 27 172 39 253 c 0,12,13
 57 378 57 378 129.5 452.5 c 128,-1,14
 202 527 202 527 312 527 c 0,15,16
 418 527 418 527 467 459 c 128,-1,17
 516 391 516 391 499 272 c 2,18,-1
 494 238 l 1,19,-1
 123 238 l 1,20,0
 112 159 112 159 145.5 108.5 c 128,-1,1
420 298 m 1,21,22
 430 370 430 370 400.5 415 c 128,-1,23
 371 460 371 460 302 460 c 0,24,25
 254 460 254 460 217.5 437 c 128,-1,26
 181 414 181 414 159.5 376.5 c 128,-1,27
 138 339 138 339 132 298 c 1,28,-1
 420 298 l 1,21,22
362 680 m 1,29,-1
 277 614 l 1,30,-1
 198 614 l 1,31,-1
 339 726 l 1,32,-1
 401 726 l 1,33,-1
 507 614 l 1,34,-1
 423 614 l 1,35,-1
 362 680 l 1,29,-1
EndSplineSet
EndChar

StartChar: edieresis
Encoding: 235 235 172
Width: 556
GlyphClass: 2
Flags: W
AnchorPoint: "Anchor-5" -46 0 basechar 0
AnchorPoint: "Anchor-4" 232 0 basechar 0
AnchorPoint: "Anchor-3" 238 517 basechar 0
AnchorPoint: "Anchor-2" 341 20 basechar 0
LayerCount: 2
Fore
SplineSet
145.5 108.5 m 128,-1,1
 179 58 179 58 253 58 c 0,2,3
 353 58 353 58 395 138 c 1,4,-1
 472 127 l 1,5,6
 445 63 445 63 383.5 26.5 c 128,-1,7
 322 -10 322 -10 246 -10 c 0,8,9
 174 -10 174 -10 123 21.5 c 128,-1,10
 72 53 72 53 49.5 112.5 c 128,-1,11
 27 172 27 172 39 253 c 0,12,13
 57 378 57 378 129.5 452.5 c 128,-1,14
 202 527 202 527 312 527 c 0,15,16
 418 527 418 527 467 459 c 128,-1,17
 516 391 516 391 499 272 c 2,18,-1
 494 238 l 1,19,-1
 123 238 l 1,20,0
 112 159 112 159 145.5 108.5 c 128,-1,1
420 298 m 1,21,22
 430 370 430 370 400.5 415 c 128,-1,23
 371 460 371 460 302 460 c 0,24,25
 254 460 254 460 217.5 437 c 128,-1,26
 181 414 181 414 159.5 376.5 c 128,-1,27
 138 339 138 339 132 298 c 1,28,-1
 420 298 l 1,21,22
315 615 m 1,29,-1
 231 615 l 1,30,-1
 247 723 l 1,31,-1
 331 723 l 1,32,-1
 315 615 l 1,29,-1
461 615 m 1,33,-1
 377 615 l 1,34,-1
 393 723 l 1,35,-1
 477 723 l 1,36,-1
 461 615 l 1,33,-1
EndSplineSet
EndChar

StartChar: igrave
Encoding: 236 236 173
Width: 245
GlyphClass: 2
Flags: W
AnchorPoint: "Anchor-5" -46 0 basechar 0
AnchorPoint: "Anchor-4" -46 0 basechar 0
AnchorPoint: "Anchor-3" 77 517 basechar 0
AnchorPoint: "Anchor-2" 106 12 basechar 0
LayerCount: 2
Fore
SplineSet
120 0 m 1,0,-1
 34 0 l 1,1,-1
 107 517 l 1,2,-1
 193 517 l 1,3,-1
 120 0 l 1,0,-1
311 636 m 1,4,-1
 290 591 l 1,5,-1
 50 665 l 1,6,-1
 82 732 l 1,7,-1
 311 636 l 1,4,-1
EndSplineSet
EndChar

StartChar: iacute
Encoding: 237 237 174
Width: 245
GlyphClass: 2
Flags: W
AnchorPoint: "Anchor-5" -46 0 basechar 0
AnchorPoint: "Anchor-4" -46 0 basechar 0
AnchorPoint: "Anchor-3" 77 517 basechar 0
AnchorPoint: "Anchor-2" 106 12 basechar 0
LayerCount: 2
Fore
SplineSet
120 0 m 1,0,-1
 34 0 l 1,1,-1
 107 517 l 1,2,-1
 193 517 l 1,3,-1
 120 0 l 1,0,-1
328 665 m 1,4,-1
 67 591 l 1,5,-1
 59 636 l 1,6,-1
 316 732 l 1,7,-1
 328 665 l 1,4,-1
EndSplineSet
EndChar

StartChar: icircumflex
Encoding: 238 238 175
Width: 245
GlyphClass: 2
Flags: W
AnchorPoint: "Anchor-5" -46 0 basechar 0
AnchorPoint: "Anchor-4" -46 0 basechar 0
AnchorPoint: "Anchor-3" 77 517 basechar 0
AnchorPoint: "Anchor-2" 106 12 basechar 0
LayerCount: 2
Fore
SplineSet
120 0 m 1,0,-1
 34 0 l 1,1,-1
 107 517 l 1,2,-1
 193 517 l 1,3,-1
 120 0 l 1,0,-1
201 680 m 1,4,-1
 116 614 l 1,5,-1
 37 614 l 1,6,-1
 178 726 l 1,7,-1
 240 726 l 1,8,-1
 346 614 l 1,9,-1
 262 614 l 1,10,-1
 201 680 l 1,4,-1
EndSplineSet
EndChar

StartChar: idieresis
Encoding: 239 239 176
Width: 245
GlyphClass: 2
Flags: W
AnchorPoint: "Anchor-5" -46 0 basechar 0
AnchorPoint: "Anchor-4" -46 0 basechar 0
AnchorPoint: "Anchor-3" 77 517 basechar 0
AnchorPoint: "Anchor-2" 106 12 basechar 0
LayerCount: 2
Fore
SplineSet
120 0 m 1,0,-1
 34 0 l 1,1,-1
 107 517 l 1,2,-1
 193 517 l 1,3,-1
 120 0 l 1,0,-1
154 615 m 1,4,-1
 70 615 l 1,5,-1
 86 723 l 1,6,-1
 170 723 l 1,7,-1
 154 615 l 1,4,-1
300 615 m 1,8,-1
 216 615 l 1,9,-1
 232 723 l 1,10,-1
 316 723 l 1,11,-1
 300 615 l 1,8,-1
EndSplineSet
EndChar

StartChar: eth
Encoding: 240 240 177
Width: 593
GlyphClass: 2
Flags: W
LayerCount: 2
Fore
SplineSet
484.5 117.5 m 128,-1,1
 446 57 446 57 385 23.5 c 128,-1,2
 324 -10 324 -10 248 -10 c 0,3,4
 176 -10 176 -10 124.5 23 c 128,-1,5
 73 56 73 56 50 114 c 128,-1,6
 27 172 27 172 38 246 c 0,7,8
 49 321 49 321 88 380.5 c 128,-1,9
 127 440 127 440 186.5 473.5 c 128,-1,10
 246 507 246 507 315 507 c 0,11,12
 389 507 389 507 428 462 c 1,13,14
 398 552 398 552 314 615 c 1,15,-1
 150 529 l 1,16,-1
 133 567 l 1,17,-1
 277 641 l 1,18,19
 236 666 236 666 171 692 c 1,20,-1
 232 734 l 1,21,22
 295 711 295 711 349 679 c 1,23,-1
 458 736 l 1,24,-1
 474 697 l 1,25,-1
 388 652 l 1,26,27
 571 514 571 514 534 257 c 0,28,0
 523 178 523 178 484.5 117.5 c 128,-1,1
344.5 78 m 128,-1,30
 384 103 384 103 410.5 147.5 c 128,-1,31
 437 192 437 192 445 249 c 0,32,33
 453 305 453 305 439 349.5 c 128,-1,34
 425 394 425 394 392.5 419.5 c 128,-1,35
 360 445 360 445 314 445 c 128,-1,36
 268 445 268 445 227.5 419.5 c 128,-1,37
 187 394 187 394 160.5 349.5 c 128,-1,38
 134 305 134 305 126 249 c 128,-1,39
 118 193 118 193 132 148 c 128,-1,40
 146 103 146 103 179 78 c 128,-1,41
 212 53 212 53 259 53 c 0,42,29
 305 53 305 53 344.5 78 c 128,-1,30
EndSplineSet
EndChar

StartChar: ntilde
Encoding: 241 241 178
Width: 587
GlyphClass: 2
Flags: W
AnchorPoint: "Anchor-5" -46 0 basechar 0
AnchorPoint: "Anchor-4" 249 0 basechar 0
AnchorPoint: "Anchor-3" 255 517 basechar 0
AnchorPoint: "Anchor-2" -46 0 basechar 0
LayerCount: 2
Fore
SplineSet
107 517 m 1,0,-1
 190 517 l 1,1,-1
 180 445 l 1,2,3
 208 481 208 481 251.5 503 c 128,-1,4
 295 525 295 525 354 525 c 0,5,6
 432 525 432 525 476.5 476 c 128,-1,7
 521 427 521 427 509 339 c 2,8,-1
 461 0 l 1,9,-1
 376 0 l 1,10,-1
 423 331 l 2,11,12
 431 389 431 389 403.5 421 c 128,-1,13
 376 453 376 453 322 453 c 0,14,15
 264 453 264 453 220 426 c 128,-1,16
 176 399 176 399 169 349 c 2,17,-1
 120 0 l 1,18,-1
 34 0 l 1,19,-1
 107 517 l 1,0,-1
437 637 m 0,20,21
 418 637 418 637 404 640.5 c 128,-1,22
 390 644 390 644 371 651 c 0,23,24
 359 656 359 656 344.5 659.5 c 128,-1,25
 330 663 330 663 315 663 c 0,26,27
 299 663 299 663 287.5 659 c 128,-1,28
 276 655 276 655 266.5 649.5 c 128,-1,29
 257 644 257 644 253 642 c 0,30,31
 249 639 249 639 246 639 c 0,32,33
 242 639 242 639 240 647 c 2,34,-1
 235 674 l 2,35,36
 234 678 234 678 234 680 c 0,37,38
 235 684 235 684 240 688 c 0,39,40
 262 703 262 703 279 710.5 c 128,-1,41
 296 718 296 718 319 718 c 0,42,43
 336 718 336 718 350.5 714.5 c 128,-1,44
 365 711 365 711 386 704 c 0,45,46
 421 691 421 691 445 691 c 0,47,48
 462 691 462 691 475.5 696 c 128,-1,49
 489 701 489 701 505 710 c 0,50,51
 509 713 509 713 513 713 c 128,-1,52
 517 713 517 713 519 706 c 2,53,-1
 525 674 l 1,54,-1
 525 670 l 2,55,56
 524 666 524 666 520 663 c 128,-1,57
 516 660 516 660 515 659 c 0,58,59
 481 637 481 637 437 637 c 0,20,21
EndSplineSet
EndChar

StartChar: ograve
Encoding: 242 242 179
Width: 567
GlyphClass: 2
Flags: W
AnchorPoint: "Anchor-5" -46 0 basechar 0
AnchorPoint: "Anchor-4" 237 0 basechar 0
AnchorPoint: "Anchor-3" 240 517 basechar 0
AnchorPoint: "Anchor-2" 304 10 basechar 0
LayerCount: 2
Fore
SplineSet
115.5 23.5 m 128,-1,1
 67 57 67 57 47.5 117 c 128,-1,2
 28 177 28 177 39 255 c 0,3,4
 50 335 50 335 87 396.5 c 128,-1,5
 124 458 124 458 182.5 492.5 c 128,-1,6
 241 527 241 527 313 527 c 128,-1,7
 385 527 385 527 432.5 492.5 c 128,-1,8
 480 458 480 458 499.5 396.5 c 128,-1,9
 519 335 519 335 508 256 c 0,10,11
 497 178 497 178 460.5 117.5 c 128,-1,12
 424 57 424 57 367 23.5 c 128,-1,13
 310 -10 310 -10 237 -10 c 128,-1,0
 164 -10 164 -10 115.5 23.5 c 128,-1,1
366 113.5 m 128,-1,15
 411 169 411 169 423 259 c 0,16,17
 436 349 436 349 406.5 404 c 128,-1,18
 377 459 377 459 304 459 c 0,19,20
 230 459 230 459 184 403.5 c 128,-1,21
 138 348 138 348 125 259 c 0,22,23
 112 169 112 169 142.5 113.5 c 128,-1,24
 173 58 173 58 248 58 c 0,25,14
 321 58 321 58 366 113.5 c 128,-1,15
474 636 m 1,26,-1
 453 591 l 1,27,-1
 213 665 l 1,28,-1
 245 732 l 1,29,-1
 474 636 l 1,26,-1
EndSplineSet
EndChar

StartChar: oacute
Encoding: 243 243 180
Width: 567
GlyphClass: 2
Flags: W
AnchorPoint: "Anchor-5" -46 0 basechar 0
AnchorPoint: "Anchor-4" 237 0 basechar 0
AnchorPoint: "Anchor-3" 240 517 basechar 0
AnchorPoint: "Anchor-2" 304 10 basechar 0
LayerCount: 2
Fore
SplineSet
115.5 23.5 m 128,-1,1
 67 57 67 57 47.5 117 c 128,-1,2
 28 177 28 177 39 255 c 0,3,4
 50 335 50 335 87 396.5 c 128,-1,5
 124 458 124 458 182.5 492.5 c 128,-1,6
 241 527 241 527 313 527 c 128,-1,7
 385 527 385 527 432.5 492.5 c 128,-1,8
 480 458 480 458 499.5 396.5 c 128,-1,9
 519 335 519 335 508 256 c 0,10,11
 497 178 497 178 460.5 117.5 c 128,-1,12
 424 57 424 57 367 23.5 c 128,-1,13
 310 -10 310 -10 237 -10 c 128,-1,0
 164 -10 164 -10 115.5 23.5 c 128,-1,1
366 113.5 m 128,-1,15
 411 169 411 169 423 259 c 0,16,17
 436 349 436 349 406.5 404 c 128,-1,18
 377 459 377 459 304 459 c 0,19,20
 230 459 230 459 184 403.5 c 128,-1,21
 138 348 138 348 125 259 c 0,22,23
 112 169 112 169 142.5 113.5 c 128,-1,24
 173 58 173 58 248 58 c 0,25,14
 321 58 321 58 366 113.5 c 128,-1,15
491 665 m 1,26,-1
 230 591 l 1,27,-1
 222 636 l 1,28,-1
 479 732 l 1,29,-1
 491 665 l 1,26,-1
EndSplineSet
EndChar

StartChar: ocircumflex
Encoding: 244 244 181
Width: 567
GlyphClass: 2
Flags: W
AnchorPoint: "Anchor-5" -46 0 basechar 0
AnchorPoint: "Anchor-4" 237 0 basechar 0
AnchorPoint: "Anchor-3" 240 517 basechar 0
AnchorPoint: "Anchor-2" 304 10 basechar 0
LayerCount: 2
Fore
SplineSet
115.5 23.5 m 128,-1,1
 67 57 67 57 47.5 117 c 128,-1,2
 28 177 28 177 39 255 c 0,3,4
 50 335 50 335 87 396.5 c 128,-1,5
 124 458 124 458 182.5 492.5 c 128,-1,6
 241 527 241 527 313 527 c 128,-1,7
 385 527 385 527 432.5 492.5 c 128,-1,8
 480 458 480 458 499.5 396.5 c 128,-1,9
 519 335 519 335 508 256 c 0,10,11
 497 178 497 178 460.5 117.5 c 128,-1,12
 424 57 424 57 367 23.5 c 128,-1,13
 310 -10 310 -10 237 -10 c 128,-1,0
 164 -10 164 -10 115.5 23.5 c 128,-1,1
366 113.5 m 128,-1,15
 411 169 411 169 423 259 c 0,16,17
 436 349 436 349 406.5 404 c 128,-1,18
 377 459 377 459 304 459 c 0,19,20
 230 459 230 459 184 403.5 c 128,-1,21
 138 348 138 348 125 259 c 0,22,23
 112 169 112 169 142.5 113.5 c 128,-1,24
 173 58 173 58 248 58 c 0,25,14
 321 58 321 58 366 113.5 c 128,-1,15
364 680 m 1,26,-1
 279 614 l 1,27,-1
 200 614 l 1,28,-1
 341 726 l 1,29,-1
 403 726 l 1,30,-1
 509 614 l 1,31,-1
 425 614 l 1,32,-1
 364 680 l 1,26,-1
EndSplineSet
EndChar

StartChar: otilde
Encoding: 245 245 182
Width: 567
GlyphClass: 2
Flags: W
AnchorPoint: "Anchor-5" -46 0 basechar 0
AnchorPoint: "Anchor-4" 237 0 basechar 0
AnchorPoint: "Anchor-3" 240 517 basechar 0
AnchorPoint: "Anchor-2" 304 10 basechar 0
LayerCount: 2
Fore
SplineSet
115.5 23.5 m 128,-1,1
 67 57 67 57 47.5 117 c 128,-1,2
 28 177 28 177 39 255 c 0,3,4
 50 335 50 335 87 396.5 c 128,-1,5
 124 458 124 458 182.5 492.5 c 128,-1,6
 241 527 241 527 313 527 c 128,-1,7
 385 527 385 527 432.5 492.5 c 128,-1,8
 480 458 480 458 499.5 396.5 c 128,-1,9
 519 335 519 335 508 256 c 0,10,11
 497 178 497 178 460.5 117.5 c 128,-1,12
 424 57 424 57 367 23.5 c 128,-1,13
 310 -10 310 -10 237 -10 c 128,-1,0
 164 -10 164 -10 115.5 23.5 c 128,-1,1
366 113.5 m 128,-1,15
 411 169 411 169 423 259 c 0,16,17
 436 349 436 349 406.5 404 c 128,-1,18
 377 459 377 459 304 459 c 0,19,20
 230 459 230 459 184 403.5 c 128,-1,21
 138 348 138 348 125 259 c 0,22,23
 112 169 112 169 142.5 113.5 c 128,-1,24
 173 58 173 58 248 58 c 0,25,14
 321 58 321 58 366 113.5 c 128,-1,15
422 637 m 0,26,27
 403 637 403 637 389 640.5 c 128,-1,28
 375 644 375 644 356 651 c 0,29,30
 344 656 344 656 329.5 659.5 c 128,-1,31
 315 663 315 663 300 663 c 0,32,33
 284 663 284 663 272.5 659 c 128,-1,34
 261 655 261 655 251.5 649.5 c 128,-1,35
 242 644 242 644 238 642 c 0,36,37
 234 639 234 639 231 639 c 0,38,39
 227 639 227 639 225 647 c 2,40,-1
 220 674 l 2,41,42
 219 678 219 678 219 680 c 0,43,44
 220 684 220 684 225 688 c 0,45,46
 247 703 247 703 264 710.5 c 128,-1,47
 281 718 281 718 304 718 c 0,48,49
 321 718 321 718 335.5 714.5 c 128,-1,50
 350 711 350 711 371 704 c 0,51,52
 406 691 406 691 430 691 c 0,53,54
 447 691 447 691 460.5 696 c 128,-1,55
 474 701 474 701 490 710 c 0,56,57
 494 713 494 713 498 713 c 128,-1,58
 502 713 502 713 504 706 c 2,59,-1
 510 674 l 1,60,-1
 510 670 l 2,61,62
 509 666 509 666 505 663 c 128,-1,63
 501 660 501 660 500 659 c 0,64,65
 466 637 466 637 422 637 c 0,26,27
EndSplineSet
EndChar

StartChar: odieresis
Encoding: 246 246 183
Width: 567
GlyphClass: 2
Flags: W
AnchorPoint: "Anchor-5" -46 0 basechar 0
AnchorPoint: "Anchor-4" 237 0 basechar 0
AnchorPoint: "Anchor-3" 240 517 basechar 0
AnchorPoint: "Anchor-2" 304 10 basechar 0
LayerCount: 2
Fore
SplineSet
115.5 23.5 m 128,-1,1
 67 57 67 57 47.5 117 c 128,-1,2
 28 177 28 177 39 255 c 0,3,4
 50 335 50 335 87 396.5 c 128,-1,5
 124 458 124 458 182.5 492.5 c 128,-1,6
 241 527 241 527 313 527 c 128,-1,7
 385 527 385 527 432.5 492.5 c 128,-1,8
 480 458 480 458 499.5 396.5 c 128,-1,9
 519 335 519 335 508 256 c 0,10,11
 497 178 497 178 460.5 117.5 c 128,-1,12
 424 57 424 57 367 23.5 c 128,-1,13
 310 -10 310 -10 237 -10 c 128,-1,0
 164 -10 164 -10 115.5 23.5 c 128,-1,1
366 113.5 m 128,-1,15
 411 169 411 169 423 259 c 0,16,17
 436 349 436 349 406.5 404 c 128,-1,18
 377 459 377 459 304 459 c 0,19,20
 230 459 230 459 184 403.5 c 128,-1,21
 138 348 138 348 125 259 c 0,22,23
 112 169 112 169 142.5 113.5 c 128,-1,24
 173 58 173 58 248 58 c 0,25,14
 321 58 321 58 366 113.5 c 128,-1,15
317 615 m 1,26,-1
 233 615 l 1,27,-1
 249 723 l 1,28,-1
 333 723 l 1,29,-1
 317 615 l 1,26,-1
463 615 m 1,30,-1
 379 615 l 1,31,-1
 395 723 l 1,32,-1
 479 723 l 1,33,-1
 463 615 l 1,30,-1
EndSplineSet
EndChar

StartChar: divide
Encoding: 247 247 184
Width: 547
GlyphClass: 2
Flags: W
LayerCount: 2
Fore
SplineSet
347 483 m 1,0,-1
 235 483 l 1,1,-1
 251 591 l 1,2,-1
 363 591 l 1,3,-1
 347 483 l 1,0,-1
483 330 m 1,4,-1
 56 329 l 1,5,-1
 65 397 l 1,6,-1
 492 397 l 1,7,-1
 483 330 l 1,4,-1
299 137 m 1,8,-1
 187 137 l 1,9,-1
 202 244 l 1,10,-1
 314 244 l 1,11,-1
 299 137 l 1,8,-1
EndSplineSet
EndChar

StartChar: oslash
Encoding: 248 248 185
Width: 576
GlyphClass: 2
Flags: W
AnchorPoint: "Anchor-5" -46 0 basechar 0
AnchorPoint: "Anchor-4" 238 0 basechar 0
AnchorPoint: "Anchor-3" 241 517 basechar 0
AnchorPoint: "Anchor-2" 305 10 basechar 0
LayerCount: 2
Fore
SplineSet
495 412 m 1,0,1
 522 348 522 348 509 256 c 0,2,3
 498 178 498 178 461.5 117.5 c 128,-1,4
 425 57 425 57 368 23.5 c 128,-1,5
 311 -10 311 -10 238 -10 c 0,6,7
 134 -10 134 -10 79 57 c 1,8,-1
 5 -6 l 1,9,-1
 -25 33 l 1,10,-1
 54 101 l 1,11,12
 27 164 27 164 40 255 c 0,13,14
 51 335 51 335 88 396.5 c 128,-1,15
 125 458 125 458 183.5 492.5 c 128,-1,16
 242 527 242 527 314 527 c 0,17,18
 418 527 418 527 471 456 c 1,19,-1
 547 521 l 1,20,-1
 578 483 l 1,21,-1
 495 412 l 1,0,1
127 163 m 1,22,-1
 409 403 l 1,23,24
 377 459 377 459 305 459 c 0,25,26
 231 459 231 459 185 403.5 c 128,-1,27
 139 348 139 348 126 259 c 0,28,29
 119 207 119 207 127 163 c 1,22,-1
424 352 m 1,30,-1
 145 113 l 1,31,32
 159 87 159 87 185.5 72.5 c 128,-1,33
 212 58 212 58 249 58 c 0,34,35
 322 58 322 58 367 113.5 c 128,-1,36
 412 169 412 169 424 259 c 0,37,38
 432 313 432 313 424 352 c 1,30,-1
EndSplineSet
EndChar

StartChar: ugrave
Encoding: 249 249 186
Width: 587
GlyphClass: 2
Flags: W
AnchorPoint: "Anchor-5" -46 0 basechar 0
AnchorPoint: "Anchor-4" 247 0 basechar 0
AnchorPoint: "Anchor-3" 239 517 basechar 0
AnchorPoint: "Anchor-2" 446 11 basechar 0
LayerCount: 2
Fore
SplineSet
139.5 9 m 128,-1,1
 97 27 97 27 73 67 c 128,-1,2
 49 107 49 107 58 168 c 2,3,-1
 107 518 l 1,4,-1
 193 518 l 1,5,-1
 145 176 l 2,6,7
 136 115 136 115 169.5 86.5 c 128,-1,8
 203 58 203 58 253 58 c 0,9,10
 307 58 307 58 349 90.5 c 128,-1,11
 391 123 391 123 400 181 c 2,12,-1
 448 518 l 1,13,-1
 534 518 l 1,14,-1
 460 1 l 1,15,-1
 392 1 l 1,16,-1
 399 81 l 1,17,18
 377 45 377 45 328 18 c 128,-1,19
 279 -9 279 -9 229 -9 c 0,20,0
 182 -9 182 -9 139.5 9 c 128,-1,1
473 636 m 1,21,-1
 452 591 l 1,22,-1
 212 665 l 1,23,-1
 244 732 l 1,24,-1
 473 636 l 1,21,-1
EndSplineSet
EndChar

StartChar: uacute
Encoding: 250 250 187
Width: 587
GlyphClass: 2
Flags: W
AnchorPoint: "Anchor-5" -46 0 basechar 0
AnchorPoint: "Anchor-4" 247 0 basechar 0
AnchorPoint: "Anchor-3" 239 517 basechar 0
AnchorPoint: "Anchor-2" 446 11 basechar 0
LayerCount: 2
Fore
SplineSet
139.5 9 m 128,-1,1
 97 27 97 27 73 67 c 128,-1,2
 49 107 49 107 58 168 c 2,3,-1
 107 518 l 1,4,-1
 193 518 l 1,5,-1
 145 176 l 2,6,7
 136 115 136 115 169.5 86.5 c 128,-1,8
 203 58 203 58 253 58 c 0,9,10
 307 58 307 58 349 90.5 c 128,-1,11
 391 123 391 123 400 181 c 2,12,-1
 448 518 l 1,13,-1
 534 518 l 1,14,-1
 460 1 l 1,15,-1
 392 1 l 1,16,-1
 399 81 l 1,17,18
 377 45 377 45 328 18 c 128,-1,19
 279 -9 279 -9 229 -9 c 0,20,0
 182 -9 182 -9 139.5 9 c 128,-1,1
490 665 m 1,21,-1
 229 591 l 1,22,-1
 221 636 l 1,23,-1
 478 732 l 1,24,-1
 490 665 l 1,21,-1
EndSplineSet
EndChar

StartChar: ucircumflex
Encoding: 251 251 188
Width: 587
GlyphClass: 2
Flags: W
AnchorPoint: "Anchor-5" -46 0 basechar 0
AnchorPoint: "Anchor-4" 247 0 basechar 0
AnchorPoint: "Anchor-3" 239 517 basechar 0
AnchorPoint: "Anchor-2" 446 11 basechar 0
LayerCount: 2
Fore
SplineSet
139.5 9 m 128,-1,1
 97 27 97 27 73 67 c 128,-1,2
 49 107 49 107 58 168 c 2,3,-1
 107 518 l 1,4,-1
 193 518 l 1,5,-1
 145 176 l 2,6,7
 136 115 136 115 169.5 86.5 c 128,-1,8
 203 58 203 58 253 58 c 0,9,10
 307 58 307 58 349 90.5 c 128,-1,11
 391 123 391 123 400 181 c 2,12,-1
 448 518 l 1,13,-1
 534 518 l 1,14,-1
 460 1 l 1,15,-1
 392 1 l 1,16,-1
 399 81 l 1,17,18
 377 45 377 45 328 18 c 128,-1,19
 279 -9 279 -9 229 -9 c 0,20,0
 182 -9 182 -9 139.5 9 c 128,-1,1
363 680 m 1,21,-1
 278 614 l 1,22,-1
 199 614 l 1,23,-1
 340 726 l 1,24,-1
 402 726 l 1,25,-1
 508 614 l 1,26,-1
 424 614 l 1,27,-1
 363 680 l 1,21,-1
EndSplineSet
EndChar

StartChar: udieresis
Encoding: 252 252 189
Width: 587
GlyphClass: 2
Flags: W
AnchorPoint: "Anchor-5" -46 0 basechar 0
AnchorPoint: "Anchor-4" 247 0 basechar 0
AnchorPoint: "Anchor-3" 239 517 basechar 0
AnchorPoint: "Anchor-2" 446 11 basechar 0
LayerCount: 2
Fore
SplineSet
139.5 9 m 128,-1,1
 97 27 97 27 73 67 c 128,-1,2
 49 107 49 107 58 168 c 2,3,-1
 107 518 l 1,4,-1
 193 518 l 1,5,-1
 145 176 l 2,6,7
 136 115 136 115 169.5 86.5 c 128,-1,8
 203 58 203 58 253 58 c 0,9,10
 307 58 307 58 349 90.5 c 128,-1,11
 391 123 391 123 400 181 c 2,12,-1
 448 518 l 1,13,-1
 534 518 l 1,14,-1
 460 1 l 1,15,-1
 392 1 l 1,16,-1
 399 81 l 1,17,18
 377 45 377 45 328 18 c 128,-1,19
 279 -9 279 -9 229 -9 c 0,20,0
 182 -9 182 -9 139.5 9 c 128,-1,1
316 615 m 1,21,-1
 232 615 l 1,22,-1
 248 723 l 1,23,-1
 332 723 l 1,24,-1
 316 615 l 1,21,-1
462 615 m 1,25,-1
 378 615 l 1,26,-1
 394 723 l 1,27,-1
 478 723 l 1,28,-1
 462 615 l 1,25,-1
EndSplineSet
EndChar

StartChar: yacute
Encoding: 253 253 190
Width: 525
GlyphClass: 2
Flags: W
AnchorPoint: "Anchor-5" -46 0 basechar 0
AnchorPoint: "Anchor-4" -46 0 basechar 0
AnchorPoint: "Anchor-3" 225 517 basechar 0
AnchorPoint: "Anchor-2" -46 0 basechar 0
LayerCount: 2
Fore
SplineSet
11 -162.5 m 128,-1,1
 -6 -160 -6 -160 -13.5 -157 c 128,-1,2
 -21 -154 -21 -154 -23 -153 c 2,3,-1
 -15 -97 l 1,4,-1
 39 -98 l 2,5,6
 89 -99 89 -99 114 -83 c 128,-1,7
 139 -67 139 -67 153 -40 c 2,8,-1
 180 11 l 1,9,-1
 49 517 l 1,10,-1
 136 517 l 1,11,-1
 234 110 l 1,12,-1
 447 517 l 1,13,-1
 530 517 l 1,14,-1
 233 -44 l 2,15,16
 196 -111 196 -111 153 -138 c 128,-1,17
 110 -165 110 -165 54 -165 c 0,18,0
 28 -165 28 -165 11 -162.5 c 128,-1,1
476 665 m 1,19,-1
 215 591 l 1,20,-1
 207 636 l 1,21,-1
 464 732 l 1,22,-1
 476 665 l 1,19,-1
EndSplineSet
EndChar

StartChar: thorn
Encoding: 254 254 191
Width: 591
GlyphClass: 2
Flags: W
LayerCount: 2
Fore
SplineSet
182 445 m 1,0,1
 204 467 204 467 224 483.5 c 128,-1,2
 244 500 244 500 278.5 513.5 c 128,-1,3
 313 527 313 527 357 527 c 0,4,5
 418 527 418 527 462.5 498 c 128,-1,6
 507 469 507 469 526 410 c 128,-1,7
 545 351 545 351 533 266 c 0,8,9
 521 180 521 180 484.5 117.5 c 128,-1,10
 448 55 448 55 393.5 22.5 c 128,-1,11
 339 -10 339 -10 272 -10 c 0,12,13
 192 -10 192 -10 140 39 c 0,14,15
 134 46 134 46 130 46 c 128,-1,16
 126 46 126 46 125 33 c 2,17,-1
 97 -161 l 1,18,-1
 11 -161 l 1,19,-1
 136 723 l 1,20,-1
 221 723 l 1,21,-1
 182 445 l 1,0,1
256 51 m 0,22,23
 328 51 328 51 379.5 106 c 128,-1,24
 431 161 431 161 445 265 c 0,25,26
 459 366 459 366 423 415.5 c 128,-1,27
 387 465 387 465 319 465 c 0,28,29
 281 465 281 465 248.5 448.5 c 128,-1,30
 216 432 216 432 194.5 406 c 128,-1,31
 173 380 173 380 170 355 c 2,32,-1
 136 115 l 1,33,34
 188 51 188 51 256 51 c 0,22,23
EndSplineSet
EndChar

StartChar: ydieresis
Encoding: 255 255 192
Width: 525
GlyphClass: 2
Flags: W
AnchorPoint: "Anchor-5" -46 0 basechar 0
AnchorPoint: "Anchor-4" -46 0 basechar 0
AnchorPoint: "Anchor-3" 225 517 basechar 0
AnchorPoint: "Anchor-2" -46 0 basechar 0
LayerCount: 2
Fore
SplineSet
11 -162.5 m 128,-1,1
 -6 -160 -6 -160 -13.5 -157 c 128,-1,2
 -21 -154 -21 -154 -23 -153 c 2,3,-1
 -15 -97 l 1,4,-1
 39 -98 l 2,5,6
 89 -99 89 -99 114 -83 c 128,-1,7
 139 -67 139 -67 153 -40 c 2,8,-1
 180 11 l 1,9,-1
 49 517 l 1,10,-1
 136 517 l 1,11,-1
 234 110 l 1,12,-1
 447 517 l 1,13,-1
 530 517 l 1,14,-1
 233 -44 l 2,15,16
 196 -111 196 -111 153 -138 c 128,-1,17
 110 -165 110 -165 54 -165 c 0,18,0
 28 -165 28 -165 11 -162.5 c 128,-1,1
302 615 m 1,19,-1
 218 615 l 1,20,-1
 234 723 l 1,21,-1
 318 723 l 1,22,-1
 302 615 l 1,19,-1
448 615 m 1,23,-1
 364 615 l 1,24,-1
 380 723 l 1,25,-1
 464 723 l 1,26,-1
 448 615 l 1,23,-1
EndSplineSet
EndChar

StartChar: Amacron
Encoding: 256 256 193
Width: 696
GlyphClass: 2
Flags: W
AnchorPoint: "Anchor-5" -46 0 basechar 0
AnchorPoint: "Anchor-4" -46 0 basechar 0
AnchorPoint: "Anchor-3" 307 723 basechar 0
AnchorPoint: "Anchor-2" 607 10 basechar 0
LayerCount: 2
Fore
SplineSet
351 723 m 1,0,-1
 450 723 l 1,1,-1
 610 0 l 1,2,-1
 523 0 l 1,3,-1
 478 202 l 1,4,-1
 178 202 l 1,5,-1
 76 0 l 1,6,-1
 -12 0 l 1,7,-1
 351 723 l 1,0,-1
465 282 m 1,8,-1
 389 638 l 1,9,-1
 211 282 l 1,10,-1
 465 282 l 1,8,-1
601 854 m 1,11,-1
 309 854 l 1,12,-1
 317 916 l 1,13,-1
 609 916 l 1,14,-1
 601 854 l 1,11,-1
EndSplineSet
EndChar

StartChar: amacron
Encoding: 257 257 194
Width: 559
GlyphClass: 2
Flags: W
AnchorPoint: "Anchor-5" -46 0 basechar 0
AnchorPoint: "Anchor-4" -46 0 basechar 0
AnchorPoint: "Anchor-3" 233 517 basechar 0
AnchorPoint: "Anchor-2" 421 13 basechar 0
LayerCount: 2
Fore
SplineSet
466 0 m 1,0,-1
 380 0 l 1,1,-1
 466 0 l 1,0,-1
380 0 m 1,2,-1
 387 49 l 1,3,4
 346 17 346 17 307.5 3.5 c 128,-1,5
 269 -10 269 -10 228 -10 c 0,6,7
 161 -10 161 -10 114.5 22.5 c 128,-1,8
 68 55 68 55 48 117.5 c 128,-1,9
 28 180 28 180 40 266 c 0,10,11
 52 351 52 351 89 410 c 128,-1,12
 126 469 126 469 178.5 498 c 128,-1,13
 231 527 231 527 293 527 c 0,14,15
 334 527 334 527 364 514 c 128,-1,16
 394 501 394 501 408.5 488 c 128,-1,17
 423 475 423 475 444 451 c 1,18,-1
 454 517 l 1,19,-1
 539 517 l 1,20,-1
 466 0 l 1,21,-1
 380 0 l 1,2,-1
401 150 m 1,22,-1
 426 328 l 2,23,24
 431 362 431 362 418 393 c 128,-1,25
 405 424 405 424 376.5 443 c 128,-1,26
 348 462 348 462 309 462 c 0,27,28
 243 462 243 462 192.5 411.5 c 128,-1,29
 142 361 142 361 128 264 c 0,30,31
 119 200 119 200 133 152.5 c 128,-1,32
 147 105 147 105 179.5 79.5 c 128,-1,33
 212 54 212 54 258 54 c 0,34,35
 333 54 333 54 401 150 c 1,22,-1
498 648 m 1,36,-1
 206 648 l 1,37,-1
 214 710 l 1,38,-1
 506 710 l 1,39,-1
 498 648 l 1,36,-1
EndSplineSet
EndChar

StartChar: Abreve
Encoding: 258 258 195
Width: 696
GlyphClass: 2
Flags: W
AnchorPoint: "Anchor-5" -46 0 basechar 0
AnchorPoint: "Anchor-4" -46 0 basechar 0
AnchorPoint: "Anchor-3" 307 723 basechar 0
AnchorPoint: "Anchor-2" 607 10 basechar 0
LayerCount: 2
Fore
SplineSet
351 723 m 1,0,-1
 450 723 l 1,1,-1
 610 0 l 1,2,-1
 523 0 l 1,3,-1
 478 202 l 1,4,-1
 178 202 l 1,5,-1
 76 0 l 1,6,-1
 -12 0 l 1,7,-1
 351 723 l 1,0,-1
465 282 m 1,8,-1
 389 638 l 1,9,-1
 211 282 l 1,10,-1
 465 282 l 1,8,-1
552.5 854 m 128,-1,12
 509 823 509 823 451 823 c 0,13,14
 394 823 394 823 359 853 c 128,-1,15
 324 883 324 883 319 929 c 1,16,-1
 384 929 l 1,17,18
 408 877 408 877 458 877 c 0,19,20
 487 877 487 877 510.5 892.5 c 128,-1,21
 534 908 534 908 550 929 c 1,22,-1
 616 929 l 1,23,11
 596 885 596 885 552.5 854 c 128,-1,12
EndSplineSet
EndChar

StartChar: abreve
Encoding: 259 259 196
Width: 559
GlyphClass: 2
Flags: W
AnchorPoint: "Anchor-5" -46 0 basechar 0
AnchorPoint: "Anchor-4" -46 0 basechar 0
AnchorPoint: "Anchor-3" 233 517 basechar 0
AnchorPoint: "Anchor-2" 421 13 basechar 0
LayerCount: 2
Fore
SplineSet
466 0 m 1,0,-1
 380 0 l 1,1,-1
 466 0 l 1,0,-1
380 0 m 1,2,-1
 387 49 l 1,3,4
 346 17 346 17 307.5 3.5 c 128,-1,5
 269 -10 269 -10 228 -10 c 0,6,7
 161 -10 161 -10 114.5 22.5 c 128,-1,8
 68 55 68 55 48 117.5 c 128,-1,9
 28 180 28 180 40 266 c 0,10,11
 52 351 52 351 89 410 c 128,-1,12
 126 469 126 469 178.5 498 c 128,-1,13
 231 527 231 527 293 527 c 0,14,15
 334 527 334 527 364 514 c 128,-1,16
 394 501 394 501 408.5 488 c 128,-1,17
 423 475 423 475 444 451 c 1,18,-1
 454 517 l 1,19,-1
 539 517 l 1,20,-1
 466 0 l 1,21,-1
 380 0 l 1,2,-1
401 150 m 1,22,-1
 426 328 l 2,23,24
 431 362 431 362 418 393 c 128,-1,25
 405 424 405 424 376.5 443 c 128,-1,26
 348 462 348 462 309 462 c 0,27,28
 243 462 243 462 192.5 411.5 c 128,-1,29
 142 361 142 361 128 264 c 0,30,31
 119 200 119 200 133 152.5 c 128,-1,32
 147 105 147 105 179.5 79.5 c 128,-1,33
 212 54 212 54 258 54 c 0,34,35
 333 54 333 54 401 150 c 1,22,-1
449.5 648 m 128,-1,37
 406 617 406 617 348 617 c 0,38,39
 291 617 291 617 256 647 c 128,-1,40
 221 677 221 677 216 723 c 1,41,-1
 281 723 l 1,42,43
 305 671 305 671 355 671 c 0,44,45
 384 671 384 671 407.5 686.5 c 128,-1,46
 431 702 431 702 447 723 c 1,47,-1
 513 723 l 1,48,36
 493 679 493 679 449.5 648 c 128,-1,37
EndSplineSet
EndChar

StartChar: Aogonek
Encoding: 260 260 197
Width: 696
GlyphClass: 2
Flags: W
AnchorPoint: "Anchor-5" -46 0 basechar 0
AnchorPoint: "Anchor-4" -46 0 basechar 0
AnchorPoint: "Anchor-3" 307 723 basechar 0
AnchorPoint: "Anchor-2" 607 10 basechar 0
LayerCount: 2
Fore
SplineSet
351 723 m 1,0,-1
 450 723 l 1,1,-1
 610 0 l 1,2,-1
 523 0 l 1,3,-1
 478 202 l 1,4,-1
 178 202 l 1,5,-1
 76 0 l 1,6,-1
 -12 0 l 1,7,-1
 351 723 l 1,0,-1
465 282 m 1,8,-1
 389 638 l 1,9,-1
 211 282 l 1,10,-1
 465 282 l 1,8,-1
488 -32.5 m 128,-1,12
 514 -9 514 -9 574 9 c 1,13,-1
 636 2 l 1,14,15
 581 -20 581 -20 556 -38.5 c 128,-1,16
 531 -57 531 -57 528 -81 c 0,17,18
 525 -100 525 -100 535.5 -109 c 128,-1,19
 546 -118 546 -118 571 -118 c 0,20,21
 590 -118 590 -118 607 -114 c 128,-1,22
 624 -110 624 -110 634 -105 c 2,23,-1
 640 -103 l 2,24,25
 644 -103 644 -103 643 -111 c 2,26,-1
 639 -139 l 2,27,28
 638 -143 638 -143 637 -145.5 c 128,-1,29
 636 -148 636 -148 631 -150 c 0,30,31
 618 -157 618 -157 593.5 -162 c 128,-1,32
 569 -167 569 -167 544 -167 c 0,33,34
 496 -167 496 -167 474 -146 c 128,-1,35
 452 -125 452 -125 457 -88 c 0,36,11
 462 -56 462 -56 488 -32.5 c 128,-1,12
EndSplineSet
EndChar

StartChar: aogonek
Encoding: 261 261 198
Width: 559
GlyphClass: 2
Flags: W
AnchorPoint: "Anchor-5" -46 0 basechar 0
AnchorPoint: "Anchor-4" -46 0 basechar 0
AnchorPoint: "Anchor-3" 233 517 basechar 0
AnchorPoint: "Anchor-2" 421 13 basechar 0
LayerCount: 2
Fore
SplineSet
466 0 m 1,0,-1
 380 0 l 1,1,-1
 466 0 l 1,0,-1
380 0 m 1,2,-1
 387 49 l 1,3,4
 346 17 346 17 307.5 3.5 c 128,-1,5
 269 -10 269 -10 228 -10 c 0,6,7
 161 -10 161 -10 114.5 22.5 c 128,-1,8
 68 55 68 55 48 117.5 c 128,-1,9
 28 180 28 180 40 266 c 0,10,11
 52 351 52 351 89 410 c 128,-1,12
 126 469 126 469 178.5 498 c 128,-1,13
 231 527 231 527 293 527 c 0,14,15
 334 527 334 527 364 514 c 128,-1,16
 394 501 394 501 408.5 488 c 128,-1,17
 423 475 423 475 444 451 c 1,18,-1
 454 517 l 1,19,-1
 539 517 l 1,20,-1
 466 0 l 1,21,-1
 380 0 l 1,2,-1
401 150 m 1,22,-1
 426 328 l 2,23,24
 431 362 431 362 418 393 c 128,-1,25
 405 424 405 424 376.5 443 c 128,-1,26
 348 462 348 462 309 462 c 0,27,28
 243 462 243 462 192.5 411.5 c 128,-1,29
 142 361 142 361 128 264 c 0,30,31
 119 200 119 200 133 152.5 c 128,-1,32
 147 105 147 105 179.5 79.5 c 128,-1,33
 212 54 212 54 258 54 c 0,34,35
 333 54 333 54 401 150 c 1,22,-1
302 -29.5 m 128,-1,37
 328 -6 328 -6 388 12 c 1,38,-1
 450 5 l 1,39,40
 395 -17 395 -17 370 -35.5 c 128,-1,41
 345 -54 345 -54 342 -78 c 0,42,43
 339 -97 339 -97 349.5 -106 c 128,-1,44
 360 -115 360 -115 385 -115 c 0,45,46
 404 -115 404 -115 421 -111 c 128,-1,47
 438 -107 438 -107 448 -102 c 2,48,-1
 454 -100 l 2,49,50
 458 -100 458 -100 457 -108 c 2,51,-1
 453 -136 l 2,52,53
 452 -140 452 -140 451 -142.5 c 128,-1,54
 450 -145 450 -145 445 -147 c 0,55,56
 432 -154 432 -154 407.5 -159 c 128,-1,57
 383 -164 383 -164 358 -164 c 0,58,59
 310 -164 310 -164 288 -143 c 128,-1,60
 266 -122 266 -122 271 -85 c 0,61,36
 276 -53 276 -53 302 -29.5 c 128,-1,37
EndSplineSet
EndChar

StartChar: Cacute
Encoding: 262 262 199
Width: 681
GlyphClass: 2
Flags: W
AnchorPoint: "Anchor-5" -46 0 basechar 0
AnchorPoint: "Anchor-4" 314 0 basechar 0
AnchorPoint: "Anchor-3" 314 723 basechar 0
AnchorPoint: "Anchor-2" -46 0 basechar 0
LayerCount: 2
Fore
SplineSet
537 704 m 128,-1,1
 593 675 593 675 622 625.5 c 128,-1,2
 651 576 651 576 650 516 c 1,3,-1
 558 511 l 1,4,5
 554 578 554 578 513.5 618 c 128,-1,6
 473 658 473 658 395 658 c 0,7,8
 294 658 294 658 231.5 584 c 128,-1,9
 169 510 169 510 148 362 c 0,10,11
 127 215 127 215 170 140.5 c 128,-1,12
 213 66 213 66 318 66 c 0,13,14
 385 66 385 66 437.5 105 c 128,-1,15
 490 144 490 144 514 210 c 1,16,-1
 603 202 l 1,17,18
 588 143 588 143 547 94.5 c 128,-1,19
 506 46 506 46 444 18 c 128,-1,20
 382 -10 382 -10 308 -10 c 0,21,22
 211 -10 211 -10 148 35 c 128,-1,23
 85 80 85 80 61 164 c 128,-1,24
 37 248 37 248 53 363 c 128,-1,25
 69 478 69 478 116.5 561.5 c 128,-1,26
 164 645 164 645 237.5 689 c 128,-1,27
 311 733 311 733 406 733 c 0,28,0
 481 733 481 733 537 704 c 128,-1,1
594 871 m 1,29,-1
 333 797 l 1,30,-1
 325 842 l 1,31,-1
 582 938 l 1,32,-1
 594 871 l 1,29,-1
EndSplineSet
EndChar

StartChar: cacute
Encoding: 263 263 200
Width: 537
GlyphClass: 2
Flags: W
AnchorPoint: "Anchor-5" -46 0 basechar 0
AnchorPoint: "Anchor-4" 239 0 basechar 0
AnchorPoint: "Anchor-3" 238 517 basechar 0
AnchorPoint: "Anchor-2" -46 0 basechar 0
LayerCount: 2
Fore
SplineSet
491 382 m 1,0,-1
 418 368 l 1,1,2
 391 417 391 417 368.5 437 c 128,-1,3
 346 457 346 457 306 457 c 0,4,5
 234 457 234 457 184.5 403.5 c 128,-1,6
 135 350 135 350 122 258 c 0,7,8
 109 165 109 165 144 110.5 c 128,-1,9
 179 56 179 56 251 56 c 0,10,11
 295 56 295 56 328 80.5 c 128,-1,12
 361 105 361 105 393 152 c 1,13,-1
 460 137 l 1,14,15
 424 68 424 68 367.5 29 c 128,-1,16
 311 -10 311 -10 237 -10 c 0,17,18
 167 -10 167 -10 118 23.5 c 128,-1,19
 69 57 69 57 48.5 117.5 c 128,-1,20
 28 178 28 178 39 256 c 0,21,22
 50 335 50 335 87.5 396.5 c 128,-1,23
 125 458 125 458 183.5 492.5 c 128,-1,24
 242 527 242 527 312 527 c 0,25,26
 452 527 452 527 491 382 c 1,0,-1
489 665 m 1,27,-1
 228 591 l 1,28,-1
 220 636 l 1,29,-1
 477 732 l 1,30,-1
 489 665 l 1,27,-1
EndSplineSet
EndChar

StartChar: Ccircumflex
Encoding: 264 264 201
Width: 681
GlyphClass: 2
Flags: W
AnchorPoint: "Anchor-5" -46 0 basechar 0
AnchorPoint: "Anchor-4" 314 0 basechar 0
AnchorPoint: "Anchor-3" 314 723 basechar 0
AnchorPoint: "Anchor-2" -46 0 basechar 0
LayerCount: 2
Fore
SplineSet
537 704 m 128,-1,1
 593 675 593 675 622 625.5 c 128,-1,2
 651 576 651 576 650 516 c 1,3,-1
 558 511 l 1,4,5
 554 578 554 578 513.5 618 c 128,-1,6
 473 658 473 658 395 658 c 0,7,8
 294 658 294 658 231.5 584 c 128,-1,9
 169 510 169 510 148 362 c 0,10,11
 127 215 127 215 170 140.5 c 128,-1,12
 213 66 213 66 318 66 c 0,13,14
 385 66 385 66 437.5 105 c 128,-1,15
 490 144 490 144 514 210 c 1,16,-1
 603 202 l 1,17,18
 588 143 588 143 547 94.5 c 128,-1,19
 506 46 506 46 444 18 c 128,-1,20
 382 -10 382 -10 308 -10 c 0,21,22
 211 -10 211 -10 148 35 c 128,-1,23
 85 80 85 80 61 164 c 128,-1,24
 37 248 37 248 53 363 c 128,-1,25
 69 478 69 478 116.5 561.5 c 128,-1,26
 164 645 164 645 237.5 689 c 128,-1,27
 311 733 311 733 406 733 c 0,28,0
 481 733 481 733 537 704 c 128,-1,1
467 886 m 1,29,-1
 382 820 l 1,30,-1
 303 820 l 1,31,-1
 444 932 l 1,32,-1
 506 932 l 1,33,-1
 612 820 l 1,34,-1
 528 820 l 1,35,-1
 467 886 l 1,29,-1
EndSplineSet
EndChar

StartChar: ccircumflex
Encoding: 265 265 202
Width: 537
GlyphClass: 2
Flags: W
AnchorPoint: "Anchor-5" -46 0 basechar 0
AnchorPoint: "Anchor-4" 239 0 basechar 0
AnchorPoint: "Anchor-3" 238 517 basechar 0
AnchorPoint: "Anchor-2" -46 0 basechar 0
LayerCount: 2
Fore
SplineSet
491 382 m 1,0,-1
 418 368 l 1,1,2
 391 417 391 417 368.5 437 c 128,-1,3
 346 457 346 457 306 457 c 0,4,5
 234 457 234 457 184.5 403.5 c 128,-1,6
 135 350 135 350 122 258 c 0,7,8
 109 165 109 165 144 110.5 c 128,-1,9
 179 56 179 56 251 56 c 0,10,11
 295 56 295 56 328 80.5 c 128,-1,12
 361 105 361 105 393 152 c 1,13,-1
 460 137 l 1,14,15
 424 68 424 68 367.5 29 c 128,-1,16
 311 -10 311 -10 237 -10 c 0,17,18
 167 -10 167 -10 118 23.5 c 128,-1,19
 69 57 69 57 48.5 117.5 c 128,-1,20
 28 178 28 178 39 256 c 0,21,22
 50 335 50 335 87.5 396.5 c 128,-1,23
 125 458 125 458 183.5 492.5 c 128,-1,24
 242 527 242 527 312 527 c 0,25,26
 452 527 452 527 491 382 c 1,0,-1
362 680 m 1,27,-1
 277 614 l 1,28,-1
 198 614 l 1,29,-1
 339 726 l 1,30,-1
 401 726 l 1,31,-1
 507 614 l 1,32,-1
 423 614 l 1,33,-1
 362 680 l 1,27,-1
EndSplineSet
EndChar

StartChar: Cdotaccent
Encoding: 266 266 203
Width: 681
GlyphClass: 2
Flags: W
AnchorPoint: "Anchor-5" -46 0 basechar 0
AnchorPoint: "Anchor-4" 314 0 basechar 0
AnchorPoint: "Anchor-3" 314 723 basechar 0
AnchorPoint: "Anchor-2" -46 0 basechar 0
LayerCount: 2
Fore
SplineSet
537 704 m 128,-1,1
 593 675 593 675 622 625.5 c 128,-1,2
 651 576 651 576 650 516 c 1,3,-1
 558 511 l 1,4,5
 554 578 554 578 513.5 618 c 128,-1,6
 473 658 473 658 395 658 c 0,7,8
 294 658 294 658 231.5 584 c 128,-1,9
 169 510 169 510 148 362 c 0,10,11
 127 215 127 215 170 140.5 c 128,-1,12
 213 66 213 66 318 66 c 0,13,14
 385 66 385 66 437.5 105 c 128,-1,15
 490 144 490 144 514 210 c 1,16,-1
 603 202 l 1,17,18
 588 143 588 143 547 94.5 c 128,-1,19
 506 46 506 46 444 18 c 128,-1,20
 382 -10 382 -10 308 -10 c 0,21,22
 211 -10 211 -10 148 35 c 128,-1,23
 85 80 85 80 61 164 c 128,-1,24
 37 248 37 248 53 363 c 128,-1,25
 69 478 69 478 116.5 561.5 c 128,-1,26
 164 645 164 645 237.5 689 c 128,-1,27
 311 733 311 733 406 733 c 0,28,0
 481 733 481 733 537 704 c 128,-1,1
484 814 m 1,29,-1
 392 814 l 1,30,-1
 408 929 l 1,31,-1
 500 929 l 1,32,-1
 484 814 l 1,29,-1
EndSplineSet
EndChar

StartChar: cdotaccent
Encoding: 267 267 204
Width: 537
GlyphClass: 2
Flags: W
AnchorPoint: "Anchor-5" -46 0 basechar 0
AnchorPoint: "Anchor-4" 239 0 basechar 0
AnchorPoint: "Anchor-3" 238 517 basechar 0
AnchorPoint: "Anchor-2" -46 0 basechar 0
LayerCount: 2
Fore
SplineSet
491 382 m 1,0,-1
 418 368 l 1,1,2
 391 417 391 417 368.5 437 c 128,-1,3
 346 457 346 457 306 457 c 0,4,5
 234 457 234 457 184.5 403.5 c 128,-1,6
 135 350 135 350 122 258 c 0,7,8
 109 165 109 165 144 110.5 c 128,-1,9
 179 56 179 56 251 56 c 0,10,11
 295 56 295 56 328 80.5 c 128,-1,12
 361 105 361 105 393 152 c 1,13,-1
 460 137 l 1,14,15
 424 68 424 68 367.5 29 c 128,-1,16
 311 -10 311 -10 237 -10 c 0,17,18
 167 -10 167 -10 118 23.5 c 128,-1,19
 69 57 69 57 48.5 117.5 c 128,-1,20
 28 178 28 178 39 256 c 0,21,22
 50 335 50 335 87.5 396.5 c 128,-1,23
 125 458 125 458 183.5 492.5 c 128,-1,24
 242 527 242 527 312 527 c 0,25,26
 452 527 452 527 491 382 c 1,0,-1
379 608 m 1,27,-1
 287 608 l 1,28,-1
 303 723 l 1,29,-1
 395 723 l 1,30,-1
 379 608 l 1,27,-1
EndSplineSet
EndChar

StartChar: Ccaron
Encoding: 268 268 205
Width: 681
GlyphClass: 2
Flags: W
AnchorPoint: "Anchor-5" -46 0 basechar 0
AnchorPoint: "Anchor-4" 314 0 basechar 0
AnchorPoint: "Anchor-3" 314 723 basechar 0
AnchorPoint: "Anchor-2" -46 0 basechar 0
LayerCount: 2
Fore
SplineSet
537 704 m 128,-1,1
 593 675 593 675 622 625.5 c 128,-1,2
 651 576 651 576 650 516 c 1,3,-1
 558 511 l 1,4,5
 554 578 554 578 513.5 618 c 128,-1,6
 473 658 473 658 395 658 c 0,7,8
 294 658 294 658 231.5 584 c 128,-1,9
 169 510 169 510 148 362 c 0,10,11
 127 215 127 215 170 140.5 c 128,-1,12
 213 66 213 66 318 66 c 0,13,14
 385 66 385 66 437.5 105 c 128,-1,15
 490 144 490 144 514 210 c 1,16,-1
 603 202 l 1,17,18
 588 143 588 143 547 94.5 c 128,-1,19
 506 46 506 46 444 18 c 128,-1,20
 382 -10 382 -10 308 -10 c 0,21,22
 211 -10 211 -10 148 35 c 128,-1,23
 85 80 85 80 61 164 c 128,-1,24
 37 248 37 248 53 363 c 128,-1,25
 69 478 69 478 116.5 561.5 c 128,-1,26
 164 645 164 645 237.5 689 c 128,-1,27
 311 733 311 733 406 733 c 0,28,0
 481 733 481 733 537 704 c 128,-1,1
627 929 m 1,29,-1
 489 817 l 1,30,-1
 426 817 l 1,31,-1
 317 929 l 1,32,-1
 397 929 l 1,33,-1
 464 863 l 1,34,-1
 543 929 l 1,35,-1
 627 929 l 1,29,-1
EndSplineSet
EndChar

StartChar: ccaron
Encoding: 269 269 206
Width: 537
GlyphClass: 2
Flags: W
AnchorPoint: "Anchor-5" -46 0 basechar 0
AnchorPoint: "Anchor-4" 239 0 basechar 0
AnchorPoint: "Anchor-3" 238 517 basechar 0
AnchorPoint: "Anchor-2" -46 0 basechar 0
LayerCount: 2
Fore
SplineSet
491 382 m 1,0,-1
 418 368 l 1,1,2
 391 417 391 417 368.5 437 c 128,-1,3
 346 457 346 457 306 457 c 0,4,5
 234 457 234 457 184.5 403.5 c 128,-1,6
 135 350 135 350 122 258 c 0,7,8
 109 165 109 165 144 110.5 c 128,-1,9
 179 56 179 56 251 56 c 0,10,11
 295 56 295 56 328 80.5 c 128,-1,12
 361 105 361 105 393 152 c 1,13,-1
 460 137 l 1,14,15
 424 68 424 68 367.5 29 c 128,-1,16
 311 -10 311 -10 237 -10 c 0,17,18
 167 -10 167 -10 118 23.5 c 128,-1,19
 69 57 69 57 48.5 117.5 c 128,-1,20
 28 178 28 178 39 256 c 0,21,22
 50 335 50 335 87.5 396.5 c 128,-1,23
 125 458 125 458 183.5 492.5 c 128,-1,24
 242 527 242 527 312 527 c 0,25,26
 452 527 452 527 491 382 c 1,0,-1
522 723 m 1,27,-1
 384 611 l 1,28,-1
 321 611 l 1,29,-1
 212 723 l 1,30,-1
 292 723 l 1,31,-1
 359 657 l 1,32,-1
 438 723 l 1,33,-1
 522 723 l 1,27,-1
EndSplineSet
EndChar

StartChar: Dcaron
Encoding: 270 270 207
Width: 685
GlyphClass: 2
Flags: W
AnchorPoint: "Anchor-5" -46 0 basechar 0
AnchorPoint: "Anchor-4" -46 0 basechar 0
AnchorPoint: "Anchor-3" 291 723 basechar 0
AnchorPoint: "Anchor-2" -46 0 basechar 0
LayerCount: 2
Fore
SplineSet
304 722 m 0,0,1
 500 720 500 720 577.5 631 c 128,-1,2
 655 542 655 542 630 366 c 0,3,4
 604 183 604 183 496 91.5 c 128,-1,5
 388 0 388 0 192 0 c 2,6,-1
 40 0 l 1,7,-1
 142 723 l 1,8,9
 243 723 243 723 304 722 c 0,0,1
140 75 m 1,10,-1
 203 75 l 2,11,12
 349 75 349 75 433.5 143 c 128,-1,13
 518 211 518 211 540 364 c 0,14,15
 562 518 562 518 497.5 583 c 128,-1,16
 433 648 433 648 288 648 c 2,17,-1
 221 648 l 1,18,-1
 140 75 l 1,10,-1
604 929 m 1,19,-1
 466 817 l 1,20,-1
 403 817 l 1,21,-1
 294 929 l 1,22,-1
 374 929 l 1,23,-1
 441 863 l 1,24,-1
 520 929 l 1,25,-1
 604 929 l 1,19,-1
EndSplineSet
EndChar

StartChar: dcaron
Encoding: 271 271 208
Width: 583
GlyphClass: 2
Flags: W
AnchorPoint: "Anchor-5" 548 661 basechar 0
AnchorPoint: "Anchor-4" 242 0 basechar 0
AnchorPoint: "Anchor-3" -46 0 basechar 0
AnchorPoint: "Anchor-2" -46 0 basechar 0
LayerCount: 2
Fore
SplineSet
68.5 58.5 m 128,-1,1
 21 127 21 127 39 253 c 0,2,3
 57 378 57 378 124 452.5 c 128,-1,4
 191 527 191 527 293 527 c 0,5,6
 337 527 337 527 372 511 c 128,-1,7
 407 495 407 495 437 462 c 1,8,-1
 476 743 l 1,9,-1
 562 743 l 1,10,-1
 458 0 l 1,11,-1
 390 0 l 1,12,-1
 396 74 l 1,13,14
 317 -10 317 -10 216 -10 c 0,15,0
 116 -10 116 -10 68.5 58.5 c 128,-1,1
314 76 m 128,-1,17
 348 95 348 95 371 125.5 c 128,-1,18
 394 156 394 156 398 188 c 2,19,-1
 425 376 l 1,20,21
 387 459 387 459 304 459 c 0,22,23
 234 459 234 459 186 407 c 128,-1,24
 138 355 138 355 124 256 c 0,25,26
 110 156 110 156 143.5 106.5 c 128,-1,27
 177 57 177 57 242 57 c 0,28,16
 280 57 280 57 314 76 c 128,-1,17
550.5 473 m 128,-1,30
 549 476 549 476 551 479 c 2,31,-1
 590 550 l 2,32,33
 593 556 593 556 593 558.5 c 128,-1,34
 593 561 593 561 588 562 c 2,35,-1
 581 563 l 2,36,37
 575 564 575 564 573 566 c 128,-1,38
 571 568 571 568 572 573 c 2,39,-1
 583 652 l 2,40,41
 584 661 584 661 592 661 c 2,42,-1
 650 661 l 2,43,44
 658 661 658 661 657 654 c 2,45,-1
 644 563 l 2,46,47
 644 561 644 561 643 560 c 2,48,-1
 641 558 l 1,49,-1
 597 479 l 2,50,51
 594 474 594 474 590 472 c 128,-1,52
 586 470 586 470 577 470 c 2,53,-1
 556 470 l 2,54,29
 552 470 552 470 550.5 473 c 128,-1,30
EndSplineSet
EndChar

StartChar: Dcroat
Encoding: 272 272 209
Width: 694
GlyphClass: 2
Flags: W
AnchorPoint: "Anchor-5" -46 0 basechar 0
AnchorPoint: "Anchor-4" -46 0 basechar 0
AnchorPoint: "Anchor-3" 300 723 basechar 0
AnchorPoint: "Anchor-2" -46 0 basechar 0
LayerCount: 2
Fore
SplineSet
591.5 631 m 128,-1,1
 669 542 669 542 644 366 c 0,2,3
 618 183 618 183 510.5 91.5 c 128,-1,4
 403 0 403 0 207 0 c 2,5,-1
 55 0 l 1,6,-1
 101 327 l 1,7,-1
 45 327 l 2,8,9
 36 327 36 327 33.5 330 c 128,-1,10
 31 333 31 333 32 341 c 2,11,-1
 38 384 l 2,12,13
 40 396 40 396 50 396 c 2,14,-1
 111 396 l 1,15,-1
 157 723 l 1,16,17
 258 723 258 723 319 722 c 0,18,0
 514 720 514 720 591.5 631 c 128,-1,1
448.5 143 m 128,-1,20
 533 211 533 211 554 364 c 0,21,22
 576 518 576 518 511.5 583 c 128,-1,23
 447 648 447 648 302 648 c 2,24,-1
 235 648 l 1,25,-1
 200 396 l 1,26,-1
 359 396 l 2,27,28
 369 396 369 396 367 385 c 2,29,-1
 361 342 l 2,30,31
 359 327 359 327 341 327 c 2,32,-1
 190 327 l 1,33,-1
 155 75 l 1,34,-1
 218 75 l 2,35,19
 364 75 364 75 448.5 143 c 128,-1,20
EndSplineSet
EndChar

StartChar: dcroat
Encoding: 273 273 210
Width: 598
GlyphClass: 2
Flags: W
AnchorPoint: "Anchor-5" 548 661 basechar 0
AnchorPoint: "Anchor-4" 242 0 basechar 0
AnchorPoint: "Anchor-3" -46 0 basechar 0
AnchorPoint: "Anchor-2" -46 0 basechar 0
LayerCount: 2
Fore
SplineSet
610 598 m 1,0,-1
 542 598 l 1,1,-1
 458 0 l 1,2,-1
 390 0 l 1,3,-1
 396 74 l 1,4,5
 317 -10 317 -10 216 -10 c 0,6,7
 116 -10 116 -10 68.5 58.5 c 128,-1,8
 21 127 21 127 39 253 c 0,9,10
 57 378 57 378 124 452.5 c 128,-1,11
 191 527 191 527 293 527 c 0,12,13
 337 527 337 527 372 511 c 128,-1,14
 407 495 407 495 437 462 c 1,15,-1
 456 598 l 1,16,-1
 305 598 l 1,17,-1
 313 653 l 1,18,-1
 464 653 l 1,19,-1
 476 743 l 1,20,-1
 562 743 l 1,21,-1
 550 653 l 1,22,-1
 618 653 l 1,23,-1
 610 598 l 1,0,-1
425 376 m 1,24,25
 387 459 387 459 304 459 c 0,26,27
 234 459 234 459 186 407 c 128,-1,28
 138 355 138 355 124 256 c 0,29,30
 110 156 110 156 143.5 106.5 c 128,-1,31
 177 57 177 57 242 57 c 0,32,33
 280 57 280 57 314 76 c 128,-1,34
 348 95 348 95 371 125.5 c 128,-1,35
 394 156 394 156 398 188 c 2,36,-1
 425 376 l 1,24,25
EndSplineSet
EndChar

StartChar: Emacron
Encoding: 274 274 211
Width: 621
GlyphClass: 2
Flags: W
AnchorPoint: "Anchor-5" -46 0 basechar 0
AnchorPoint: "Anchor-4" 297 0 basechar 0
AnchorPoint: "Anchor-3" 285 723 basechar 0
AnchorPoint: "Anchor-2" 503 10 basechar 0
LayerCount: 2
Fore
SplineSet
142 723 m 1,0,-1
 593 723 l 1,1,-1
 582 647 l 1,2,-1
 217 647 l 1,3,-1
 183 403 l 1,4,-1
 513 403 l 1,5,-1
 502 327 l 1,6,-1
 172 327 l 1,7,-1
 137 78 l 1,8,-1
 512 77 l 1,9,-1
 501 0 l 1,10,-1
 40 0 l 1,11,-1
 142 723 l 1,0,-1
579 854 m 1,12,-1
 287 854 l 1,13,-1
 295 916 l 1,14,-1
 587 916 l 1,15,-1
 579 854 l 1,12,-1
EndSplineSet
EndChar

StartChar: emacron
Encoding: 275 275 212
Width: 556
GlyphClass: 2
Flags: W
AnchorPoint: "Anchor-5" -46 0 basechar 0
AnchorPoint: "Anchor-4" 232 0 basechar 0
AnchorPoint: "Anchor-3" 238 517 basechar 0
AnchorPoint: "Anchor-2" 341 20 basechar 0
LayerCount: 2
Fore
SplineSet
145.5 108.5 m 128,-1,1
 179 58 179 58 253 58 c 0,2,3
 353 58 353 58 395 138 c 1,4,-1
 472 127 l 1,5,6
 445 63 445 63 383.5 26.5 c 128,-1,7
 322 -10 322 -10 246 -10 c 0,8,9
 174 -10 174 -10 123 21.5 c 128,-1,10
 72 53 72 53 49.5 112.5 c 128,-1,11
 27 172 27 172 39 253 c 0,12,13
 57 378 57 378 129.5 452.5 c 128,-1,14
 202 527 202 527 312 527 c 0,15,16
 418 527 418 527 467 459 c 128,-1,17
 516 391 516 391 499 272 c 2,18,-1
 494 238 l 1,19,-1
 123 238 l 1,20,0
 112 159 112 159 145.5 108.5 c 128,-1,1
420 298 m 1,21,22
 430 370 430 370 400.5 415 c 128,-1,23
 371 460 371 460 302 460 c 0,24,25
 254 460 254 460 217.5 437 c 128,-1,26
 181 414 181 414 159.5 376.5 c 128,-1,27
 138 339 138 339 132 298 c 1,28,-1
 420 298 l 1,21,22
503 648 m 1,29,-1
 211 648 l 1,30,-1
 219 710 l 1,31,-1
 511 710 l 1,32,-1
 503 648 l 1,29,-1
EndSplineSet
EndChar

StartChar: Ebreve
Encoding: 276 276 213
Width: 621
GlyphClass: 2
Flags: W
AnchorPoint: "Anchor-5" -46 0 basechar 0
AnchorPoint: "Anchor-4" 297 0 basechar 0
AnchorPoint: "Anchor-3" 285 723 basechar 0
AnchorPoint: "Anchor-2" 503 10 basechar 0
LayerCount: 2
Fore
SplineSet
142 723 m 1,0,-1
 593 723 l 1,1,-1
 582 647 l 1,2,-1
 217 647 l 1,3,-1
 183 403 l 1,4,-1
 513 403 l 1,5,-1
 502 327 l 1,6,-1
 172 327 l 1,7,-1
 137 78 l 1,8,-1
 512 77 l 1,9,-1
 501 0 l 1,10,-1
 40 0 l 1,11,-1
 142 723 l 1,0,-1
530.5 854 m 128,-1,13
 487 823 487 823 429 823 c 0,14,15
 372 823 372 823 337 853 c 128,-1,16
 302 883 302 883 297 929 c 1,17,-1
 362 929 l 1,18,19
 386 877 386 877 436 877 c 0,20,21
 465 877 465 877 488.5 892.5 c 128,-1,22
 512 908 512 908 528 929 c 1,23,-1
 594 929 l 1,24,12
 574 885 574 885 530.5 854 c 128,-1,13
EndSplineSet
EndChar

StartChar: ebreve
Encoding: 277 277 214
Width: 556
GlyphClass: 2
Flags: W
AnchorPoint: "Anchor-5" -46 0 basechar 0
AnchorPoint: "Anchor-4" 232 0 basechar 0
AnchorPoint: "Anchor-3" 238 517 basechar 0
AnchorPoint: "Anchor-2" 341 20 basechar 0
LayerCount: 2
Fore
SplineSet
145.5 108.5 m 128,-1,1
 179 58 179 58 253 58 c 0,2,3
 353 58 353 58 395 138 c 1,4,-1
 472 127 l 1,5,6
 445 63 445 63 383.5 26.5 c 128,-1,7
 322 -10 322 -10 246 -10 c 0,8,9
 174 -10 174 -10 123 21.5 c 128,-1,10
 72 53 72 53 49.5 112.5 c 128,-1,11
 27 172 27 172 39 253 c 0,12,13
 57 378 57 378 129.5 452.5 c 128,-1,14
 202 527 202 527 312 527 c 0,15,16
 418 527 418 527 467 459 c 128,-1,17
 516 391 516 391 499 272 c 2,18,-1
 494 238 l 1,19,-1
 123 238 l 1,20,0
 112 159 112 159 145.5 108.5 c 128,-1,1
420 298 m 1,21,22
 430 370 430 370 400.5 415 c 128,-1,23
 371 460 371 460 302 460 c 0,24,25
 254 460 254 460 217.5 437 c 128,-1,26
 181 414 181 414 159.5 376.5 c 128,-1,27
 138 339 138 339 132 298 c 1,28,-1
 420 298 l 1,21,22
454.5 648 m 128,-1,30
 411 617 411 617 353 617 c 0,31,32
 296 617 296 617 261 647 c 128,-1,33
 226 677 226 677 221 723 c 1,34,-1
 286 723 l 1,35,36
 310 671 310 671 360 671 c 0,37,38
 389 671 389 671 412.5 686.5 c 128,-1,39
 436 702 436 702 452 723 c 1,40,-1
 518 723 l 1,41,29
 498 679 498 679 454.5 648 c 128,-1,30
EndSplineSet
EndChar

StartChar: Edotaccent
Encoding: 278 278 215
Width: 621
GlyphClass: 2
Flags: W
AnchorPoint: "Anchor-5" -46 0 basechar 0
AnchorPoint: "Anchor-4" 297 0 basechar 0
AnchorPoint: "Anchor-3" 285 723 basechar 0
AnchorPoint: "Anchor-2" 503 10 basechar 0
LayerCount: 2
Fore
SplineSet
142 723 m 1,0,-1
 593 723 l 1,1,-1
 582 647 l 1,2,-1
 217 647 l 1,3,-1
 183 403 l 1,4,-1
 513 403 l 1,5,-1
 502 327 l 1,6,-1
 172 327 l 1,7,-1
 137 78 l 1,8,-1
 512 77 l 1,9,-1
 501 0 l 1,10,-1
 40 0 l 1,11,-1
 142 723 l 1,0,-1
455 814 m 1,12,-1
 363 814 l 1,13,-1
 379 929 l 1,14,-1
 471 929 l 1,15,-1
 455 814 l 1,12,-1
EndSplineSet
EndChar

StartChar: edotaccent
Encoding: 279 279 216
Width: 556
GlyphClass: 2
Flags: W
AnchorPoint: "Anchor-5" -46 0 basechar 0
AnchorPoint: "Anchor-4" 232 0 basechar 0
AnchorPoint: "Anchor-3" 238 517 basechar 0
AnchorPoint: "Anchor-2" 341 20 basechar 0
LayerCount: 2
Fore
SplineSet
145.5 108.5 m 128,-1,1
 179 58 179 58 253 58 c 0,2,3
 353 58 353 58 395 138 c 1,4,-1
 472 127 l 1,5,6
 445 63 445 63 383.5 26.5 c 128,-1,7
 322 -10 322 -10 246 -10 c 0,8,9
 174 -10 174 -10 123 21.5 c 128,-1,10
 72 53 72 53 49.5 112.5 c 128,-1,11
 27 172 27 172 39 253 c 0,12,13
 57 378 57 378 129.5 452.5 c 128,-1,14
 202 527 202 527 312 527 c 0,15,16
 418 527 418 527 467 459 c 128,-1,17
 516 391 516 391 499 272 c 2,18,-1
 494 238 l 1,19,-1
 123 238 l 1,20,0
 112 159 112 159 145.5 108.5 c 128,-1,1
420 298 m 1,21,22
 430 370 430 370 400.5 415 c 128,-1,23
 371 460 371 460 302 460 c 0,24,25
 254 460 254 460 217.5 437 c 128,-1,26
 181 414 181 414 159.5 376.5 c 128,-1,27
 138 339 138 339 132 298 c 1,28,-1
 420 298 l 1,21,22
379 608 m 1,29,-1
 287 608 l 1,30,-1
 303 723 l 1,31,-1
 395 723 l 1,32,-1
 379 608 l 1,29,-1
EndSplineSet
EndChar

StartChar: Eogonek
Encoding: 280 280 217
Width: 621
GlyphClass: 2
Flags: W
AnchorPoint: "Anchor-5" -46 0 basechar 0
AnchorPoint: "Anchor-4" 297 0 basechar 0
AnchorPoint: "Anchor-3" 285 723 basechar 0
AnchorPoint: "Anchor-2" 503 10 basechar 0
LayerCount: 2
Fore
SplineSet
142 723 m 1,0,-1
 593 723 l 1,1,-1
 582 647 l 1,2,-1
 217 647 l 1,3,-1
 183 403 l 1,4,-1
 513 403 l 1,5,-1
 502 327 l 1,6,-1
 172 327 l 1,7,-1
 137 78 l 1,8,-1
 512 77 l 1,9,-1
 501 0 l 1,10,-1
 40 0 l 1,11,-1
 142 723 l 1,0,-1
384 -32.5 m 128,-1,13
 410 -9 410 -9 470 9 c 1,14,-1
 532 2 l 1,15,16
 477 -20 477 -20 452 -38.5 c 128,-1,17
 427 -57 427 -57 424 -81 c 0,18,19
 421 -100 421 -100 431.5 -109 c 128,-1,20
 442 -118 442 -118 467 -118 c 0,21,22
 486 -118 486 -118 503 -114 c 128,-1,23
 520 -110 520 -110 530 -105 c 2,24,-1
 536 -103 l 2,25,26
 540 -103 540 -103 539 -111 c 2,27,-1
 535 -139 l 2,28,29
 534 -143 534 -143 533 -145.5 c 128,-1,30
 532 -148 532 -148 527 -150 c 0,31,32
 514 -157 514 -157 489.5 -162 c 128,-1,33
 465 -167 465 -167 440 -167 c 0,34,35
 392 -167 392 -167 370 -146 c 128,-1,36
 348 -125 348 -125 353 -88 c 0,37,12
 358 -56 358 -56 384 -32.5 c 128,-1,13
EndSplineSet
EndChar

StartChar: eogonek
Encoding: 281 281 218
Width: 556
GlyphClass: 2
Flags: W
AnchorPoint: "Anchor-5" -46 0 basechar 0
AnchorPoint: "Anchor-4" 232 0 basechar 0
AnchorPoint: "Anchor-3" 238 517 basechar 0
AnchorPoint: "Anchor-2" 341 20 basechar 0
LayerCount: 2
Fore
SplineSet
145.5 108.5 m 128,-1,1
 179 58 179 58 253 58 c 0,2,3
 353 58 353 58 395 138 c 1,4,-1
 472 127 l 1,5,6
 445 63 445 63 383.5 26.5 c 128,-1,7
 322 -10 322 -10 246 -10 c 0,8,9
 174 -10 174 -10 123 21.5 c 128,-1,10
 72 53 72 53 49.5 112.5 c 128,-1,11
 27 172 27 172 39 253 c 0,12,13
 57 378 57 378 129.5 452.5 c 128,-1,14
 202 527 202 527 312 527 c 0,15,16
 418 527 418 527 467 459 c 128,-1,17
 516 391 516 391 499 272 c 2,18,-1
 494 238 l 1,19,-1
 123 238 l 1,20,0
 112 159 112 159 145.5 108.5 c 128,-1,1
420 298 m 1,21,22
 430 370 430 370 400.5 415 c 128,-1,23
 371 460 371 460 302 460 c 0,24,25
 254 460 254 460 217.5 437 c 128,-1,26
 181 414 181 414 159.5 376.5 c 128,-1,27
 138 339 138 339 132 298 c 1,28,-1
 420 298 l 1,21,22
223 -22.5 m 128,-1,30
 249 1 249 1 309 19 c 1,31,-1
 371 12 l 1,32,33
 316 -10 316 -10 291 -28.5 c 128,-1,34
 266 -47 266 -47 263 -71 c 0,35,36
 260 -90 260 -90 270.5 -99 c 128,-1,37
 281 -108 281 -108 306 -108 c 0,38,39
 325 -108 325 -108 342 -104 c 128,-1,40
 359 -100 359 -100 369 -95 c 2,41,-1
 375 -93 l 2,42,43
 379 -93 379 -93 378 -101 c 2,44,-1
 374 -129 l 2,45,46
 373 -133 373 -133 372 -135.5 c 128,-1,47
 371 -138 371 -138 366 -140 c 0,48,49
 353 -147 353 -147 328.5 -152 c 128,-1,50
 304 -157 304 -157 279 -157 c 0,51,52
 231 -157 231 -157 209 -136 c 128,-1,53
 187 -115 187 -115 192 -78 c 0,54,29
 197 -46 197 -46 223 -22.5 c 128,-1,30
EndSplineSet
EndChar

StartChar: Ecaron
Encoding: 282 282 219
Width: 621
GlyphClass: 2
Flags: W
AnchorPoint: "Anchor-5" -46 0 basechar 0
AnchorPoint: "Anchor-4" 297 0 basechar 0
AnchorPoint: "Anchor-3" 285 723 basechar 0
AnchorPoint: "Anchor-2" 503 10 basechar 0
LayerCount: 2
Fore
SplineSet
142 723 m 1,0,-1
 593 723 l 1,1,-1
 582 647 l 1,2,-1
 217 647 l 1,3,-1
 183 403 l 1,4,-1
 513 403 l 1,5,-1
 502 327 l 1,6,-1
 172 327 l 1,7,-1
 137 78 l 1,8,-1
 512 77 l 1,9,-1
 501 0 l 1,10,-1
 40 0 l 1,11,-1
 142 723 l 1,0,-1
598 929 m 1,12,-1
 460 817 l 1,13,-1
 397 817 l 1,14,-1
 288 929 l 1,15,-1
 368 929 l 1,16,-1
 435 863 l 1,17,-1
 514 929 l 1,18,-1
 598 929 l 1,12,-1
EndSplineSet
EndChar

StartChar: ecaron
Encoding: 283 283 220
Width: 556
GlyphClass: 2
Flags: W
AnchorPoint: "Anchor-5" -46 0 basechar 0
AnchorPoint: "Anchor-4" 232 0 basechar 0
AnchorPoint: "Anchor-3" 238 517 basechar 0
AnchorPoint: "Anchor-2" 341 20 basechar 0
LayerCount: 2
Fore
SplineSet
145.5 108.5 m 128,-1,1
 179 58 179 58 253 58 c 0,2,3
 353 58 353 58 395 138 c 1,4,-1
 472 127 l 1,5,6
 445 63 445 63 383.5 26.5 c 128,-1,7
 322 -10 322 -10 246 -10 c 0,8,9
 174 -10 174 -10 123 21.5 c 128,-1,10
 72 53 72 53 49.5 112.5 c 128,-1,11
 27 172 27 172 39 253 c 0,12,13
 57 378 57 378 129.5 452.5 c 128,-1,14
 202 527 202 527 312 527 c 0,15,16
 418 527 418 527 467 459 c 128,-1,17
 516 391 516 391 499 272 c 2,18,-1
 494 238 l 1,19,-1
 123 238 l 1,20,0
 112 159 112 159 145.5 108.5 c 128,-1,1
420 298 m 1,21,22
 430 370 430 370 400.5 415 c 128,-1,23
 371 460 371 460 302 460 c 0,24,25
 254 460 254 460 217.5 437 c 128,-1,26
 181 414 181 414 159.5 376.5 c 128,-1,27
 138 339 138 339 132 298 c 1,28,-1
 420 298 l 1,21,22
522 723 m 1,29,-1
 384 611 l 1,30,-1
 321 611 l 1,31,-1
 212 723 l 1,32,-1
 292 723 l 1,33,-1
 359 657 l 1,34,-1
 438 723 l 1,35,-1
 522 723 l 1,29,-1
EndSplineSet
EndChar

StartChar: Gcircumflex
Encoding: 284 284 221
Width: 725
GlyphClass: 2
Flags: W
AnchorPoint: "Anchor-5" -46 0 basechar 0
AnchorPoint: "Anchor-4" 316 0 basechar 0
AnchorPoint: "Anchor-3" 312 723 basechar 0
AnchorPoint: "Anchor-2" -46 0 basechar 0
LayerCount: 2
Fore
SplineSet
149.5 34.5 m 128,-1,1
 87 79 87 79 62 162.5 c 128,-1,2
 37 246 37 246 53 359 c 0,3,4
 69 475 69 475 119 559.5 c 128,-1,5
 169 644 169 644 244.5 688.5 c 128,-1,6
 320 733 320 733 413 733 c 0,7,8
 482 733 482 733 538.5 703 c 128,-1,9
 595 673 595 673 625.5 623.5 c 128,-1,10
 656 574 656 574 652 517 c 1,11,-1
 558 511 l 1,12,13
 555 574 555 574 512 615 c 128,-1,14
 469 656 469 656 401 656 c 0,15,16
 300 656 300 656 232.5 580.5 c 128,-1,17
 165 505 165 505 146 365 c 0,18,19
 125 217 125 217 172.5 142.5 c 128,-1,20
 220 68 220 68 321 68 c 0,21,22
 380 68 380 68 425.5 95 c 128,-1,23
 471 122 471 122 499 162 c 128,-1,24
 527 202 527 202 534 242 c 2,25,-1
 546 309 l 1,26,-1
 367 309 l 1,27,-1
 376 373 l 1,28,-1
 644 372 l 1,29,-1
 591 0 l 1,30,-1
 525 0 l 1,31,-1
 541 112 l 1,32,33
 501 58 501 58 442.5 24 c 128,-1,34
 384 -10 384 -10 305 -10 c 0,35,0
 212 -10 212 -10 149.5 34.5 c 128,-1,1
465 886 m 1,36,-1
 380 820 l 1,37,-1
 301 820 l 1,38,-1
 442 932 l 1,39,-1
 504 932 l 1,40,-1
 610 820 l 1,41,-1
 526 820 l 1,42,-1
 465 886 l 1,36,-1
EndSplineSet
EndChar

StartChar: gcircumflex
Encoding: 285 285 222
Width: 601
GlyphClass: 2
Flags: W
AnchorPoint: "Anchor-5" -46 0 basechar 0
AnchorPoint: "Anchor-4" -46 0 basechar 0
AnchorPoint: "Anchor-3" 250 517 basechar 0
AnchorPoint: "Anchor-2" -46 0 basechar 0
LayerCount: 2
Fore
SplineSet
37 -134 m 128,-1,1
 -24 -97 -24 -97 -15 -34 c 0,2,3
 -9 7 -9 7 20.5 32 c 128,-1,4
 50 57 50 57 72 67 c 128,-1,5
 94 77 94 77 98 80 c 1,6,7
 94 82 94 82 81 91 c 128,-1,8
 68 100 68 100 60.5 113 c 128,-1,9
 53 126 53 126 55 144 c 0,10,11
 59 169 59 169 85 188.5 c 128,-1,12
 111 208 111 208 156 218 c 1,13,14
 110 244 110 244 91.5 279 c 128,-1,15
 73 314 73 314 80 361 c 0,16,17
 91 438 91 438 158 481.5 c 128,-1,18
 225 525 225 525 326 525 c 0,19,20
 374 525 374 525 407 514 c 128,-1,21
 440 503 440 503 467 480 c 1,22,23
 477 483 477 483 524 502 c 2,24,-1
 605 533 l 1,25,-1
 592 451 l 1,26,-1
 500 434 l 1,27,28
 505 419 505 419 507 397.5 c 128,-1,29
 509 376 509 376 507 362 c 0,30,31
 501 317 501 317 472 280 c 128,-1,32
 443 243 443 243 392 221 c 128,-1,33
 341 199 341 199 271 199 c 0,34,35
 251 199 251 199 243 200 c 0,36,37
 191 199 191 199 166.5 188.5 c 128,-1,38
 142 178 142 178 140 164 c 0,39,40
 138 149 138 149 158.5 143 c 128,-1,41
 179 137 179 137 236 133 c 2,42,-1
 347 127 l 2,43,44
 431 121 431 121 467 85 c 128,-1,45
 503 49 503 49 494 -12 c 0,46,47
 484 -86 484 -86 412.5 -128.5 c 128,-1,48
 341 -171 341 -171 221 -171 c 0,49,0
 98 -171 98 -171 37 -134 c 128,-1,1
381.5 282.5 m 128,-1,51
 418 310 418 310 425 361 c 0,52,53
 432 413 432 413 403 442 c 128,-1,54
 374 471 374 471 312 471 c 128,-1,55
 250 471 250 471 211.5 441.5 c 128,-1,56
 173 412 173 412 166 361 c 0,57,58
 159 311 159 311 189.5 283 c 128,-1,59
 220 255 220 255 282 255 c 0,60,50
 345 255 345 255 381.5 282.5 c 128,-1,51
362 -92.5 m 128,-1,62
 402 -70 402 -70 409 -24 c 0,63,64
 414 10 414 10 394 29 c 128,-1,65
 374 48 374 48 323 52 c 2,66,-1
 177 61 l 2,67,68
 158 62 158 62 134.5 51 c 128,-1,69
 111 40 111 40 93 20 c 128,-1,70
 75 0 75 0 72 -24 c 0,71,72
 66 -69 66 -69 110 -92 c 128,-1,73
 154 -115 154 -115 244 -115 c 0,74,61
 322 -115 322 -115 362 -92.5 c 128,-1,62
374 680 m 1,75,-1
 289 614 l 1,76,-1
 210 614 l 1,77,-1
 351 726 l 1,78,-1
 413 726 l 1,79,-1
 519 614 l 1,80,-1
 435 614 l 1,81,-1
 374 680 l 1,75,-1
EndSplineSet
EndChar

StartChar: Gbreve
Encoding: 286 286 223
Width: 725
GlyphClass: 2
Flags: W
AnchorPoint: "Anchor-5" -46 0 basechar 0
AnchorPoint: "Anchor-4" 316 0 basechar 0
AnchorPoint: "Anchor-3" 312 723 basechar 0
AnchorPoint: "Anchor-2" -46 0 basechar 0
LayerCount: 2
Fore
SplineSet
149.5 34.5 m 128,-1,1
 87 79 87 79 62 162.5 c 128,-1,2
 37 246 37 246 53 359 c 0,3,4
 69 475 69 475 119 559.5 c 128,-1,5
 169 644 169 644 244.5 688.5 c 128,-1,6
 320 733 320 733 413 733 c 0,7,8
 482 733 482 733 538.5 703 c 128,-1,9
 595 673 595 673 625.5 623.5 c 128,-1,10
 656 574 656 574 652 517 c 1,11,-1
 558 511 l 1,12,13
 555 574 555 574 512 615 c 128,-1,14
 469 656 469 656 401 656 c 0,15,16
 300 656 300 656 232.5 580.5 c 128,-1,17
 165 505 165 505 146 365 c 0,18,19
 125 217 125 217 172.5 142.5 c 128,-1,20
 220 68 220 68 321 68 c 0,21,22
 380 68 380 68 425.5 95 c 128,-1,23
 471 122 471 122 499 162 c 128,-1,24
 527 202 527 202 534 242 c 2,25,-1
 546 309 l 1,26,-1
 367 309 l 1,27,-1
 376 373 l 1,28,-1
 644 372 l 1,29,-1
 591 0 l 1,30,-1
 525 0 l 1,31,-1
 541 112 l 1,32,33
 501 58 501 58 442.5 24 c 128,-1,34
 384 -10 384 -10 305 -10 c 0,35,0
 212 -10 212 -10 149.5 34.5 c 128,-1,1
557.5 854 m 128,-1,37
 514 823 514 823 456 823 c 0,38,39
 399 823 399 823 364 853 c 128,-1,40
 329 883 329 883 324 929 c 1,41,-1
 389 929 l 1,42,43
 413 877 413 877 463 877 c 0,44,45
 492 877 492 877 515.5 892.5 c 128,-1,46
 539 908 539 908 555 929 c 1,47,-1
 621 929 l 1,48,36
 601 885 601 885 557.5 854 c 128,-1,37
EndSplineSet
EndChar

